G04 Layer_Physical_Order=1*
G04 Layer_Color=255*
%FSLAX44Y44*%
%MOMM*%
G71*
G01*
G75*
%ADD10R,0.7112X0.7620*%
%ADD11R,0.7620X0.7112*%
%ADD12O,0.2500X1.5500*%
%ADD13O,1.5500X0.2500*%
%ADD14R,2.5000X1.0000*%
%ADD15R,2.4000X1.0000*%
%ADD16R,2.4000X3.3000*%
%ADD17R,2.3000X2.3000*%
%ADD18R,6.3000X6.1000*%
%ADD19R,1.5000X2.8000*%
%ADD20O,2.2000X0.6000*%
%ADD21R,2.1000X0.8000*%
G04:AMPARAMS|DCode=22|XSize=2.1mm|YSize=0.8mm|CornerRadius=0.2mm|HoleSize=0mm|Usage=FLASHONLY|Rotation=0.000|XOffset=0mm|YOffset=0mm|HoleType=Round|Shape=RoundedRectangle|*
%AMROUNDEDRECTD22*
21,1,2.1000,0.4000,0,0,0.0*
21,1,1.7000,0.8000,0,0,0.0*
1,1,0.4000,0.8500,-0.2000*
1,1,0.4000,-0.8500,-0.2000*
1,1,0.4000,-0.8500,0.2000*
1,1,0.4000,0.8500,0.2000*
%
%ADD22ROUNDEDRECTD22*%
%ADD23R,1.4500X0.4500*%
%ADD24R,0.3000X1.2000*%
%ADD25O,0.3000X1.2000*%
%ADD26R,0.8000X0.8000*%
%ADD27R,0.8000X0.8000*%
%ADD28R,1.7000X1.1000*%
%ADD29R,0.6000X0.9000*%
%ADD30O,0.6000X2.2000*%
%ADD31R,1.4000X1.3000*%
%ADD32R,1.3000X1.4000*%
%ADD33R,3.4290X2.4130*%
%ADD34R,2.0000X1.6000*%
%ADD35R,2.4130X3.4290*%
%ADD36C,0.2000*%
%ADD37C,0.3000*%
%ADD38C,0.5000*%
%ADD39C,0.2500*%
%ADD40C,1.0000*%
%ADD41C,0.4000*%
%ADD42C,0.6000*%
%ADD43C,3.0000*%
%ADD44C,1.7000*%
%ADD45R,1.5000X1.5000*%
%ADD46C,1.5000*%
%ADD47R,1.5000X1.5000*%
%ADD48C,0.6000*%
%ADD49C,6.2000*%
%ADD50C,0.5000*%
%ADD51C,2.0000*%
%ADD52C,1.0000*%
G36*
X353941Y304475D02*
Y304000D01*
X353941Y304000D01*
X354174Y302829D01*
X354837Y301837D01*
X402076Y254598D01*
X401483Y253395D01*
X400000Y253591D01*
X397259Y253230D01*
X394705Y252172D01*
X392511Y250489D01*
X390828Y248295D01*
X389770Y245741D01*
X389409Y243000D01*
X389770Y240259D01*
X390828Y237705D01*
X392511Y235511D01*
X394705Y233828D01*
X397259Y232770D01*
X400000Y232409D01*
X402741Y232770D01*
X404977Y233697D01*
X410941Y227733D01*
Y222342D01*
X409671Y222089D01*
X409172Y223295D01*
X407489Y225489D01*
X405295Y227172D01*
X402741Y228230D01*
X400000Y228591D01*
X397259Y228230D01*
X395277Y227409D01*
X352314Y270373D01*
Y305142D01*
X352671Y305301D01*
X353941Y304475D01*
D02*
G37*
G36*
X579701Y265299D02*
X570530Y256128D01*
X570418Y255961D01*
X570276Y255819D01*
X570199Y255634D01*
X570088Y255467D01*
X570048Y255270D01*
X569971Y255084D01*
Y254883D01*
X569932Y254687D01*
X569971Y254489D01*
Y254289D01*
X570019Y254050D01*
X569789Y252895D01*
X569135Y251915D01*
X568155Y251261D01*
X566799Y250991D01*
X566205D01*
X565943Y250939D01*
X565677Y250922D01*
X565556Y250862D01*
X565425Y250836D01*
X565203Y250688D01*
X564964Y250570D01*
X563852Y249717D01*
X563575Y249602D01*
X563408Y249490D01*
X563222Y249414D01*
X563080Y249272D01*
X562913Y249160D01*
X562802Y248993D01*
X562659Y248851D01*
X562583Y248665D01*
X562471Y248498D01*
X562432Y248301D01*
X562355Y248116D01*
Y247915D01*
X562316Y247718D01*
X562355Y247521D01*
Y247320D01*
X562608Y246050D01*
X562684Y245865D01*
X562724Y245668D01*
X562835Y245501D01*
X562912Y245315D01*
X563054Y245173D01*
X563166Y245006D01*
X563333Y244895D01*
X563475Y244752D01*
X563660Y244676D01*
X563827Y244564D01*
X564024Y244525D01*
X564210Y244448D01*
X564411D01*
X564608Y244409D01*
X566799D01*
X568256Y244119D01*
X568353Y244054D01*
X568550Y244015D01*
X568735Y243938D01*
X568936D01*
X569133Y243899D01*
X580000D01*
Y241350D01*
X577451Y238801D01*
X571753D01*
X571653Y238781D01*
X571553Y238791D01*
X571266Y238704D01*
X570972Y238646D01*
X570888Y238590D01*
X570791Y238560D01*
X570560Y238370D01*
X570311Y238204D01*
X570254Y238120D01*
X570176Y238055D01*
X570035Y237791D01*
X569869Y237542D01*
X569849Y237443D01*
X569801Y237354D01*
X569694Y237000D01*
X551124D01*
X550048Y237707D01*
X549985Y237857D01*
X549960Y238018D01*
X549835Y238222D01*
X549743Y238442D01*
X549628Y238557D01*
X549543Y238696D01*
X549349Y238836D01*
X549181Y239005D01*
X548866Y239215D01*
X548211Y240195D01*
X547981Y241350D01*
X548211Y242505D01*
X548865Y243485D01*
X549673Y244024D01*
X549744Y244096D01*
X549833Y244143D01*
X550024Y244375D01*
X550235Y244587D01*
X550274Y244680D01*
X550338Y244758D01*
X550425Y245045D01*
X550540Y245322D01*
Y245423D01*
X550569Y245520D01*
X550540Y245818D01*
Y246117D01*
X550501Y246211D01*
X550491Y246312D01*
X550106Y247582D01*
X550058Y247671D01*
X550039Y247770D01*
X549872Y248019D01*
X549731Y248283D01*
X549653Y248347D01*
X549596Y248431D01*
X549347Y248598D01*
X549116Y248788D01*
X549019Y248817D01*
X548935Y248874D01*
X548641Y248932D01*
X548354Y249019D01*
X548254Y249009D01*
X548155Y249029D01*
X543084D01*
X541655Y249217D01*
X540448Y249717D01*
X539412Y250512D01*
X538617Y251548D01*
X538528Y251762D01*
X538454Y251874D01*
X538410Y252001D01*
X538234Y252201D01*
X538086Y252423D01*
X537975Y252498D01*
X537886Y252599D01*
X537646Y252717D01*
X537425Y252865D01*
X537293Y252892D01*
X537172Y252951D01*
X536906Y252969D01*
X536644Y253020D01*
X536512Y252994D01*
X536378Y253003D01*
X536000Y252953D01*
X533400Y253296D01*
X530977Y254299D01*
X529000Y255816D01*
Y266000D01*
X535000Y272000D01*
X540301D01*
X541023Y271701D01*
X543104Y270104D01*
X544701Y268023D01*
X545704Y265600D01*
X546047Y263000D01*
X545959Y262331D01*
X545963Y262264D01*
X545946Y262199D01*
X545989Y261869D01*
X546011Y261537D01*
X546041Y261477D01*
X546049Y261410D01*
X546216Y261122D01*
X546363Y260824D01*
X546414Y260779D01*
X546447Y260721D01*
X547285Y259766D01*
X547338Y259725D01*
X547376Y259668D01*
X547652Y259484D01*
X547916Y259282D01*
X547981Y259264D01*
X548037Y259226D01*
X548363Y259162D01*
X548685Y259076D01*
X548752Y259084D01*
X548818Y259071D01*
X558425D01*
X558425Y259071D01*
X559206Y259226D01*
X559868Y259668D01*
X559868Y259669D01*
X572199Y272000D01*
X573000D01*
X579701Y265299D01*
D02*
G37*
G36*
X316941Y295733D02*
Y197991D01*
X315671Y197605D01*
X315244Y198244D01*
X314059Y199037D01*
Y296819D01*
X314487Y297141D01*
X315274Y297400D01*
X316941Y295733D01*
D02*
G37*
G36*
X410941Y213658D02*
Y172342D01*
X409671Y172089D01*
X409172Y173295D01*
X407489Y175489D01*
X405295Y177172D01*
X402741Y178230D01*
X400000Y178591D01*
X397259Y178230D01*
X395277Y177409D01*
X389314Y183372D01*
Y213043D01*
X390584Y213295D01*
X390828Y212705D01*
X392511Y210511D01*
X394705Y208828D01*
X397259Y207770D01*
X400000Y207409D01*
X402741Y207770D01*
X405295Y208828D01*
X407489Y210511D01*
X409172Y212705D01*
X409671Y213911D01*
X410941Y213658D01*
D02*
G37*
G36*
X109898Y292264D02*
X110941Y291000D01*
X110941Y291000D01*
Y263794D01*
X109950Y263264D01*
X109671Y263256D01*
X108000Y263588D01*
X107781Y263545D01*
X98545Y272781D01*
X98588Y273000D01*
X98239Y274756D01*
X97244Y276244D01*
X96118Y276997D01*
X95760Y278434D01*
X109629Y292304D01*
X109898Y292264D01*
D02*
G37*
G36*
X141651Y312529D02*
Y311444D01*
X141806Y310664D01*
X142248Y310002D01*
X142910Y309560D01*
X143690Y309405D01*
X151310D01*
X152090Y309560D01*
X152752Y310002D01*
X153194Y310664D01*
X153349Y311444D01*
Y311941D01*
X156651D01*
Y311444D01*
X156806Y310664D01*
X157248Y310002D01*
X157910Y309560D01*
X158690Y309405D01*
X165694D01*
X165866Y309300D01*
X166590Y308380D01*
X166646Y308177D01*
X166412Y307000D01*
X166687Y305615D01*
X166607Y305356D01*
X166120Y304677D01*
X165801Y304395D01*
X158690D01*
X157910Y304240D01*
X157248Y303798D01*
X156806Y303136D01*
X156651Y302356D01*
Y295244D01*
X156806Y294464D01*
X157248Y293802D01*
X157910Y293360D01*
X158690Y293205D01*
X166310D01*
X166671Y293277D01*
X167722Y292649D01*
X167941Y292401D01*
Y289767D01*
X166269Y288095D01*
X161190D01*
X160410Y287940D01*
X159748Y287498D01*
X159306Y286836D01*
X159151Y286056D01*
Y285559D01*
X153349D01*
Y286056D01*
X153194Y286836D01*
X152752Y287498D01*
X152090Y287940D01*
X151310Y288095D01*
X143690D01*
X142910Y287940D01*
X142248Y287498D01*
X141953Y287439D01*
X140756Y288239D01*
X139000Y288588D01*
X137947Y288379D01*
X131545Y294781D01*
X131588Y295000D01*
X131239Y296756D01*
X130244Y298244D01*
X128756Y299239D01*
X128426Y299305D01*
X128008Y300683D01*
X140381Y313055D01*
X141651Y312529D01*
D02*
G37*
G36*
X570804Y526730D02*
X569771Y526482D01*
X564972Y524494D01*
X560543Y521780D01*
X556593Y518407D01*
X553220Y514457D01*
X550506Y510028D01*
X548518Y505229D01*
X547305Y500178D01*
X546898Y495000D01*
X547305Y489822D01*
X548518Y484771D01*
X550506Y479972D01*
X553220Y475543D01*
X556593Y471593D01*
X560543Y468220D01*
X564972Y465506D01*
X569771Y463518D01*
X574822Y462305D01*
X580000Y461898D01*
X585178Y462305D01*
X590229Y463518D01*
X595028Y465506D01*
X599457Y468220D01*
X603407Y471593D01*
X606780Y475543D01*
X609494Y479972D01*
X611482Y484771D01*
X612695Y489822D01*
X613102Y495000D01*
X612695Y500178D01*
X611482Y505229D01*
X609494Y510028D01*
X606780Y514457D01*
X604387Y517259D01*
X605321Y518121D01*
X607327Y516110D01*
X610113Y512471D01*
X612400Y508500D01*
X614149Y504264D01*
X615330Y499836D01*
X615923Y495291D01*
X615920Y493000D01*
Y3000D01*
X615923Y709D01*
X615330Y-3836D01*
X614149Y-8264D01*
X612400Y-12500D01*
X610676Y-15492D01*
X609535Y-14930D01*
X611482Y-10229D01*
X612695Y-5178D01*
X613102Y-0D01*
X612695Y5178D01*
X611482Y10229D01*
X609494Y15028D01*
X606780Y19457D01*
X603407Y23407D01*
X599457Y26780D01*
X595028Y29494D01*
X590229Y31482D01*
X585178Y32694D01*
X580000Y33102D01*
X574822Y32694D01*
X569771Y31482D01*
X564972Y29494D01*
X560543Y26780D01*
X556593Y23407D01*
X553220Y19457D01*
X550506Y15028D01*
X548518Y10229D01*
X547305Y5178D01*
X546039Y5275D01*
Y60155D01*
X557442Y71558D01*
X557884Y72220D01*
X558039Y73000D01*
Y161289D01*
X558442Y161558D01*
X558442Y161558D01*
X575442Y178558D01*
X575884Y179220D01*
X576039Y180000D01*
Y230000D01*
X575884Y230780D01*
X575442Y231442D01*
X575442Y231442D01*
X571442Y235442D01*
X571367Y235492D01*
X571753Y236762D01*
X584405D01*
Y236190D01*
X584560Y235410D01*
X585002Y234748D01*
X585664Y234306D01*
X586444Y234151D01*
X593556D01*
X594336Y234306D01*
X594998Y234748D01*
X595440Y235410D01*
X595595Y236190D01*
Y243810D01*
X595440Y244590D01*
X594998Y245252D01*
X594336Y245694D01*
X593556Y245849D01*
X589097D01*
X588650Y245938D01*
X569133D01*
X568951Y246060D01*
X567000Y246448D01*
X564608D01*
X564355Y247718D01*
X564880Y247936D01*
X566205Y248952D01*
X567000D01*
X568951Y249340D01*
X570605Y250445D01*
X571710Y252099D01*
X572098Y254050D01*
X571971Y254687D01*
X591746Y274461D01*
X605300D01*
X606080Y274616D01*
X606742Y275058D01*
X607184Y275720D01*
X607339Y276500D01*
Y304500D01*
X607184Y305280D01*
X606742Y305942D01*
X606080Y306384D01*
X605300Y306539D01*
X590300D01*
X589520Y306384D01*
X588858Y305942D01*
X588707Y305715D01*
X587428Y305427D01*
X587158Y305467D01*
X580463Y312163D01*
X579470Y312826D01*
X578300Y313059D01*
X578300Y313059D01*
X540000D01*
X538829Y312826D01*
X537837Y312163D01*
X537837Y312163D01*
X531269Y305595D01*
X526190D01*
X525410Y305440D01*
X524748Y304998D01*
X524455Y304559D01*
X520545D01*
X520252Y304998D01*
X519590Y305440D01*
X518810Y305595D01*
X511190D01*
X510410Y305440D01*
X509748Y304998D01*
X509455Y304559D01*
X503115D01*
X502692Y305192D01*
X502030Y305634D01*
X501250Y305789D01*
X486750D01*
X485970Y305634D01*
X485308Y305192D01*
X484866Y304530D01*
X484711Y303750D01*
Y299250D01*
X484866Y298470D01*
X485013Y298250D01*
X484866Y298030D01*
X484711Y297250D01*
Y292750D01*
X484866Y291970D01*
X485308Y291308D01*
X485970Y290866D01*
X486750Y290711D01*
X501250D01*
X502030Y290866D01*
X502692Y291308D01*
X502713Y291339D01*
X504215Y291459D01*
X505837Y289837D01*
X505837Y289837D01*
X506829Y289174D01*
X508000Y288941D01*
X508316D01*
X508549Y288752D01*
X509214Y287671D01*
X509151Y287356D01*
Y285059D01*
X503115D01*
X502692Y285692D01*
X502030Y286134D01*
X501250Y286289D01*
X486750D01*
X485970Y286134D01*
X485308Y285692D01*
X484866Y285030D01*
X484711Y284250D01*
Y279750D01*
X484866Y278970D01*
X485308Y278308D01*
X485970Y277866D01*
X486750Y277711D01*
X501250D01*
X502030Y277866D01*
X502692Y278308D01*
X503115Y278941D01*
X509655D01*
X509748Y278802D01*
X510410Y278360D01*
X511190Y278205D01*
X518810D01*
X519590Y278360D01*
X520252Y278802D01*
X520345Y278941D01*
X524655D01*
X524748Y278802D01*
X525410Y278360D01*
X526190Y278205D01*
X533810D01*
X534590Y278360D01*
X535252Y278802D01*
X535694Y279464D01*
X535849Y280244D01*
Y287356D01*
X535787Y287671D01*
X536451Y288752D01*
X536684Y288941D01*
X542661D01*
Y276500D01*
X542816Y275720D01*
X543258Y275058D01*
X543920Y274616D01*
X544700Y274461D01*
X559700D01*
X560480Y274616D01*
X561142Y275058D01*
X561584Y275720D01*
X561739Y276500D01*
Y304500D01*
X561584Y305280D01*
X561323Y305671D01*
X561650Y306624D01*
X561885Y306941D01*
X577033D01*
X588261Y295713D01*
Y290946D01*
X558425Y261110D01*
X548818D01*
X547980Y262065D01*
X548104Y263000D01*
X547691Y266133D01*
X546482Y269052D01*
X544558Y271558D01*
X542052Y273482D01*
X539133Y274691D01*
X536000Y275104D01*
X532867Y274691D01*
X529948Y273482D01*
X527441Y271558D01*
X525518Y269052D01*
X524309Y266133D01*
X523896Y263000D01*
X524309Y259867D01*
X525518Y256948D01*
X527441Y254442D01*
X529948Y252518D01*
X532867Y251309D01*
X536000Y250896D01*
X536644Y250981D01*
X536836Y250520D01*
X537958Y249058D01*
X539420Y247936D01*
X541123Y247230D01*
X542950Y246990D01*
X548155D01*
X548540Y245720D01*
X547395Y244955D01*
X546290Y243301D01*
X545902Y241350D01*
X546290Y239399D01*
X547395Y237745D01*
X548048Y237309D01*
X548025Y236694D01*
X547740Y235987D01*
X547220Y235884D01*
X546558Y235442D01*
X546558Y235442D01*
X543558Y232442D01*
X543116Y231780D01*
X542961Y231000D01*
Y209000D01*
X542961Y209000D01*
X543116Y208220D01*
X543558Y207558D01*
X543558Y207558D01*
X548532Y202584D01*
X548396Y201723D01*
X547356Y200849D01*
X540244D01*
X539464Y200694D01*
X538802Y200252D01*
X538360Y199590D01*
X538205Y198810D01*
Y198059D01*
X530595D01*
Y198810D01*
X530440Y199590D01*
X529998Y200252D01*
X529336Y200694D01*
X528556Y200849D01*
X521444D01*
X520664Y200694D01*
X520002Y200252D01*
X519560Y199590D01*
X519405Y198810D01*
Y193731D01*
X509733Y184059D01*
X507368D01*
X507244Y184244D01*
X505756Y185239D01*
X504000Y185588D01*
X502244Y185239D01*
X501348Y184640D01*
X500078Y185319D01*
Y199261D01*
X511670Y210852D01*
X519000D01*
X520951Y211240D01*
X522605Y212345D01*
X523710Y213999D01*
X524098Y215950D01*
X523710Y217901D01*
X522605Y219555D01*
X520951Y220660D01*
X519000Y221048D01*
X503000D01*
X501049Y220660D01*
X500158Y220065D01*
X499641Y219719D01*
X498831Y220705D01*
X501897Y223771D01*
X503000Y223552D01*
X519000D01*
X520951Y223940D01*
X522605Y225045D01*
X523710Y226699D01*
X524098Y228650D01*
X523710Y230601D01*
X522605Y232255D01*
X520951Y233360D01*
X519000Y233748D01*
X503000D01*
X501049Y233360D01*
X499395Y232255D01*
X498290Y230601D01*
X497902Y228650D01*
X497939Y228465D01*
X491952Y222477D01*
X490781Y223103D01*
X490849Y223444D01*
Y230556D01*
X490694Y231336D01*
X490252Y231998D01*
X489590Y232440D01*
X488810Y232595D01*
X481190D01*
X480410Y232440D01*
X480270Y232347D01*
X480266Y232344D01*
X480111Y232532D01*
X480086Y232563D01*
X479456Y233330D01*
X483731Y237605D01*
X488810D01*
X489590Y237760D01*
X490252Y238202D01*
X490694Y238864D01*
X490849Y239644D01*
Y240141D01*
X498143D01*
X498290Y239399D01*
X499395Y237745D01*
X501049Y236640D01*
X503000Y236252D01*
X519000D01*
X520951Y236640D01*
X522605Y237745D01*
X523710Y239399D01*
X524098Y241350D01*
X523710Y243301D01*
X522605Y244955D01*
X520951Y246060D01*
X519000Y246448D01*
X503000D01*
X502049Y246259D01*
X490849D01*
Y246756D01*
X490694Y247536D01*
X490252Y248198D01*
X489590Y248640D01*
X488810Y248795D01*
X481190D01*
X480410Y248640D01*
X479748Y248198D01*
X479306Y247536D01*
X479151Y246756D01*
Y241677D01*
X472533Y235059D01*
X463368D01*
X463244Y235244D01*
X461756Y236239D01*
X460000Y236588D01*
X458244Y236239D01*
X456756Y235244D01*
X455761Y233756D01*
X455412Y232000D01*
X455761Y230244D01*
X456756Y228756D01*
X458244Y227761D01*
X460000Y227412D01*
X461756Y227761D01*
X463244Y228756D01*
X463368Y228941D01*
X473800D01*
X473800Y228941D01*
X474971Y229174D01*
X475963Y229837D01*
X478416Y232290D01*
X479402Y231481D01*
X479399Y231476D01*
X479306Y231336D01*
X479151Y230556D01*
Y223444D01*
X479306Y222664D01*
X479748Y222002D01*
X480410Y221560D01*
X481190Y221405D01*
X488810D01*
X489151Y221473D01*
X489776Y220302D01*
X486269Y216795D01*
X481190D01*
X480410Y216640D01*
X479748Y216198D01*
X479306Y215536D01*
X479151Y214756D01*
Y210059D01*
X476368D01*
X476244Y210244D01*
X474756Y211239D01*
X473000Y211588D01*
X471244Y211239D01*
X469756Y210244D01*
X468761Y208756D01*
X468412Y207000D01*
X468761Y205244D01*
X469756Y203756D01*
X471244Y202761D01*
X473000Y202412D01*
X474756Y202761D01*
X476244Y203756D01*
X476368Y203941D01*
X480800D01*
X480800Y203941D01*
X481971Y204174D01*
X482963Y204837D01*
X483731Y205605D01*
X488810D01*
X489590Y205760D01*
X490252Y206202D01*
X490694Y206864D01*
X490849Y207644D01*
Y212723D01*
X498245Y220119D01*
X499231Y219309D01*
X498886Y218792D01*
X498290Y217901D01*
X497902Y215950D01*
X498290Y213999D01*
X499395Y212345D01*
X499901Y212007D01*
X500026Y210743D01*
X493116Y203834D01*
X492232Y202511D01*
X491922Y200950D01*
X491922Y200950D01*
Y166000D01*
X491922Y166000D01*
X492232Y164439D01*
X493116Y163116D01*
X495124Y161109D01*
X495058Y160442D01*
X494616Y159780D01*
X494461Y159000D01*
Y151000D01*
X494616Y150220D01*
X495058Y149558D01*
X495720Y149116D01*
X496500Y148961D01*
X517500D01*
X518280Y149116D01*
X518942Y149558D01*
X519384Y150220D01*
X519539Y151000D01*
Y159000D01*
X519384Y159780D01*
X518942Y160442D01*
X518280Y160884D01*
X517500Y161039D01*
X513493D01*
X512451Y162309D01*
X512588Y163000D01*
X512239Y164756D01*
X511244Y166244D01*
X509756Y167239D01*
X508000Y167588D01*
X506244Y167239D01*
X504756Y166244D01*
X504180Y165383D01*
X502639Y165129D01*
X500078Y167689D01*
Y176681D01*
X501348Y177360D01*
X502244Y176761D01*
X504000Y176412D01*
X505756Y176761D01*
X507244Y177756D01*
X507368Y177941D01*
X511000D01*
X511000Y177941D01*
X512171Y178174D01*
X513163Y178837D01*
X523477Y189151D01*
X528556D01*
X529336Y189306D01*
X529998Y189748D01*
X530440Y190410D01*
X530595Y191190D01*
Y191941D01*
X538205D01*
Y191190D01*
X538360Y190410D01*
X538802Y189748D01*
X539464Y189306D01*
X540244Y189151D01*
X547356D01*
X547691Y189217D01*
X548759Y188568D01*
X548961Y188329D01*
Y182845D01*
X534155Y168039D01*
X525000D01*
X524220Y167884D01*
X523558Y167442D01*
X521558Y165442D01*
X521116Y164780D01*
X520961Y164000D01*
Y130845D01*
X488558Y98442D01*
X488116Y97780D01*
X487961Y97000D01*
X487961Y-4000D01*
X488116Y-4780D01*
X488558Y-5442D01*
X501558Y-18442D01*
X502220Y-18884D01*
X503000Y-19039D01*
X531000D01*
X531000Y-19039D01*
X531780Y-18884D01*
X532442Y-18442D01*
X532442Y-18442D01*
X545442Y-5442D01*
X545884Y-4780D01*
X545967Y-4361D01*
X547247Y-4437D01*
X547305Y-5178D01*
X548518Y-10229D01*
X550506Y-15028D01*
X553220Y-19457D01*
X556593Y-23407D01*
X560543Y-26780D01*
X564972Y-29494D01*
X567956Y-30730D01*
X567703Y-32000D01*
X12297D01*
X12044Y-30730D01*
X15028Y-29494D01*
X19457Y-26780D01*
X23407Y-23407D01*
X26780Y-19457D01*
X29494Y-15028D01*
X31482Y-10229D01*
X32694Y-5178D01*
X33102Y0D01*
X32694Y5178D01*
X31482Y10229D01*
X29494Y15028D01*
X26780Y19457D01*
X23407Y23407D01*
X19457Y26780D01*
X15028Y29494D01*
X10229Y31482D01*
X5178Y32694D01*
X0Y33102D01*
X-5178Y32694D01*
X-10229Y31482D01*
X-15028Y29494D01*
X-19457Y26780D01*
X-23407Y23407D01*
X-26780Y19457D01*
X-29494Y15028D01*
X-31482Y10229D01*
X-32694Y5178D01*
X-32730Y4727D01*
X-34000Y4777D01*
Y156000D01*
Y156796D01*
X-33391Y158266D01*
X-32266Y159391D01*
X-30796Y160000D01*
X10000D01*
X10975Y160096D01*
X11172Y160177D01*
X11891Y159101D01*
X10888Y158098D01*
X6000D01*
X4049Y157710D01*
X2395Y156605D01*
X-3605Y150605D01*
X-4710Y148951D01*
X-5098Y147000D01*
Y119238D01*
X-6368Y118985D01*
X-6702Y119791D01*
X-8224Y121775D01*
X-10209Y123298D01*
X-12520Y124255D01*
X-15000Y124582D01*
X-17480Y124255D01*
X-19791Y123298D01*
X-21775Y121775D01*
X-23298Y119791D01*
X-24255Y117480D01*
X-24582Y115000D01*
X-24255Y112520D01*
X-23298Y110209D01*
X-21775Y108224D01*
X-19791Y106702D01*
X-17480Y105744D01*
X-15000Y105418D01*
X-12520Y105744D01*
X-10209Y106702D01*
X-8224Y108224D01*
X-6702Y110209D01*
X-6368Y111015D01*
X-5098Y110762D01*
Y99312D01*
X-5316Y99136D01*
X-6368Y98749D01*
X-6720Y98984D01*
X-7500Y99139D01*
X-22500D01*
X-23280Y98984D01*
X-23942Y98542D01*
X-24384Y97880D01*
X-24539Y97100D01*
Y82100D01*
X-24384Y81320D01*
X-23942Y80658D01*
X-23280Y80216D01*
X-22500Y80061D01*
X-7500D01*
X-6720Y80216D01*
X-6058Y80658D01*
X-5616Y81320D01*
X-5461Y82100D01*
Y84502D01*
X5461D01*
Y82100D01*
X5616Y81320D01*
X6058Y80658D01*
X6720Y80216D01*
X7500Y80061D01*
X22500D01*
X23280Y80216D01*
X23942Y80658D01*
X24384Y81320D01*
X24539Y82100D01*
Y97100D01*
X24384Y97880D01*
X23942Y98542D01*
X23280Y98984D01*
X22500Y99139D01*
X7500D01*
X6720Y98984D01*
X6368Y98749D01*
X5316Y99136D01*
X5098Y99312D01*
Y110762D01*
X6368Y111015D01*
X6702Y110209D01*
X8224Y108224D01*
X10209Y106702D01*
X12520Y105744D01*
X15000Y105418D01*
X17480Y105744D01*
X19791Y106702D01*
X21775Y108224D01*
X23298Y110209D01*
X24255Y112520D01*
X24582Y115000D01*
X24255Y117480D01*
X23538Y119212D01*
X37267Y132941D01*
X72009D01*
X72395Y131671D01*
X72295Y131605D01*
X71190Y129951D01*
X70802Y128000D01*
Y124588D01*
X63989D01*
Y126500D01*
X63834Y127280D01*
X63392Y127942D01*
X62730Y128384D01*
X61950Y128539D01*
X47950D01*
X47170Y128384D01*
X46508Y127942D01*
X46066Y127280D01*
X45911Y126500D01*
Y113500D01*
X46066Y112720D01*
X46508Y112058D01*
X47170Y111616D01*
X47950Y111461D01*
X50362D01*
Y106050D01*
X50711Y104294D01*
X51706Y102806D01*
X58756Y95756D01*
X60244Y94761D01*
X62000Y94412D01*
X69510D01*
X69510Y94410D01*
X69952Y93748D01*
X70362Y93474D01*
Y85104D01*
X51805D01*
X51025Y84949D01*
X50363Y84507D01*
X49921Y83845D01*
X49766Y83065D01*
Y58935D01*
X49921Y58155D01*
X50363Y57493D01*
X51025Y57051D01*
X51805Y56896D01*
X86095D01*
X86875Y57051D01*
X87537Y57493D01*
X87979Y58155D01*
X88134Y58935D01*
Y83065D01*
X87979Y83845D01*
X87537Y84507D01*
X86875Y84949D01*
X86095Y85104D01*
X79538D01*
Y93474D01*
X79948Y93748D01*
X80390Y94410D01*
X80545Y95190D01*
Y102810D01*
X80390Y103590D01*
X79948Y104252D01*
X79286Y104694D01*
X78506Y104849D01*
X71394D01*
X70614Y104694D01*
X69952Y104252D01*
X69510Y103590D01*
X69510Y103588D01*
X63900D01*
X59538Y107950D01*
Y111461D01*
X61950D01*
X62730Y111616D01*
X63392Y112058D01*
X63834Y112720D01*
X63989Y113500D01*
Y115412D01*
X70802D01*
Y112000D01*
X71190Y110049D01*
X72295Y108395D01*
X73949Y107290D01*
X75900Y106902D01*
X77851Y107290D01*
X79505Y108395D01*
X80610Y110049D01*
X80998Y112000D01*
Y128000D01*
X80610Y129951D01*
X79505Y131605D01*
X79341Y131714D01*
X79609Y133062D01*
X80171Y133174D01*
X81163Y133837D01*
X98267Y150941D01*
X100206D01*
X100736Y149950D01*
X100744Y149671D01*
X100412Y148000D01*
X100455Y147781D01*
X99137Y146463D01*
X98474Y145471D01*
X98241Y144300D01*
X98241Y144300D01*
Y131970D01*
X97695Y131605D01*
X96590Y129951D01*
X96202Y128000D01*
Y112000D01*
X96590Y110049D01*
X97695Y108395D01*
X99349Y107290D01*
X101300Y106902D01*
X103251Y107290D01*
X104905Y108395D01*
X106010Y110049D01*
X106398Y112000D01*
Y128000D01*
X106010Y129951D01*
X104905Y131605D01*
X104359Y131970D01*
Y142326D01*
X105000Y143412D01*
X106756Y143761D01*
X108244Y144756D01*
X109239Y146244D01*
X109468Y147397D01*
X110500Y147684D01*
X110821Y147690D01*
X124412Y134100D01*
Y103528D01*
X123142Y103143D01*
X122942Y103442D01*
X122280Y103884D01*
X121500Y104039D01*
X108500D01*
X107720Y103884D01*
X107058Y103442D01*
X106616Y102780D01*
X106461Y102000D01*
Y92949D01*
X92756Y79244D01*
X91761Y77756D01*
X91412Y76000D01*
Y14000D01*
X91761Y12244D01*
X92756Y10756D01*
X112750Y-9238D01*
X112264Y-10412D01*
X98461D01*
X88030Y19D01*
X88134Y545D01*
Y24675D01*
X87979Y25455D01*
X87537Y26117D01*
X86875Y26559D01*
X86095Y26714D01*
X51805D01*
X51025Y26559D01*
X50363Y26117D01*
X49921Y25455D01*
X49766Y24675D01*
Y545D01*
X49921Y-235D01*
X50363Y-897D01*
X51025Y-1339D01*
X51805Y-1494D01*
X76566D01*
X93316Y-18244D01*
X94804Y-19239D01*
X96560Y-19588D01*
X115461D01*
Y-22500D01*
X115616Y-23280D01*
X116058Y-23942D01*
X116720Y-24384D01*
X117500Y-24539D01*
X132500D01*
X133280Y-24384D01*
X133942Y-23942D01*
X134384Y-23280D01*
X134539Y-22500D01*
Y-7500D01*
X134384Y-6720D01*
X133942Y-6058D01*
X133280Y-5616D01*
X132500Y-5461D01*
X121950D01*
X100588Y15900D01*
Y74099D01*
X111734Y85246D01*
X111923Y85208D01*
X112341Y83830D01*
X103756Y75244D01*
X102761Y73756D01*
X102412Y72000D01*
Y28400D01*
X102761Y26644D01*
X103756Y25156D01*
X115829Y13083D01*
X115744Y12880D01*
X115418Y10400D01*
X115744Y7920D01*
X116702Y5609D01*
X118225Y3625D01*
X120209Y2102D01*
X122520Y1145D01*
X125000Y818D01*
X127480Y1145D01*
X129791Y2102D01*
X131776Y3625D01*
X133298Y5609D01*
X134256Y7920D01*
X134582Y10400D01*
X134256Y12880D01*
X133298Y15191D01*
X131776Y17176D01*
X129791Y18698D01*
X127480Y19655D01*
X125000Y19982D01*
X122520Y19655D01*
X122317Y19571D01*
X111588Y30301D01*
Y70100D01*
X119901Y78412D01*
X126000D01*
X127756Y78761D01*
X129244Y79756D01*
X132244Y82756D01*
X133239Y84244D01*
X133588Y86000D01*
Y136000D01*
X133239Y137756D01*
X132244Y139244D01*
X118588Y152900D01*
Y157867D01*
X118710Y158049D01*
X119098Y160000D01*
Y176000D01*
X118710Y177951D01*
X118588Y178133D01*
Y184163D01*
X122899Y188475D01*
X132450D01*
X133230Y188630D01*
X133892Y189072D01*
X134334Y189734D01*
X134489Y190514D01*
Y201514D01*
X134334Y202294D01*
X133892Y202956D01*
X133230Y203398D01*
X132450Y203553D01*
X120631D01*
X119952Y204823D01*
X120031Y204941D01*
X136000D01*
X136000Y204941D01*
X137170Y205174D01*
X138163Y205837D01*
X156267Y223941D01*
X196000D01*
X196000Y223941D01*
X197171Y224174D01*
X198163Y224837D01*
X204163Y230837D01*
X204163Y230837D01*
X204645Y231559D01*
X205814Y232306D01*
X206594Y232151D01*
X210136D01*
Y225977D01*
X209670Y225884D01*
X209008Y225442D01*
X208566Y224780D01*
X208411Y224000D01*
Y215000D01*
X208566Y214220D01*
X209008Y213558D01*
X209670Y213116D01*
X210450Y212961D01*
X216450D01*
X217230Y213116D01*
X217892Y213558D01*
X218334Y214220D01*
X218489Y215000D01*
Y224000D01*
X218334Y224780D01*
X217892Y225442D01*
X217230Y225884D01*
X216764Y225977D01*
Y234700D01*
X216511Y235968D01*
X215793Y237043D01*
X215745Y237091D01*
Y241810D01*
X215590Y242590D01*
X215148Y243252D01*
X214486Y243694D01*
X214726Y244941D01*
X218206D01*
X218736Y243950D01*
X218744Y243671D01*
X218412Y242000D01*
X218761Y240244D01*
X219756Y238756D01*
X221244Y237761D01*
X223000Y237412D01*
X224756Y237761D01*
X226136Y238683D01*
X226756Y237756D01*
X228244Y236761D01*
X230000Y236412D01*
X231756Y236761D01*
X233244Y237756D01*
X234429Y237243D01*
X234755Y236755D01*
X236244Y235761D01*
X237999Y235411D01*
X239755Y235761D01*
X241244Y236755D01*
X242238Y238244D01*
X242588Y240000D01*
X243815Y240340D01*
X244404Y240282D01*
X244756Y239756D01*
X246244Y238761D01*
X248000Y238412D01*
X249756Y238761D01*
X251244Y239756D01*
X251691Y240424D01*
X252961Y240039D01*
Y234000D01*
X253116Y233220D01*
X253558Y232558D01*
X254220Y232116D01*
X255000Y231961D01*
X263000D01*
X263780Y232116D01*
X264442Y232558D01*
X264884Y233220D01*
X265039Y234000D01*
Y242000D01*
X264884Y242780D01*
X264442Y243442D01*
X263780Y243884D01*
X263000Y244039D01*
X262059D01*
Y252000D01*
X261826Y253171D01*
X261163Y254163D01*
X261163Y254163D01*
X258545Y256781D01*
X258588Y257000D01*
X258239Y258756D01*
X257244Y260244D01*
X256251Y260908D01*
X255945Y262397D01*
X263489Y269941D01*
X267000D01*
X267000Y269941D01*
X268171Y270174D01*
X269163Y270837D01*
X269663Y271337D01*
X269663Y271337D01*
X270326Y272330D01*
X270559Y273500D01*
X270559Y273500D01*
Y276978D01*
X270561Y276982D01*
X270814Y278250D01*
Y291250D01*
X270561Y292518D01*
X269843Y293593D01*
X268768Y294311D01*
X267500Y294564D01*
X266232Y294311D01*
X265157Y293593D01*
X264843D01*
X263768Y294311D01*
X262500Y294564D01*
X261232Y294311D01*
X260157Y293593D01*
X259843D01*
X258768Y294311D01*
X257500Y294564D01*
X256232Y294311D01*
X255157Y293593D01*
X254843D01*
X253768Y294311D01*
X252500Y294564D01*
X251232Y294311D01*
X250157Y293593D01*
X249843D01*
X248768Y294311D01*
X247500Y294564D01*
X246232Y294311D01*
X245157Y293593D01*
X244843D01*
X243768Y294311D01*
X242500Y294564D01*
X241232Y294311D01*
X240157Y293593D01*
X239843D01*
X238768Y294311D01*
X237500Y294564D01*
X236232Y294311D01*
X235157Y293593D01*
X234843D01*
X233768Y294311D01*
X232500Y294564D01*
X231232Y294311D01*
X230157Y293593D01*
X229843D01*
X228768Y294311D01*
X227500Y294564D01*
X226232Y294311D01*
X225157Y293593D01*
X224843D01*
X223768Y294311D01*
X222500Y294564D01*
X221232Y294311D01*
X220157Y293593D01*
X219843D01*
X218768Y294311D01*
X217500Y294564D01*
X216232Y294311D01*
X215157Y293593D01*
X214843D01*
X213768Y294311D01*
X212500Y294564D01*
X211232Y294311D01*
X210157Y293593D01*
X209439Y292518D01*
X209186Y291250D01*
Y284750D01*
Y278250D01*
Y268700D01*
X209439Y267432D01*
X210157Y266357D01*
X213105Y263409D01*
Y260684D01*
X211985Y260085D01*
X211755Y260238D01*
X210000Y260588D01*
X208244Y260238D01*
X206755Y259244D01*
X205761Y257755D01*
X205411Y256000D01*
X205455Y255781D01*
X198733Y249059D01*
X197497D01*
X196455Y250329D01*
X196588Y251000D01*
X196239Y252756D01*
X195244Y254244D01*
X193756Y255239D01*
X192000Y255588D01*
X190244Y255239D01*
X190004Y255078D01*
X168814D01*
X168698Y255252D01*
X168036Y255694D01*
X167256Y255849D01*
X160144D01*
X159364Y255694D01*
X158702Y255252D01*
X158260Y254590D01*
X158105Y253810D01*
Y246190D01*
X158260Y245410D01*
X158702Y244748D01*
X159364Y244306D01*
X160144Y244151D01*
X167256D01*
X168036Y244306D01*
X168698Y244748D01*
X169140Y245410D01*
X169295Y246190D01*
Y246922D01*
X171193D01*
X171709Y245957D01*
X171740Y245652D01*
X171412Y244000D01*
X171744Y242329D01*
X171736Y242050D01*
X171206Y241059D01*
X132267D01*
X117059Y256267D01*
Y260520D01*
X118329Y260901D01*
X118558Y260558D01*
X119220Y260116D01*
X120000Y259961D01*
X140000D01*
X140780Y260116D01*
X141442Y260558D01*
X142083Y261150D01*
X142910Y260860D01*
X143690Y260705D01*
X144441D01*
Y255849D01*
X143944D01*
X143164Y255694D01*
X142502Y255252D01*
X142060Y254590D01*
X141905Y253810D01*
Y246190D01*
X142060Y245410D01*
X142502Y244748D01*
X143164Y244306D01*
X143944Y244151D01*
X151056D01*
X151836Y244306D01*
X152498Y244748D01*
X152940Y245410D01*
X153095Y246190D01*
Y253810D01*
X152940Y254590D01*
X152498Y255252D01*
X151836Y255694D01*
X151056Y255849D01*
X150559D01*
Y260705D01*
X151310D01*
X152090Y260860D01*
X152752Y261302D01*
X153194Y261964D01*
X153349Y262744D01*
Y269856D01*
X153194Y270636D01*
X152752Y271298D01*
X152090Y271740D01*
X151310Y271895D01*
X146231D01*
X145963Y272163D01*
X144971Y272826D01*
X143800Y273059D01*
X143800Y273059D01*
X142039D01*
Y276114D01*
X142274Y276369D01*
X143309Y276980D01*
X143690Y276905D01*
X151310D01*
X152090Y277060D01*
X152752Y277502D01*
X153194Y278164D01*
X153349Y278944D01*
Y279441D01*
X159151D01*
Y278944D01*
X159306Y278164D01*
X159748Y277502D01*
X160410Y277060D01*
X161190Y276905D01*
X168297D01*
X169412Y276000D01*
X169445Y275835D01*
X169761Y274244D01*
X170756Y272756D01*
X172244Y271761D01*
X174000Y271412D01*
X175756Y271761D01*
X177244Y272756D01*
X178239Y274244D01*
X178588Y276000D01*
X178239Y277756D01*
X178059Y278025D01*
Y291483D01*
X185762Y299186D01*
X191250D01*
X192518Y299439D01*
X193593Y300157D01*
X194311Y301232D01*
X194564Y302500D01*
X194430Y303171D01*
X195273Y304441D01*
X198941D01*
Y299267D01*
X183837Y284163D01*
X183174Y283171D01*
X182941Y282000D01*
X182941Y282000D01*
Y280368D01*
X182756Y280244D01*
X181761Y278756D01*
X181412Y277000D01*
X181761Y275244D01*
X182756Y273756D01*
X184244Y272761D01*
X186000Y272412D01*
X187756Y272761D01*
X189244Y273756D01*
X190239Y275244D01*
X190588Y277000D01*
X190239Y278756D01*
X189244Y280244D01*
X189752Y281427D01*
X198013Y289687D01*
X199186Y289201D01*
Y281512D01*
X186733Y269059D01*
X181368D01*
X181244Y269244D01*
X179756Y270239D01*
X178000Y270588D01*
X176244Y270239D01*
X174756Y269244D01*
X173761Y267756D01*
X173412Y266000D01*
X173761Y264244D01*
X174756Y262756D01*
X176244Y261761D01*
X178000Y261412D01*
X179756Y261761D01*
X181244Y262756D01*
X181368Y262941D01*
X188000D01*
X188000Y262941D01*
X189170Y263174D01*
X190163Y263837D01*
X201467Y275142D01*
X202500Y274936D01*
X203768Y275189D01*
X204843Y275907D01*
X205561Y276982D01*
X205814Y278250D01*
Y291250D01*
X205561Y292518D01*
X204843Y293593D01*
X204167Y294045D01*
X203823Y295497D01*
X204163Y295837D01*
X204826Y296829D01*
X205059Y298000D01*
X205059Y298000D01*
Y306000D01*
X205059Y306000D01*
X204826Y307171D01*
X204163Y308163D01*
X204163Y308163D01*
X202663Y309663D01*
X201670Y310326D01*
X200500Y310559D01*
X200500Y310559D01*
X198544D01*
X198058Y311732D01*
X199781Y313455D01*
X200000Y313412D01*
X201756Y313761D01*
X203244Y314756D01*
X204239Y316244D01*
X204588Y318000D01*
X204239Y319756D01*
X203244Y321244D01*
X201756Y322239D01*
X200000Y322588D01*
X198244Y322239D01*
X196756Y321244D01*
X195761Y319756D01*
X195585Y318873D01*
X194496Y318783D01*
X194279Y318816D01*
X193593Y319843D01*
X192518Y320561D01*
X191250Y320814D01*
X178250D01*
X176982Y320561D01*
X176637Y320867D01*
X176510Y322445D01*
X177757Y323691D01*
X184000D01*
X184000Y323691D01*
X185170Y323924D01*
X185563Y324186D01*
X191250D01*
X192518Y324439D01*
X193593Y325157D01*
X194311Y326232D01*
X194564Y327500D01*
X194311Y328768D01*
X193593Y329843D01*
Y330157D01*
X194311Y331232D01*
X194564Y332500D01*
X195607Y333522D01*
X196074Y333601D01*
X196837Y332837D01*
X196837Y332837D01*
X197829Y332174D01*
X199000Y331941D01*
X212733D01*
X238455Y306219D01*
X238412Y306000D01*
X238761Y304244D01*
X239756Y302756D01*
X241244Y301761D01*
X243000Y301412D01*
X244756Y301761D01*
X246244Y302756D01*
X247239Y304244D01*
X247588Y306000D01*
X247504Y306425D01*
X248514Y307856D01*
X248778Y307896D01*
X254455Y302219D01*
X254412Y302000D01*
X254761Y300244D01*
X255756Y298756D01*
X257244Y297761D01*
X259000Y297412D01*
X260756Y297761D01*
X262244Y298756D01*
X263239Y300244D01*
X263588Y302000D01*
X263239Y303756D01*
X262244Y305244D01*
X260756Y306239D01*
X259000Y306588D01*
X258781Y306545D01*
X223163Y342163D01*
X222171Y342826D01*
X221000Y343059D01*
X221000Y343059D01*
X207306D01*
X206627Y344329D01*
X207239Y345244D01*
X207588Y347000D01*
X207239Y348756D01*
X206244Y350244D01*
X204756Y351239D01*
X203000Y351588D01*
X201244Y351239D01*
X200226Y350559D01*
X195273D01*
X194430Y351829D01*
X194564Y352500D01*
X194311Y353768D01*
X193593Y354843D01*
Y355157D01*
X194311Y356232D01*
X194564Y357500D01*
X194311Y358768D01*
X194154Y359004D01*
X193669Y360000D01*
X194154Y360996D01*
X194311Y361232D01*
X194564Y362500D01*
X194311Y363768D01*
X194154Y364004D01*
X193669Y365000D01*
X194154Y365996D01*
X194311Y366232D01*
X194564Y367500D01*
X194311Y368768D01*
X193593Y369843D01*
Y370157D01*
X194311Y371232D01*
X194564Y372500D01*
X194311Y373768D01*
X194154Y374004D01*
X193669Y375000D01*
X194154Y375996D01*
X194311Y376232D01*
X194564Y377500D01*
X194311Y378768D01*
X193593Y379843D01*
X192518Y380561D01*
X191250Y380814D01*
X189064D01*
Y450453D01*
X188811Y451721D01*
X188314Y452466D01*
Y455402D01*
X189584Y455928D01*
X191468Y454043D01*
X191458Y453942D01*
X191016Y453280D01*
X190861Y452500D01*
Y437500D01*
X191016Y436720D01*
X191458Y436058D01*
X192120Y435616D01*
X192900Y435461D01*
X194186D01*
Y428349D01*
X193944D01*
X193164Y428194D01*
X192502Y427752D01*
X192060Y427090D01*
X191905Y426310D01*
Y418690D01*
X192060Y417910D01*
X192502Y417248D01*
X193164Y416806D01*
X193944Y416651D01*
X198663D01*
X199186Y416128D01*
Y401750D01*
Y395250D01*
Y388750D01*
X199439Y387482D01*
X200157Y386407D01*
X201232Y385689D01*
X202500Y385436D01*
X203768Y385689D01*
X204843Y386407D01*
X205561Y387482D01*
X205814Y388750D01*
Y401750D01*
Y417500D01*
X205561Y418768D01*
X204843Y419843D01*
X203095Y421591D01*
Y426310D01*
X202940Y427090D01*
X202498Y427752D01*
X201836Y428194D01*
X201056Y428349D01*
X200814D01*
Y435461D01*
X207900D01*
X208680Y435616D01*
X209342Y436058D01*
X209784Y436720D01*
X209939Y437500D01*
Y444412D01*
X236099D01*
X239151Y441361D01*
Y435144D01*
X239306Y434364D01*
X239748Y433702D01*
X240410Y433260D01*
X241190Y433105D01*
X248810D01*
X249590Y433260D01*
X250252Y433702D01*
X250526Y434112D01*
X268400D01*
X312272Y390239D01*
X312248Y389998D01*
X311806Y389336D01*
X311651Y388556D01*
Y383837D01*
X308627Y380814D01*
X288750D01*
X287482Y380561D01*
X286407Y379843D01*
X285689Y378768D01*
X285436Y377500D01*
X285689Y376232D01*
X286407Y375157D01*
X287482Y374439D01*
X288750Y374186D01*
X310000D01*
X311268Y374439D01*
X312343Y375157D01*
X316591Y379405D01*
X321310D01*
X322090Y379560D01*
X322752Y380002D01*
X323026Y380412D01*
X334412D01*
Y368900D01*
X323756Y358244D01*
X322761Y356756D01*
X322720Y356550D01*
X321505Y356181D01*
X307843Y369843D01*
X306768Y370561D01*
X305500Y370814D01*
X288750D01*
X287482Y370561D01*
X286407Y369843D01*
X285689Y368768D01*
X285436Y367500D01*
X285689Y366232D01*
X285846Y365996D01*
X286331Y365000D01*
X285846Y364004D01*
X285689Y363768D01*
X285436Y362500D01*
X285689Y361232D01*
X285846Y360996D01*
X286331Y360000D01*
X285846Y359004D01*
X285689Y358768D01*
X285436Y357500D01*
X285689Y356232D01*
X286407Y355157D01*
Y354843D01*
X285689Y353768D01*
X285436Y352500D01*
X285689Y351232D01*
X285846Y350996D01*
X286331Y350000D01*
X285846Y349004D01*
X285689Y348768D01*
X285436Y347500D01*
X285570Y346829D01*
X284727Y345559D01*
X275500D01*
X274329Y345326D01*
X273337Y344663D01*
X273337Y344663D01*
X266837Y338163D01*
X266174Y337170D01*
X265941Y336000D01*
X265941Y336000D01*
Y307000D01*
X265941Y307000D01*
X266174Y305830D01*
X266837Y304837D01*
X276177Y295497D01*
X275833Y294045D01*
X275157Y293593D01*
X274439Y292518D01*
X274186Y291250D01*
Y284750D01*
Y278250D01*
Y267500D01*
X274439Y266232D01*
X275157Y265157D01*
X276905Y263409D01*
Y260818D01*
X275972Y260320D01*
X275635Y260263D01*
X274000Y260588D01*
X272244Y260239D01*
X270756Y259244D01*
X269761Y257756D01*
X269412Y256000D01*
X269761Y254244D01*
X270756Y252756D01*
X272244Y251761D01*
X273441Y251523D01*
Y244039D01*
X272500D01*
X271720Y243884D01*
X271058Y243442D01*
X270616Y242780D01*
X270461Y242000D01*
Y234000D01*
X270616Y233220D01*
X271058Y232558D01*
X271720Y232116D01*
X272500Y231961D01*
X280500D01*
X281280Y232116D01*
X281942Y232558D01*
X282384Y233220D01*
X282539Y234000D01*
Y242000D01*
X282384Y242780D01*
X281942Y243442D01*
X281280Y243884D01*
X280500Y244039D01*
X279559D01*
Y249808D01*
X280829Y250645D01*
X282000Y250412D01*
X283756Y250761D01*
X285244Y251756D01*
X286239Y253244D01*
X286588Y255000D01*
X286368Y256105D01*
X286836Y256806D01*
X287498Y257248D01*
X287940Y257910D01*
X288095Y258690D01*
Y266310D01*
X287940Y267090D01*
X287498Y267752D01*
X286836Y268194D01*
X286056Y268349D01*
X281337D01*
X280814Y268873D01*
Y284750D01*
Y289201D01*
X281987Y289687D01*
X293240Y278434D01*
X292882Y276997D01*
X291756Y276244D01*
X290761Y274756D01*
X290412Y273000D01*
X290761Y271244D01*
X291756Y269756D01*
X291941Y269632D01*
Y244039D01*
X290000D01*
X289220Y243884D01*
X288558Y243442D01*
X288116Y242780D01*
X287961Y242000D01*
Y234000D01*
X288116Y233220D01*
X288558Y232558D01*
X289220Y232116D01*
X290000Y231961D01*
X298000D01*
X298941Y230853D01*
Y230147D01*
X298000Y229039D01*
X290000D01*
X289220Y228884D01*
X288558Y228442D01*
X288116Y227780D01*
X287961Y227000D01*
Y219000D01*
X288116Y218220D01*
X288558Y217558D01*
X289220Y217116D01*
X290000Y216961D01*
X290686D01*
Y211539D01*
X290000D01*
X289220Y211384D01*
X288558Y210942D01*
X288116Y210280D01*
X287961Y209500D01*
Y201500D01*
X288116Y200720D01*
X288558Y200058D01*
X289220Y199616D01*
X290000Y199461D01*
X298000D01*
X298941Y198353D01*
Y181267D01*
X297337Y179663D01*
X296674Y178671D01*
X296441Y177500D01*
X296441Y177500D01*
Y172821D01*
X296315Y172712D01*
X295171Y172259D01*
X294366Y172797D01*
X293000Y173069D01*
X291634Y172797D01*
X290477Y172023D01*
X289703Y170866D01*
X289431Y169500D01*
Y160500D01*
Y139759D01*
X288761Y138756D01*
X288412Y137000D01*
X288761Y135244D01*
X289756Y133756D01*
X291244Y132761D01*
X293000Y132412D01*
X294756Y132761D01*
X296244Y133756D01*
X297239Y135244D01*
X297588Y137000D01*
X297239Y138756D01*
X296569Y139759D01*
Y156722D01*
X297838Y157401D01*
X298134Y157203D01*
X299500Y156931D01*
X300866Y157203D01*
X302023Y157977D01*
X302115Y158114D01*
X303385D01*
X303477Y157977D01*
X304634Y157203D01*
X306000Y156931D01*
X307366Y157203D01*
X308523Y157977D01*
X308615Y158114D01*
X309885D01*
X309977Y157977D01*
X311134Y157203D01*
X312500Y156931D01*
X313866Y157203D01*
X314671Y157741D01*
X315815Y157288D01*
X315941Y157179D01*
Y156000D01*
X315941Y156000D01*
X316174Y154830D01*
X316837Y153837D01*
X326595Y144079D01*
X326761Y143244D01*
X327756Y141756D01*
X329244Y140761D01*
X331000Y140412D01*
X332756Y140761D01*
X334244Y141756D01*
X335239Y143244D01*
X335588Y145000D01*
X335239Y146756D01*
X334244Y148244D01*
X332756Y149239D01*
X331000Y149588D01*
X329947Y149379D01*
X322675Y156651D01*
X323485Y157637D01*
X324134Y157203D01*
X325500Y156931D01*
X326866Y157203D01*
X328023Y157977D01*
X328797Y159134D01*
X329069Y160500D01*
Y169500D01*
X328797Y170866D01*
X328023Y172023D01*
X326866Y172797D01*
X325500Y173069D01*
X324134Y172797D01*
X322977Y172023D01*
X322885Y171886D01*
X321615D01*
X321523Y172023D01*
X320366Y172797D01*
X319000Y173069D01*
X317634Y172797D01*
X316829Y172259D01*
X315685Y172712D01*
X315559Y172821D01*
Y176233D01*
X322163Y182837D01*
X322163Y182837D01*
X322826Y183829D01*
X323059Y185000D01*
X323059Y185000D01*
Y242206D01*
X324050Y242736D01*
X324329Y242744D01*
X326000Y242412D01*
X326219Y242455D01*
X335441Y233233D01*
Y171222D01*
X335203Y170866D01*
X334931Y169500D01*
Y160500D01*
X335203Y159134D01*
X335977Y157977D01*
X337134Y157203D01*
X338500Y156931D01*
X339204Y157072D01*
X339700Y155875D01*
X338756Y155244D01*
X337761Y153756D01*
X337412Y152000D01*
X337761Y150244D01*
X338756Y148756D01*
X340244Y147761D01*
X342000Y147412D01*
X343756Y147761D01*
X345244Y148756D01*
X346239Y150244D01*
X346588Y152000D01*
X346545Y152219D01*
X347163Y152837D01*
X347826Y153829D01*
X348059Y155000D01*
Y157179D01*
X348185Y157288D01*
X349329Y157741D01*
X350134Y157203D01*
X351500Y156931D01*
X352866Y157203D01*
X353162Y157401D01*
X354431Y156722D01*
Y138759D01*
X353761Y137756D01*
X353412Y136000D01*
X353761Y134244D01*
X354756Y132756D01*
X356244Y131761D01*
X358000Y131412D01*
X359756Y131761D01*
X361000Y132592D01*
X362244Y131761D01*
X364000Y131412D01*
X365756Y131761D01*
X367244Y132756D01*
X368239Y134244D01*
X368588Y136000D01*
X368239Y137756D01*
X368069Y138011D01*
Y165000D01*
Y169500D01*
X367797Y170866D01*
X367023Y172023D01*
X365866Y172797D01*
X364500Y173069D01*
X363134Y172797D01*
X361977Y172023D01*
X361885Y171886D01*
X360615D01*
X360523Y172023D01*
X359366Y172797D01*
X358000Y173069D01*
X356634Y172797D01*
X355829Y172259D01*
X354685Y172712D01*
X354559Y172821D01*
Y231500D01*
X354326Y232670D01*
X353663Y233663D01*
X353663Y233663D01*
X327059Y260267D01*
Y277659D01*
X328329Y277784D01*
X328439Y277232D01*
X329157Y276157D01*
X382686Y222627D01*
Y182000D01*
X382939Y180732D01*
X383657Y179657D01*
X390591Y172723D01*
X389770Y170741D01*
X389409Y168000D01*
X389770Y165259D01*
X390828Y162705D01*
X392511Y160511D01*
X392837Y160261D01*
X392429Y159059D01*
X390000D01*
X388829Y158826D01*
X387837Y158163D01*
X387837Y158163D01*
X379219Y149545D01*
X379000Y149588D01*
X377244Y149239D01*
X375756Y148244D01*
X374761Y146756D01*
X374412Y145000D01*
X374761Y143244D01*
X375756Y141756D01*
X377244Y140761D01*
X379000Y140412D01*
X380756Y140761D01*
X382244Y141756D01*
X383239Y143244D01*
X383588Y145000D01*
X383545Y145219D01*
X391267Y152941D01*
X393621D01*
X394052Y151671D01*
X392511Y150489D01*
X390828Y148295D01*
X389770Y145741D01*
X389409Y143000D01*
X389770Y140259D01*
X390828Y137705D01*
X392511Y135511D01*
X394705Y133828D01*
X397259Y132770D01*
X400000Y132409D01*
X402741Y132770D01*
X405295Y133828D01*
X407489Y135511D01*
X409172Y137705D01*
X410230Y140259D01*
X410591Y143000D01*
X410230Y145741D01*
X409303Y147978D01*
X422163Y160837D01*
X422163Y160837D01*
X422826Y161829D01*
X423059Y163000D01*
X423059Y163000D01*
Y241000D01*
X422826Y242171D01*
X422163Y243163D01*
X360059Y305267D01*
Y336632D01*
X360244Y336756D01*
X361239Y338244D01*
X361588Y340000D01*
X361239Y341756D01*
X360244Y343244D01*
X358756Y344239D01*
X357000Y344588D01*
X355244Y344239D01*
X353756Y343244D01*
X353635Y343064D01*
X352365D01*
X352244Y343244D01*
X350756Y344239D01*
X349000Y344588D01*
X347244Y344239D01*
X345756Y343244D01*
X344761Y341756D01*
X344412Y340000D01*
X344761Y338244D01*
X345686Y336860D01*
Y333795D01*
X345190D01*
X344410Y333640D01*
X343748Y333198D01*
X343306Y332536D01*
X343151Y331756D01*
Y324644D01*
X343306Y323864D01*
X343748Y323202D01*
X344410Y322760D01*
X345190Y322605D01*
X352810D01*
X353941Y321583D01*
Y318617D01*
X352810Y317595D01*
X345190D01*
X344410Y317440D01*
X343748Y316998D01*
X343306Y316336D01*
X343151Y315556D01*
Y308444D01*
X343306Y307664D01*
X343748Y307002D01*
X344410Y306560D01*
X345190Y306405D01*
X345686D01*
Y270796D01*
X344416Y270270D01*
X334814Y279872D01*
Y306405D01*
X335310D01*
X336090Y306560D01*
X336752Y307002D01*
X337194Y307664D01*
X337349Y308444D01*
Y315556D01*
X337194Y316336D01*
X336752Y316998D01*
X336090Y317440D01*
X335310Y317595D01*
X327690D01*
X326910Y317440D01*
X326248Y316998D01*
X325806Y316336D01*
X325651Y315556D01*
Y308444D01*
X325806Y307664D01*
X326248Y307002D01*
X326910Y306560D01*
X327690Y306405D01*
X328186D01*
Y301841D01*
X326916Y301716D01*
X326826Y302171D01*
X326163Y303163D01*
X311059Y318267D01*
Y345000D01*
X310826Y346171D01*
X310163Y347163D01*
X310163Y347163D01*
X307663Y349663D01*
X306670Y350326D01*
X305843Y350490D01*
X305382Y350822D01*
X304930Y351829D01*
X305064Y352500D01*
X304811Y353768D01*
X304093Y354843D01*
Y355157D01*
X304811Y356232D01*
X305064Y357500D01*
X304811Y358768D01*
X304654Y359004D01*
X304169Y360000D01*
X304654Y360996D01*
X304811Y361232D01*
X304890Y361628D01*
X306268Y362046D01*
X328186Y340127D01*
Y333795D01*
X327690D01*
X326910Y333640D01*
X326248Y333198D01*
X325806Y332536D01*
X325651Y331756D01*
Y324644D01*
X325806Y323864D01*
X326248Y323202D01*
X326910Y322760D01*
X327690Y322605D01*
X335310D01*
X336090Y322760D01*
X336752Y323202D01*
X337194Y323864D01*
X337349Y324644D01*
Y331756D01*
X337194Y332536D01*
X336752Y333198D01*
X336090Y333640D01*
X335310Y333795D01*
X334814D01*
Y341500D01*
X334561Y342768D01*
X333843Y343843D01*
X328181Y349505D01*
X328550Y350720D01*
X328756Y350761D01*
X330244Y351756D01*
X342244Y363756D01*
X343239Y365244D01*
X343588Y367000D01*
Y380412D01*
X359300D01*
X365605Y374106D01*
Y371190D01*
X365760Y370410D01*
X366202Y369748D01*
X366864Y369306D01*
X367644Y369151D01*
X374756D01*
X375536Y369306D01*
X376198Y369748D01*
X376640Y370410D01*
X376795Y371190D01*
Y378810D01*
X376640Y379590D01*
X376198Y380252D01*
X375536Y380694D01*
X374756Y380849D01*
X374588D01*
Y389795D01*
X374830Y389985D01*
X375858Y390358D01*
X376220Y390116D01*
X377000Y389961D01*
X401000D01*
X401780Y390116D01*
X402442Y390558D01*
X402884Y391220D01*
X403039Y392000D01*
Y402000D01*
X402884Y402780D01*
X402442Y403442D01*
X401780Y403884D01*
X401000Y404039D01*
X377000D01*
X376220Y403884D01*
X375858Y403642D01*
X374830Y404015D01*
X374588Y404205D01*
Y412795D01*
X374830Y412985D01*
X375858Y413358D01*
X376220Y413116D01*
X377000Y412961D01*
X401000D01*
X401780Y413116D01*
X402442Y413558D01*
X402884Y414220D01*
X403039Y415000D01*
Y425000D01*
X402884Y425780D01*
X402442Y426442D01*
X401780Y426884D01*
X401000Y427039D01*
X377000D01*
X376220Y426884D01*
X375558Y426442D01*
X375116Y425780D01*
X374961Y425000D01*
Y424588D01*
X373000D01*
X371244Y424239D01*
X369756Y423244D01*
X366756Y420244D01*
X365761Y418756D01*
X365412Y417000D01*
Y388908D01*
X364142Y388446D01*
X362956Y389239D01*
X361200Y389588D01*
X323026D01*
X322752Y389998D01*
X322090Y390440D01*
X322088Y390440D01*
Y391500D01*
X321739Y393256D01*
X320744Y394744D01*
X273544Y441944D01*
X272056Y442939D01*
X270300Y443288D01*
X250526D01*
X250252Y443698D01*
X249590Y444140D01*
X248889Y444279D01*
X248244Y445244D01*
X241244Y452244D01*
X239756Y453239D01*
X238000Y453588D01*
X209578D01*
X209342Y453942D01*
X208680Y454384D01*
X207900Y454539D01*
X203848D01*
X203644Y454844D01*
X194244Y464244D01*
X192756Y465239D01*
X191000Y465588D01*
X23000D01*
X21244Y465239D01*
X19756Y464244D01*
X16099Y460588D01*
X-7000D01*
X-8756Y460239D01*
X-10244Y459244D01*
X-29244Y440244D01*
X-30239Y438756D01*
X-30588Y437000D01*
Y355000D01*
X-30239Y353244D01*
X-29244Y351756D01*
X-23244Y345756D01*
X-21756Y344761D01*
X-20000Y344412D01*
X-19539D01*
Y342100D01*
X-19384Y341320D01*
X-18942Y340658D01*
X-18280Y340216D01*
X-17500Y340061D01*
X-2500D01*
X-1720Y340216D01*
X-1058Y340658D01*
X-616Y341320D01*
X-461Y342100D01*
Y345012D01*
X25461D01*
Y341700D01*
X25616Y340920D01*
X26058Y340258D01*
X26720Y339816D01*
X27500Y339661D01*
X42500D01*
X43280Y339816D01*
X43942Y340258D01*
X44384Y340920D01*
X44539Y341700D01*
Y356700D01*
X44384Y357480D01*
X43942Y358142D01*
X43280Y358584D01*
X42500Y358739D01*
X27500D01*
X26720Y358584D01*
X26058Y358142D01*
X25616Y357480D01*
X25461Y356700D01*
Y354188D01*
X14944D01*
X14282Y355458D01*
X14588Y357000D01*
X14239Y358756D01*
X13244Y360244D01*
X13059Y360368D01*
Y380400D01*
X12826Y381571D01*
X12163Y382563D01*
X-1462Y396188D01*
X-745Y397920D01*
X-418Y400400D01*
X-745Y402880D01*
X-1702Y405191D01*
X-3225Y407175D01*
X-5209Y408698D01*
X-7520Y409655D01*
X-10000Y409982D01*
X-12480Y409655D01*
X-14791Y408698D01*
X-16775Y407175D01*
X-18298Y405191D01*
X-19255Y402880D01*
X-19582Y400400D01*
X-19255Y397920D01*
X-18298Y395609D01*
X-16775Y393624D01*
X-14791Y392102D01*
X-12480Y391144D01*
X-10000Y390818D01*
X-7520Y391144D01*
X-5788Y391862D01*
X6941Y379133D01*
Y360368D01*
X6756Y360244D01*
X5761Y358756D01*
X5412Y357000D01*
X5719Y355458D01*
X5056Y354188D01*
X-461D01*
Y357100D01*
X-616Y357880D01*
X-1058Y358542D01*
X-1720Y358984D01*
X-2500Y359139D01*
X-17500D01*
X-18280Y358984D01*
X-18942Y358542D01*
X-19384Y357880D01*
X-19517Y357213D01*
X-19893Y356984D01*
X-20808Y356685D01*
X-21412Y357161D01*
Y435099D01*
X-5099Y451412D01*
X18000D01*
X19756Y451761D01*
X21244Y452756D01*
X24901Y456412D01*
X181686D01*
Y451203D01*
X181939Y449935D01*
X182436Y449190D01*
Y380814D01*
X178250D01*
X176982Y380561D01*
X175907Y379843D01*
X175189Y378768D01*
X174936Y377500D01*
X175189Y376232D01*
X175346Y375996D01*
X175831Y375000D01*
X175346Y374004D01*
X175189Y373768D01*
X174936Y372500D01*
X175189Y371232D01*
X175907Y370157D01*
Y369843D01*
X175189Y368768D01*
X174936Y367500D01*
X175189Y366232D01*
X175346Y365996D01*
X175831Y365000D01*
X175346Y364004D01*
X175189Y363768D01*
X174936Y362500D01*
X175070Y361829D01*
X174227Y360559D01*
X169967D01*
X168349Y362177D01*
Y367256D01*
X168194Y368036D01*
X167752Y368698D01*
X167090Y369140D01*
X166310Y369295D01*
X158690D01*
X157910Y369140D01*
X157248Y368698D01*
X156806Y368036D01*
X156651Y367256D01*
Y366759D01*
X153209D01*
X153194Y366836D01*
X152752Y367498D01*
X152090Y367940D01*
X151310Y368095D01*
X143690D01*
X142910Y367940D01*
X142248Y367498D01*
X141806Y366836D01*
X141791Y366759D01*
X127567D01*
X124303Y370023D01*
X125230Y372259D01*
X125591Y375000D01*
X125230Y377741D01*
X124172Y380295D01*
X122489Y382489D01*
X120295Y384172D01*
X117741Y385230D01*
X115000Y385591D01*
X112259Y385230D01*
X109705Y384172D01*
X107511Y382489D01*
X105828Y380295D01*
X104770Y377741D01*
X104409Y375000D01*
X104770Y372259D01*
X105828Y369705D01*
X107511Y367511D01*
X109705Y365828D01*
X112259Y364770D01*
X115000Y364409D01*
X117741Y364770D01*
X119978Y365697D01*
X124137Y361537D01*
X124137Y361537D01*
X125129Y360874D01*
X126300Y360641D01*
X126300Y360641D01*
X141651D01*
Y358944D01*
X141806Y358164D01*
X142248Y357502D01*
X142910Y357060D01*
X143690Y356905D01*
X151310D01*
X152090Y357060D01*
X152752Y357502D01*
X153194Y358164D01*
X153349Y358944D01*
Y360641D01*
X156651D01*
Y360144D01*
X156806Y359364D01*
X157248Y358702D01*
X157910Y358260D01*
X158690Y358105D01*
X163769D01*
X165545Y356329D01*
X165637Y356029D01*
X165384Y354694D01*
X165337Y354663D01*
X165337Y354663D01*
X163769Y353095D01*
X158690D01*
X157910Y352940D01*
X157248Y352498D01*
X156806Y351836D01*
X156651Y351056D01*
Y349259D01*
X153349D01*
Y349756D01*
X153194Y350536D01*
X152752Y351198D01*
X152090Y351640D01*
X151310Y351795D01*
X143690D01*
X142910Y351640D01*
X142248Y351198D01*
X141806Y350536D01*
X141651Y349756D01*
Y349259D01*
X134200D01*
X133029Y349026D01*
X132037Y348363D01*
X119978Y336303D01*
X117741Y337230D01*
X115000Y337591D01*
X112259Y337230D01*
X109705Y336172D01*
X107511Y334489D01*
X105828Y332295D01*
X104770Y329741D01*
X104409Y327000D01*
X104770Y324259D01*
X105828Y321705D01*
X107511Y319511D01*
X109705Y317828D01*
X112259Y316770D01*
X115000Y316409D01*
X117741Y316770D01*
X120295Y317828D01*
X122489Y319511D01*
X124172Y321705D01*
X125230Y324259D01*
X125591Y327000D01*
X125230Y329741D01*
X124303Y331978D01*
X135467Y343141D01*
X141651D01*
Y342644D01*
X141806Y341864D01*
X142248Y341202D01*
X142910Y340760D01*
X143690Y340605D01*
X151310D01*
X152090Y340760D01*
X152752Y341202D01*
X153194Y341864D01*
X153349Y342644D01*
Y343141D01*
X156821D01*
X157248Y342502D01*
X157910Y342060D01*
X158690Y341905D01*
X162428D01*
X162913Y340732D01*
X157657Y335475D01*
X156939Y334400D01*
X156931Y334361D01*
X156756Y334244D01*
X155761Y332756D01*
X155412Y331000D01*
X155761Y329244D01*
X156756Y327756D01*
X157395Y327329D01*
X157009Y326059D01*
X142000D01*
X142000Y326059D01*
X140829Y325826D01*
X139837Y325163D01*
X139837Y325163D01*
X136837Y322163D01*
X136174Y321171D01*
X135941Y320000D01*
X135941Y320000D01*
Y318435D01*
X135640Y318219D01*
X134240Y318755D01*
X134229Y318770D01*
X133244Y320244D01*
X131756Y321239D01*
X130000Y321588D01*
X128244Y321239D01*
X126756Y320244D01*
X125761Y318756D01*
X125412Y317000D01*
X125455Y316781D01*
X81787Y273113D01*
X81124Y272120D01*
X80891Y270950D01*
X80891Y270950D01*
Y241849D01*
X80394D01*
X79614Y241694D01*
X78952Y241252D01*
X78510Y240590D01*
X78355Y239810D01*
Y232190D01*
X78510Y231410D01*
X78952Y230748D01*
X79614Y230306D01*
X80394Y230151D01*
X87506D01*
X88286Y230306D01*
X88948Y230748D01*
X89390Y231410D01*
X89545Y232190D01*
Y239810D01*
X89390Y240590D01*
X88948Y241252D01*
X88286Y241694D01*
X87506Y241849D01*
X87009D01*
Y269683D01*
X88566Y271240D01*
X90003Y270882D01*
X90756Y269756D01*
X92244Y268761D01*
X94000Y268412D01*
X94219Y268455D01*
X103455Y259219D01*
X103412Y259000D01*
X103761Y257244D01*
X104756Y255756D01*
X106244Y254761D01*
X108000Y254412D01*
X109756Y254761D01*
X111112Y254140D01*
X111174Y253829D01*
X111837Y252837D01*
X128837Y235837D01*
X129829Y235174D01*
X131000Y234941D01*
X131000Y234941D01*
X188355D01*
Y234190D01*
X188510Y233410D01*
X188952Y232748D01*
X189614Y232306D01*
X190394Y232151D01*
X195166D01*
X195652Y230977D01*
X194733Y230059D01*
X155000D01*
X155000Y230059D01*
X153829Y229826D01*
X152837Y229163D01*
X134733Y211059D01*
X117694D01*
X117693Y211059D01*
X116523Y210826D01*
X115531Y210163D01*
X115530Y210163D01*
X114301Y208934D01*
X113059Y209487D01*
Y233632D01*
X113244Y233756D01*
X114239Y235244D01*
X114588Y237000D01*
X114239Y238756D01*
X113244Y240244D01*
X111756Y241239D01*
X110000Y241588D01*
X108244Y241239D01*
X106930Y240361D01*
X105981Y240523D01*
X105525Y240688D01*
X105148Y241252D01*
X104486Y241694D01*
X103706Y241849D01*
X96594D01*
X95814Y241694D01*
X95152Y241252D01*
X94710Y240590D01*
X94555Y239810D01*
Y232190D01*
X94710Y231410D01*
X95152Y230748D01*
X95814Y230306D01*
X96594Y230151D01*
X100136D01*
Y223977D01*
X99670Y223884D01*
X99008Y223442D01*
X98566Y222780D01*
X98411Y222000D01*
Y213000D01*
X98566Y212220D01*
X99008Y211558D01*
X99670Y211116D01*
X100450Y210961D01*
X105839D01*
X106365Y209691D01*
X100837Y204163D01*
X100174Y203171D01*
X99941Y202000D01*
X99941Y202000D01*
Y201413D01*
X99852Y201309D01*
X99756Y201244D01*
X99607Y201022D01*
X99112Y200442D01*
X98392D01*
X97730Y200884D01*
X97314Y200967D01*
Y204000D01*
X97061Y205268D01*
X96343Y206343D01*
X90593Y212093D01*
X89518Y212811D01*
X88250Y213064D01*
X74799D01*
Y215756D01*
X74644Y216536D01*
X74202Y217198D01*
X73540Y217640D01*
X72760Y217795D01*
X65140D01*
X64360Y217640D01*
X63698Y217198D01*
X63256Y216536D01*
X63101Y215756D01*
Y208644D01*
X63113Y208584D01*
X62212Y207314D01*
X60688D01*
X59787Y208584D01*
X59799Y208644D01*
Y215756D01*
X59644Y216536D01*
X59202Y217198D01*
X58540Y217640D01*
X57760Y217795D01*
X50140D01*
X49360Y217640D01*
X48698Y217198D01*
X48256Y216536D01*
X48101Y215756D01*
Y208644D01*
X48256Y207864D01*
X48698Y207202D01*
X49360Y206760D01*
X50140Y206605D01*
X50636D01*
Y206050D01*
X50889Y204782D01*
X51607Y203707D01*
X53657Y201657D01*
X54732Y200939D01*
X56000Y200686D01*
X62079D01*
X62575Y200138D01*
X63007Y198992D01*
X61885Y197530D01*
X61180Y195827D01*
X60940Y194000D01*
X61180Y192173D01*
X61885Y190470D01*
X63007Y189007D01*
X64470Y187885D01*
X66173Y187180D01*
X68000Y186940D01*
X69827Y187180D01*
X70102Y187294D01*
X71312Y186420D01*
Y178133D01*
X71190Y177951D01*
X70802Y176000D01*
Y169391D01*
X70800Y169388D01*
X59476D01*
X59202Y169798D01*
X58540Y170240D01*
X57760Y170395D01*
X50140D01*
X49360Y170240D01*
X48698Y169798D01*
X48256Y169136D01*
X48101Y168356D01*
Y161244D01*
X48256Y160464D01*
X48698Y159802D01*
X49360Y159360D01*
X50140Y159205D01*
X57760D01*
X58540Y159360D01*
X59202Y159802D01*
X59476Y160212D01*
X70802D01*
Y160000D01*
X71190Y158049D01*
X72295Y156395D01*
X73949Y155290D01*
X75900Y154902D01*
X77851Y155290D01*
X79505Y156395D01*
X80610Y158049D01*
X80998Y160000D01*
Y176000D01*
X80610Y177951D01*
X80488Y178133D01*
Y185030D01*
X81758Y185556D01*
X85286Y182027D01*
Y179799D01*
X84995Y179605D01*
X83890Y177951D01*
X83502Y176000D01*
Y160000D01*
X83890Y158049D01*
X84995Y156395D01*
X86649Y155290D01*
X88600Y154902D01*
X90551Y155290D01*
X92205Y156395D01*
X93310Y158049D01*
X93698Y160000D01*
Y176000D01*
X93310Y177951D01*
X92205Y179605D01*
X91914Y179799D01*
Y183400D01*
X91661Y184668D01*
X90943Y185743D01*
X89666Y187020D01*
X89813Y187339D01*
X90415Y188067D01*
X90950Y187961D01*
X95442D01*
X97731Y185672D01*
Y179629D01*
X97695Y179605D01*
X96590Y177951D01*
X96202Y176000D01*
Y160000D01*
X96566Y158169D01*
X96590Y158049D01*
X95874Y156835D01*
X95829Y156826D01*
X94837Y156163D01*
X77733Y139059D01*
X36000D01*
X36000Y139059D01*
X34829Y138826D01*
X33837Y138163D01*
X33837Y138163D01*
X19212Y123538D01*
X17480Y124255D01*
X15000Y124582D01*
X12520Y124255D01*
X10209Y123298D01*
X8224Y121775D01*
X6702Y119791D01*
X6368Y118985D01*
X5098Y119238D01*
Y144888D01*
X8112Y147902D01*
X13000D01*
X14951Y148290D01*
X16605Y149395D01*
X27605Y160395D01*
X28710Y162049D01*
X29098Y164000D01*
Y299888D01*
X73605Y344395D01*
X74710Y346049D01*
X75098Y348000D01*
Y438000D01*
X74710Y439951D01*
X73605Y441605D01*
X67038Y448172D01*
X66820Y449827D01*
X66115Y451530D01*
X64992Y452992D01*
X63530Y454114D01*
X61827Y454820D01*
X60000Y455060D01*
X58173Y454820D01*
X56470Y454114D01*
X55008Y452992D01*
X53885Y451530D01*
X53180Y449827D01*
X52940Y448000D01*
X53180Y446173D01*
X53885Y444470D01*
X55008Y443008D01*
X56470Y441885D01*
X58173Y441180D01*
X59828Y440962D01*
X64902Y435888D01*
Y350112D01*
X20395Y305605D01*
X19290Y303951D01*
X18902Y302000D01*
Y166112D01*
X15899Y163109D01*
X14823Y163828D01*
X14904Y164025D01*
X15000Y165000D01*
Y325000D01*
X14904Y325975D01*
X14157Y327778D01*
X12778Y329157D01*
X10975Y329904D01*
X10000Y330000D01*
X-30796D01*
X-32266Y330609D01*
X-33391Y331734D01*
X-34000Y333204D01*
Y334000D01*
Y490224D01*
X-32730Y490274D01*
X-32694Y489822D01*
X-31482Y484771D01*
X-29494Y479972D01*
X-26780Y475543D01*
X-23407Y471593D01*
X-19457Y468220D01*
X-15028Y465506D01*
X-10229Y463518D01*
X-5178Y462305D01*
X0Y461898D01*
X5178Y462305D01*
X10229Y463518D01*
X15028Y465506D01*
X19457Y468220D01*
X23407Y471593D01*
X26780Y475543D01*
X29494Y479972D01*
X31482Y484771D01*
X32694Y489822D01*
X33102Y495000D01*
X32694Y500178D01*
X31482Y505229D01*
X29494Y510028D01*
X26780Y514457D01*
X23407Y518407D01*
X19457Y521780D01*
X15028Y524494D01*
X10229Y526482D01*
X9196Y526730D01*
X9346Y528000D01*
X570654D01*
X570804Y526730D01*
D02*
G37*
G36*
X122696Y293574D02*
X122761Y293244D01*
X123756Y291756D01*
X125244Y290761D01*
X127000Y290412D01*
X127219Y290455D01*
X134595Y283079D01*
X134761Y282244D01*
X135386Y281309D01*
X134716Y280039D01*
X120000D01*
X119220Y279884D01*
X118558Y279442D01*
X118329Y279099D01*
X117059Y279480D01*
Y289733D01*
X121318Y293992D01*
X122696Y293574D01*
D02*
G37*
G36*
X307941Y295733D02*
Y281044D01*
X306768Y280558D01*
X289409Y297916D01*
X289935Y299186D01*
X301750D01*
X303018Y299439D01*
X303022Y299441D01*
X304233D01*
X307941Y295733D01*
D02*
G37*
G36*
X574000Y230000D02*
Y180000D01*
X557000Y163000D01*
X556000D01*
Y73000D01*
X544000Y61000D01*
Y-4000D01*
X531000Y-17000D01*
X503000D01*
X490000Y-4000D01*
X490000Y97000D01*
X523000Y130000D01*
Y164000D01*
X525000Y166000D01*
X535000D01*
X551000Y182000D01*
Y203000D01*
X545000Y209000D01*
Y231000D01*
X548000Y234000D01*
X570000D01*
X574000Y230000D01*
D02*
G37*
G36*
X348441Y230233D02*
Y172821D01*
X348315Y172712D01*
X347171Y172259D01*
X346366Y172797D01*
X345000Y173069D01*
X343634Y172797D01*
X342829Y172259D01*
X341685Y172712D01*
X341559Y172821D01*
Y234500D01*
X341559Y234500D01*
X342602Y235764D01*
X342871Y235804D01*
X348441Y230233D01*
D02*
G37*
%LPC*%
G36*
X88600Y133098D02*
X86649Y132710D01*
X84995Y131605D01*
X83890Y129951D01*
X83502Y128000D01*
Y112000D01*
X83890Y110049D01*
X84012Y109867D01*
Y101550D01*
X84361Y99794D01*
X85356Y98306D01*
X85555Y98106D01*
Y95190D01*
X85710Y94410D01*
X86152Y93748D01*
X86814Y93306D01*
X87594Y93151D01*
X94706D01*
X95486Y93306D01*
X96148Y93748D01*
X96590Y94410D01*
X96745Y95190D01*
Y102810D01*
X96590Y103590D01*
X96148Y104252D01*
X95486Y104694D01*
X94706Y104849D01*
X93188D01*
Y109867D01*
X93310Y110049D01*
X93698Y112000D01*
Y128000D01*
X93310Y129951D01*
X92205Y131605D01*
X90551Y132710D01*
X88600Y133098D01*
D02*
G37*
G36*
X198600Y135098D02*
X196649Y134710D01*
X194995Y133605D01*
X193890Y131951D01*
X193502Y130000D01*
Y114000D01*
X193890Y112049D01*
X194012Y111867D01*
Y103550D01*
X194361Y101794D01*
X195356Y100306D01*
X195555Y100107D01*
Y97190D01*
X195710Y96410D01*
X196152Y95748D01*
X196814Y95306D01*
X197594Y95151D01*
X204706D01*
X205486Y95306D01*
X206148Y95748D01*
X206590Y96410D01*
X206745Y97190D01*
Y104810D01*
X206590Y105590D01*
X206148Y106252D01*
X205486Y106694D01*
X204706Y106849D01*
X203188D01*
Y111867D01*
X203310Y112049D01*
X203698Y114000D01*
Y130000D01*
X203310Y131951D01*
X202205Y133605D01*
X200551Y134710D01*
X198600Y135098D01*
D02*
G37*
G36*
X457250Y292789D02*
X442750D01*
X441970Y292634D01*
X441308Y292192D01*
X440866Y291530D01*
X440711Y290750D01*
Y286314D01*
X435849D01*
Y287356D01*
X435694Y288136D01*
X435252Y288798D01*
X434590Y289240D01*
X433810Y289395D01*
X426190D01*
X425410Y289240D01*
X424748Y288798D01*
X424306Y288136D01*
X424151Y287356D01*
Y286314D01*
X420849D01*
Y287356D01*
X420694Y288136D01*
X420252Y288798D01*
X419590Y289240D01*
X418810Y289395D01*
X411190D01*
X410410Y289240D01*
X409748Y288798D01*
X409306Y288136D01*
X409151Y287356D01*
Y286314D01*
X403849D01*
Y287556D01*
X403694Y288336D01*
X403252Y288998D01*
X402590Y289440D01*
X401810Y289595D01*
X394190D01*
X393410Y289440D01*
X392748Y288998D01*
X392306Y288336D01*
X392151Y287556D01*
Y280444D01*
X392306Y279664D01*
X392748Y279002D01*
X393410Y278560D01*
X394190Y278405D01*
X401810D01*
X402590Y278560D01*
X403252Y279002D01*
X403694Y279664D01*
X403699Y279686D01*
X409262D01*
X409306Y279464D01*
X409748Y278802D01*
X410410Y278360D01*
X411190Y278205D01*
X418810D01*
X419590Y278360D01*
X420252Y278802D01*
X420694Y279464D01*
X420738Y279686D01*
X424262D01*
X424306Y279464D01*
X424748Y278802D01*
X425410Y278360D01*
X426190Y278205D01*
X433810D01*
X434590Y278360D01*
X435252Y278802D01*
X435694Y279464D01*
X435738Y279686D01*
X440723D01*
X440866Y278970D01*
X441308Y278308D01*
X441970Y277866D01*
X442750Y277711D01*
X457250D01*
X458030Y277866D01*
X458692Y278308D01*
X459134Y278970D01*
X459289Y279750D01*
Y284250D01*
X459134Y285030D01*
X458987Y285250D01*
X459134Y285470D01*
X459289Y286250D01*
Y290750D01*
X459134Y291530D01*
X458692Y292192D01*
X458030Y292634D01*
X457250Y292789D01*
D02*
G37*
G36*
X59000Y394588D02*
X57244Y394239D01*
X55756Y393244D01*
X54761Y391756D01*
X54412Y390000D01*
X54754Y388280D01*
X45022Y378548D01*
X43524Y378846D01*
X43298Y379391D01*
X41775Y381375D01*
X39791Y382898D01*
X37480Y383855D01*
X35000Y384182D01*
X32520Y383855D01*
X30209Y382898D01*
X28225Y381375D01*
X26702Y379391D01*
X25745Y377080D01*
X25418Y374600D01*
X25745Y372120D01*
X26702Y369809D01*
X28225Y367825D01*
X30209Y366302D01*
X32520Y365345D01*
X35000Y365018D01*
X37480Y365345D01*
X39791Y366302D01*
X41775Y367825D01*
X43298Y369809D01*
X44016Y371541D01*
X45400D01*
X45400Y371541D01*
X46571Y371774D01*
X47563Y372437D01*
X61151Y386025D01*
X62244Y386756D01*
X63239Y388244D01*
X63588Y390000D01*
X63239Y391756D01*
X62244Y393244D01*
X60756Y394239D01*
X59000Y394588D01*
D02*
G37*
G36*
X-10000Y384582D02*
X-12480Y384255D01*
X-14791Y383298D01*
X-16775Y381775D01*
X-18298Y379791D01*
X-19255Y377480D01*
X-19582Y375000D01*
X-19255Y372520D01*
X-18298Y370209D01*
X-16775Y368224D01*
X-14791Y366702D01*
X-12480Y365745D01*
X-10000Y365418D01*
X-7520Y365745D01*
X-5209Y366702D01*
X-3225Y368224D01*
X-1702Y370209D01*
X-745Y372520D01*
X-418Y375000D01*
X-745Y377480D01*
X-1702Y379791D01*
X-3225Y381775D01*
X-5209Y383298D01*
X-7520Y384255D01*
X-10000Y384582D01*
D02*
G37*
G36*
X606500Y385539D02*
X543500D01*
X542720Y385384D01*
X542058Y384942D01*
X541616Y384280D01*
X541461Y383500D01*
Y334560D01*
X533539D01*
Y339000D01*
X533384Y339780D01*
X532942Y340442D01*
X532280Y340884D01*
X531500Y341039D01*
X508500D01*
X507720Y340884D01*
X507058Y340442D01*
X506616Y339780D01*
X506461Y339000D01*
Y335125D01*
X505191Y334794D01*
X499104Y340881D01*
Y362145D01*
X498949Y362925D01*
X498507Y363587D01*
X497845Y364029D01*
X497065Y364184D01*
X472935D01*
X472155Y364029D01*
X471493Y363587D01*
X471051Y362925D01*
X470896Y362145D01*
Y327855D01*
X471051Y327075D01*
X471493Y326413D01*
X472155Y325971D01*
X472935Y325816D01*
X479470D01*
X479956Y324642D01*
X460139Y304825D01*
X458891Y304894D01*
X458692Y305192D01*
X458030Y305634D01*
X457250Y305789D01*
X442750D01*
X441970Y305634D01*
X441308Y305192D01*
X440866Y304530D01*
X440711Y303750D01*
Y299250D01*
X440866Y298470D01*
X441308Y297808D01*
X441970Y297366D01*
X442750Y297211D01*
X457250D01*
X458030Y297366D01*
X458692Y297808D01*
X458945Y298186D01*
X461500D01*
X462768Y298439D01*
X463843Y299157D01*
X487343Y322657D01*
X488061Y323732D01*
X488314Y325000D01*
Y325816D01*
X494199D01*
X497508Y322508D01*
X498970Y321385D01*
X500673Y320680D01*
X502500Y320440D01*
X506461D01*
Y316000D01*
X506616Y315220D01*
X507058Y314558D01*
X507720Y314116D01*
X508500Y313961D01*
X531500D01*
X532280Y314116D01*
X532942Y314558D01*
X533384Y315220D01*
X533539Y316000D01*
Y320440D01*
X549500D01*
X549661Y320461D01*
X606500D01*
X607280Y320616D01*
X607942Y321058D01*
X608384Y321720D01*
X608539Y322500D01*
Y383500D01*
X608384Y384280D01*
X607942Y384942D01*
X607280Y385384D01*
X606500Y385539D01*
D02*
G37*
G36*
X338500Y97069D02*
X337134Y96797D01*
X335977Y96023D01*
X335885Y95886D01*
X334615D01*
X334523Y96023D01*
X333366Y96797D01*
X332000Y97069D01*
X330634Y96797D01*
X329477Y96023D01*
X329385Y95886D01*
X328115D01*
X328023Y96023D01*
X326866Y96797D01*
X325500Y97069D01*
X324134Y96797D01*
X322977Y96023D01*
X322885Y95886D01*
X321615D01*
X321523Y96023D01*
X320366Y96797D01*
X319000Y97069D01*
X317634Y96797D01*
X316477Y96023D01*
X315703Y94866D01*
X315431Y93500D01*
Y89000D01*
Y78000D01*
X315508Y77618D01*
X315180Y76827D01*
X314940Y75000D01*
Y34924D01*
X300969Y20954D01*
X298333Y21754D01*
X295000Y22082D01*
X291667Y21754D01*
X288463Y20782D01*
X285510Y19203D01*
X282921Y17079D01*
X280797Y14490D01*
X279218Y11537D01*
X278246Y8332D01*
X277918Y5000D01*
X278246Y1667D01*
X279218Y-1537D01*
X280797Y-4490D01*
X282921Y-7079D01*
X285510Y-9203D01*
X288463Y-10782D01*
X291667Y-11754D01*
X295000Y-12082D01*
X298333Y-11754D01*
X301537Y-10782D01*
X304490Y-9203D01*
X307079Y-7079D01*
X309203Y-4490D01*
X310782Y-1537D01*
X311754Y1667D01*
X312082Y5000D01*
X311754Y8332D01*
X310954Y10969D01*
X326992Y27008D01*
X327184Y27258D01*
X328638Y27066D01*
X328885Y26470D01*
X330008Y25008D01*
X340702Y14313D01*
X339218Y11537D01*
X338246Y8332D01*
X337918Y5000D01*
X338246Y1667D01*
X339218Y-1537D01*
X340797Y-4490D01*
X342921Y-7079D01*
X345510Y-9203D01*
X348463Y-10782D01*
X351667Y-11754D01*
X355000Y-12082D01*
X358333Y-11754D01*
X361537Y-10782D01*
X364490Y-9203D01*
X367079Y-7079D01*
X369203Y-4490D01*
X370782Y-1537D01*
X371754Y1667D01*
X372082Y5000D01*
X371754Y8332D01*
X370782Y11537D01*
X369203Y14490D01*
X367079Y17079D01*
X364490Y19203D01*
X361537Y20782D01*
X358333Y21754D01*
X355000Y22082D01*
X353091Y21894D01*
X342060Y32924D01*
Y75000D01*
X341820Y76827D01*
X341732Y77038D01*
X341797Y77134D01*
X342069Y78500D01*
Y89000D01*
Y93500D01*
X341797Y94866D01*
X341023Y96023D01*
X339866Y96797D01*
X338500Y97069D01*
D02*
G37*
G36*
X211000Y146588D02*
X209244Y146239D01*
X207756Y145244D01*
X206761Y143756D01*
X206412Y142000D01*
X206761Y140244D01*
X207756Y138756D01*
X207941Y138632D01*
Y133769D01*
X207695Y133605D01*
X206590Y131951D01*
X206202Y130000D01*
Y114000D01*
X206590Y112049D01*
X207695Y110395D01*
X209349Y109290D01*
X211300Y108902D01*
X213251Y109290D01*
X214905Y110395D01*
X216010Y112049D01*
X216398Y114000D01*
Y130000D01*
X216010Y131951D01*
X214905Y133605D01*
X214059Y134170D01*
Y138632D01*
X214244Y138756D01*
X215239Y140244D01*
X215588Y142000D01*
X215239Y143756D01*
X214244Y145244D01*
X212756Y146239D01*
X211000Y146588D01*
D02*
G37*
G36*
X280500Y229039D02*
X272500D01*
X271720Y228884D01*
X271058Y228442D01*
X270616Y227780D01*
X270461Y227000D01*
Y219000D01*
X270616Y218220D01*
X271058Y217558D01*
X271720Y217116D01*
X272500Y216961D01*
X273186D01*
Y211539D01*
X272500D01*
X271720Y211384D01*
X271058Y210942D01*
X270616Y210280D01*
X270461Y209500D01*
Y201500D01*
X270616Y200720D01*
X271058Y200058D01*
X271720Y199616D01*
X272500Y199461D01*
X280500D01*
X281280Y199616D01*
X281942Y200058D01*
X282384Y200720D01*
X282539Y201500D01*
Y209500D01*
X282384Y210280D01*
X281942Y210942D01*
X281280Y211384D01*
X280500Y211539D01*
X279814D01*
Y216961D01*
X280500D01*
X281280Y217116D01*
X281942Y217558D01*
X282384Y218220D01*
X282539Y219000D01*
Y227000D01*
X282384Y227780D01*
X281942Y228442D01*
X281280Y228884D01*
X280500Y229039D01*
D02*
G37*
G36*
X263000D02*
X255000D01*
X254220Y228884D01*
X253558Y228442D01*
X253116Y227780D01*
X252961Y227000D01*
Y219000D01*
X253116Y218220D01*
X253558Y217558D01*
X254220Y217116D01*
X255000Y216961D01*
X255686D01*
Y211539D01*
X255000D01*
X254220Y211384D01*
X253558Y210942D01*
X253116Y210280D01*
X252961Y209500D01*
Y201500D01*
X253116Y200720D01*
X253558Y200058D01*
X254220Y199616D01*
X255000Y199461D01*
X263000D01*
X263780Y199616D01*
X264442Y200058D01*
X264884Y200720D01*
X265039Y201500D01*
Y209500D01*
X264884Y210280D01*
X264442Y210942D01*
X263780Y211384D01*
X263000Y211539D01*
X262314D01*
Y216961D01*
X263000D01*
X263780Y217116D01*
X264442Y217558D01*
X264884Y218220D01*
X265039Y219000D01*
Y227000D01*
X264884Y227780D01*
X264442Y228442D01*
X263780Y228884D01*
X263000Y229039D01*
D02*
G37*
G36*
X182760Y219795D02*
X175140D01*
X174360Y219640D01*
X173698Y219198D01*
X173256Y218536D01*
X173101Y217756D01*
Y210644D01*
X172830Y210314D01*
X170373D01*
X169799Y210887D01*
Y217756D01*
X169644Y218536D01*
X169202Y219198D01*
X168540Y219640D01*
X167760Y219795D01*
X160140D01*
X159360Y219640D01*
X158698Y219198D01*
X158256Y218536D01*
X158101Y217756D01*
Y210644D01*
X158256Y209864D01*
X158698Y209202D01*
X159360Y208760D01*
X160140Y208605D01*
X162709D01*
X166657Y204657D01*
X167732Y203939D01*
X169000Y203686D01*
X172631D01*
X173309Y202416D01*
X173256Y202336D01*
X173101Y201556D01*
Y194444D01*
X173256Y193664D01*
X173698Y193002D01*
X174360Y192560D01*
X175140Y192405D01*
X178057D01*
X181312Y189150D01*
Y180133D01*
X181190Y179951D01*
X180802Y178000D01*
Y171391D01*
X180800Y171388D01*
X169476D01*
X169202Y171798D01*
X168540Y172240D01*
X167760Y172395D01*
X160140D01*
X159360Y172240D01*
X158698Y171798D01*
X158424Y171388D01*
X156800D01*
X155044Y171039D01*
X153556Y170044D01*
X149761Y166250D01*
X148588Y166736D01*
Y193697D01*
X148992Y194008D01*
X150114Y195470D01*
X150820Y197173D01*
X151060Y199000D01*
X150820Y200827D01*
X150114Y202530D01*
X148992Y203993D01*
X147530Y205114D01*
X145827Y205820D01*
X144000Y206060D01*
X142173Y205820D01*
X140470Y205114D01*
X139008Y203993D01*
X137886Y202530D01*
X137180Y200827D01*
X136940Y199000D01*
X137180Y197173D01*
X137886Y195470D01*
X139008Y194008D01*
X139412Y193697D01*
Y154000D01*
Y143303D01*
X139008Y142992D01*
X137886Y141530D01*
X137180Y139827D01*
X136940Y138000D01*
X137180Y136173D01*
X137886Y134470D01*
X139008Y133008D01*
X140470Y131885D01*
X142173Y131180D01*
X144000Y130940D01*
X145827Y131180D01*
X147530Y131885D01*
X148992Y133008D01*
X150114Y134470D01*
X150820Y136173D01*
X151060Y138000D01*
X150820Y139827D01*
X150114Y141530D01*
X148992Y142992D01*
X148588Y143303D01*
Y152100D01*
X158327Y161839D01*
X158698Y161802D01*
X159360Y161360D01*
X160140Y161205D01*
X167760D01*
X168540Y161360D01*
X169202Y161802D01*
X169476Y162212D01*
X180802D01*
Y162000D01*
X181190Y160049D01*
X182295Y158395D01*
X183949Y157290D01*
X185900Y156902D01*
X187851Y157290D01*
X189505Y158395D01*
X190610Y160049D01*
X190998Y162000D01*
Y178000D01*
X190610Y179951D01*
X190488Y180133D01*
Y191050D01*
X190139Y192806D01*
X189144Y194294D01*
X184799Y198640D01*
Y201556D01*
X185673Y202863D01*
X185730Y202892D01*
X186333Y202981D01*
X192686Y196627D01*
Y186000D01*
X192939Y184732D01*
X193657Y183657D01*
X194508Y182806D01*
X194995Y181605D01*
X193890Y179951D01*
X193502Y178000D01*
Y162000D01*
X193890Y160049D01*
X194995Y158395D01*
X196649Y157290D01*
X198600Y156902D01*
X200551Y157290D01*
X202205Y158395D01*
X203310Y160049D01*
X203698Y162000D01*
Y178000D01*
X203310Y179951D01*
X202205Y181605D01*
X201914Y181799D01*
Y183400D01*
X201661Y184668D01*
X200943Y185743D01*
X199314Y187372D01*
Y189161D01*
X199537Y189410D01*
X200584Y190034D01*
X200950Y189961D01*
X205443D01*
X207731Y187672D01*
Y181629D01*
X207695Y181605D01*
X206590Y179951D01*
X206202Y178000D01*
Y162000D01*
X206590Y160049D01*
X207695Y158395D01*
X209349Y157290D01*
X211300Y156902D01*
X213251Y157290D01*
X214905Y158395D01*
X216010Y160049D01*
X216398Y162000D01*
Y178000D01*
X216010Y179951D01*
X214905Y181605D01*
X214869Y181629D01*
Y189150D01*
X214597Y190516D01*
X213823Y191673D01*
X208989Y196508D01*
Y201000D01*
X208834Y201780D01*
X208392Y202442D01*
X207730Y202884D01*
X207314Y202967D01*
Y206000D01*
X207061Y207268D01*
X206343Y208343D01*
X200593Y214093D01*
X199518Y214811D01*
X198250Y215064D01*
X184799D01*
Y217756D01*
X184644Y218536D01*
X184202Y219198D01*
X183540Y219640D01*
X182760Y219795D01*
D02*
G37*
G36*
X364500Y97069D02*
X363134Y96797D01*
X361977Y96023D01*
X361885Y95886D01*
X360615D01*
X360523Y96023D01*
X359366Y96797D01*
X358000Y97069D01*
X356634Y96797D01*
X355477Y96023D01*
X354703Y94866D01*
X354431Y93500D01*
Y89000D01*
Y77000D01*
X354507Y76618D01*
X354180Y75827D01*
X353940Y74000D01*
Y49000D01*
X354180Y47173D01*
X354885Y45470D01*
X356007Y44008D01*
X389046Y10969D01*
X388246Y8332D01*
X387918Y5000D01*
X388246Y1667D01*
X389218Y-1537D01*
X390797Y-4490D01*
X392921Y-7079D01*
X395510Y-9203D01*
X398463Y-10782D01*
X401667Y-11754D01*
X405000Y-12082D01*
X408333Y-11754D01*
X411537Y-10782D01*
X414490Y-9203D01*
X417079Y-7079D01*
X419203Y-4490D01*
X420782Y-1537D01*
X421754Y1667D01*
X422082Y5000D01*
X421754Y8332D01*
X420782Y11537D01*
X419203Y14490D01*
X417079Y17079D01*
X414490Y19203D01*
X411537Y20782D01*
X408333Y21754D01*
X405000Y22082D01*
X401667Y21754D01*
X399031Y20954D01*
X368060Y51925D01*
Y74000D01*
X367820Y75827D01*
X367733Y76038D01*
X367797Y76134D01*
X368069Y77500D01*
Y89000D01*
Y93500D01*
X367797Y94866D01*
X367023Y96023D01*
X365866Y96797D01*
X364500Y97069D01*
D02*
G37*
G36*
X299500D02*
X298134Y96797D01*
X297467Y96351D01*
X295942Y96442D01*
X295280Y96884D01*
X294500Y97039D01*
X291500D01*
X290720Y96884D01*
X290058Y96442D01*
X289616Y95780D01*
X289461Y95000D01*
Y89148D01*
X289431Y89000D01*
Y76916D01*
X240008Y27492D01*
X238886Y26030D01*
X238180Y24327D01*
X237940Y22500D01*
Y20502D01*
X235510Y19203D01*
X232921Y17079D01*
X230797Y14490D01*
X229218Y11537D01*
X228246Y8332D01*
X227918Y5000D01*
X228246Y1667D01*
X229218Y-1537D01*
X230797Y-4490D01*
X232921Y-7079D01*
X235510Y-9203D01*
X238463Y-10782D01*
X241667Y-11754D01*
X245000Y-12082D01*
X248333Y-11754D01*
X251537Y-10782D01*
X254490Y-9203D01*
X257079Y-7079D01*
X259203Y-4490D01*
X260782Y-1537D01*
X261754Y1667D01*
X262082Y5000D01*
X261754Y8332D01*
X260782Y11537D01*
X259203Y14490D01*
X257079Y17079D01*
X254490Y19203D01*
X253604Y19677D01*
X253418Y20933D01*
X300992Y68508D01*
X302115Y69970D01*
X302820Y71673D01*
X303060Y73500D01*
X302820Y75327D01*
X302733Y75538D01*
X302797Y75634D01*
X303069Y77000D01*
Y89000D01*
Y93500D01*
X302797Y94866D01*
X302023Y96023D01*
X300866Y96797D01*
X299500Y97069D01*
D02*
G37*
G36*
X242450Y205553D02*
X225450D01*
X224670Y205398D01*
X224008Y204956D01*
X223566Y204294D01*
X223411Y203514D01*
Y193964D01*
X220756Y191308D01*
X219761Y189820D01*
X219412Y188064D01*
Y180133D01*
X219290Y179951D01*
X218902Y178000D01*
Y162000D01*
X219290Y160049D01*
X219412Y159867D01*
Y149000D01*
X219761Y147244D01*
X220756Y145756D01*
X230412Y136100D01*
Y106901D01*
X208756Y85244D01*
X207761Y83756D01*
X207412Y82000D01*
Y67901D01*
X199960Y60448D01*
X199295Y60506D01*
X198134Y60935D01*
Y85065D01*
X197979Y85845D01*
X197537Y86507D01*
X196875Y86949D01*
X196095Y87104D01*
X189538D01*
Y95474D01*
X189948Y95748D01*
X190390Y96410D01*
X190545Y97190D01*
Y104810D01*
X190390Y105590D01*
X189948Y106252D01*
X189286Y106694D01*
X188506Y106849D01*
X181394D01*
X180614Y106694D01*
X179952Y106252D01*
X179510Y105590D01*
X179510Y105588D01*
X173901D01*
X169538Y109951D01*
Y113461D01*
X171950D01*
X172730Y113616D01*
X173392Y114058D01*
X173834Y114720D01*
X173989Y115500D01*
Y117412D01*
X180802D01*
Y114000D01*
X181190Y112049D01*
X182295Y110395D01*
X183949Y109290D01*
X185900Y108902D01*
X187851Y109290D01*
X189505Y110395D01*
X190610Y112049D01*
X190998Y114000D01*
Y130000D01*
X190610Y131951D01*
X189505Y133605D01*
X187851Y134710D01*
X185900Y135098D01*
X183949Y134710D01*
X182295Y133605D01*
X181190Y131951D01*
X180802Y130000D01*
Y126588D01*
X173989D01*
Y128500D01*
X173834Y129280D01*
X173392Y129942D01*
X172730Y130384D01*
X171950Y130539D01*
X157950D01*
X157170Y130384D01*
X156508Y129942D01*
X156066Y129280D01*
X155911Y128500D01*
Y115500D01*
X156066Y114720D01*
X156508Y114058D01*
X157170Y113616D01*
X157950Y113461D01*
X160362D01*
Y108050D01*
X160711Y106294D01*
X161706Y104806D01*
X168756Y97756D01*
X170244Y96761D01*
X172000Y96412D01*
X179510D01*
X179510Y96410D01*
X179952Y95748D01*
X180362Y95474D01*
Y87104D01*
X161805D01*
X161025Y86949D01*
X160363Y86507D01*
X159921Y85845D01*
X159766Y85065D01*
Y60935D01*
X159781Y60858D01*
X158888Y59588D01*
X139300D01*
X134171Y64717D01*
X134256Y64920D01*
X134582Y67400D01*
X134256Y69880D01*
X133298Y72191D01*
X131776Y74175D01*
X129791Y75698D01*
X127480Y76655D01*
X125000Y76982D01*
X122520Y76655D01*
X120209Y75698D01*
X118225Y74175D01*
X116702Y72191D01*
X115744Y69880D01*
X115418Y67400D01*
X115744Y64920D01*
X116702Y62609D01*
X118225Y60624D01*
X120209Y59102D01*
X122520Y58144D01*
X125000Y57818D01*
X127480Y58144D01*
X127683Y58229D01*
X133221Y52691D01*
X132595Y51520D01*
X132500Y51539D01*
X117500D01*
X116720Y51384D01*
X116058Y50942D01*
X115616Y50280D01*
X115461Y49500D01*
Y34500D01*
X115616Y33720D01*
X116058Y33058D01*
X116720Y32616D01*
X117500Y32461D01*
X128050D01*
X149146Y11366D01*
X150634Y10371D01*
X152390Y10022D01*
X159766D01*
Y2545D01*
X159921Y1765D01*
X160363Y1103D01*
X161025Y661D01*
X161805Y506D01*
X196095D01*
X196875Y661D01*
X197537Y1103D01*
X197979Y1765D01*
X198134Y2545D01*
Y26675D01*
X197979Y27455D01*
X197537Y28117D01*
X196875Y28559D01*
X196095Y28714D01*
X161805D01*
X161025Y28559D01*
X160363Y28117D01*
X159921Y27455D01*
X159766Y26675D01*
Y19198D01*
X154290D01*
X137250Y36239D01*
X137736Y37412D01*
X209000D01*
X210756Y37761D01*
X212244Y38756D01*
X228244Y54756D01*
X228381Y54961D01*
X231500D01*
X232280Y55116D01*
X232942Y55558D01*
X233384Y56220D01*
X233539Y57000D01*
Y71000D01*
X233384Y71780D01*
X232942Y72442D01*
X232280Y72884D01*
X231500Y73039D01*
X218500D01*
X217858Y72912D01*
X217585Y72976D01*
X216588Y73655D01*
Y80099D01*
X238244Y101756D01*
X239239Y103244D01*
X239588Y105000D01*
Y138000D01*
X239239Y139756D01*
X238244Y141244D01*
X228588Y150900D01*
Y159867D01*
X228710Y160049D01*
X229098Y162000D01*
Y178000D01*
X228710Y179951D01*
X228588Y180133D01*
Y186164D01*
X232899Y190475D01*
X242450D01*
X243230Y190630D01*
X243892Y191072D01*
X244334Y191734D01*
X244489Y192514D01*
Y203514D01*
X244334Y204294D01*
X243892Y204956D01*
X243230Y205398D01*
X242450Y205553D01*
D02*
G37*
G36*
X454914Y486848D02*
X452434Y486521D01*
X450123Y485564D01*
X448139Y484041D01*
X446616Y482057D01*
X445659Y479746D01*
X445332Y477266D01*
X445659Y474786D01*
X446616Y472475D01*
X448139Y470490D01*
X450123Y468968D01*
X452434Y468010D01*
X454914Y467684D01*
X457394Y468010D01*
X459705Y468968D01*
X461689Y470490D01*
X463212Y472475D01*
X464170Y474786D01*
X464496Y477266D01*
X464170Y479746D01*
X463212Y482057D01*
X461689Y484041D01*
X459705Y485564D01*
X457394Y486521D01*
X454914Y486848D01*
D02*
G37*
G36*
X480314D02*
X477834Y486521D01*
X475523Y485564D01*
X473539Y484041D01*
X472016Y482057D01*
X471059Y479746D01*
X470732Y477266D01*
X471059Y474786D01*
X472016Y472475D01*
X473539Y470490D01*
X475523Y468968D01*
X477834Y468010D01*
X480314Y467684D01*
X482794Y468010D01*
X485105Y468968D01*
X487090Y470490D01*
X488612Y472475D01*
X489570Y474786D01*
X489896Y477266D01*
X489570Y479746D01*
X488612Y482057D01*
X487090Y484041D01*
X485105Y485564D01*
X482794Y486521D01*
X480314Y486848D01*
D02*
G37*
G36*
X327914D02*
X325434Y486521D01*
X323123Y485564D01*
X321139Y484041D01*
X319616Y482057D01*
X318659Y479746D01*
X318332Y477266D01*
X318659Y474786D01*
X319616Y472475D01*
X321139Y470490D01*
X323123Y468968D01*
X325434Y468010D01*
X327914Y467684D01*
X330394Y468010D01*
X332705Y468968D01*
X334689Y470490D01*
X336212Y472475D01*
X337169Y474786D01*
X337496Y477266D01*
X337169Y479746D01*
X336212Y482057D01*
X334689Y484041D01*
X332705Y485564D01*
X330394Y486521D01*
X327914Y486848D01*
D02*
G37*
G36*
X277114D02*
X274634Y486521D01*
X272323Y485564D01*
X270339Y484041D01*
X268816Y482057D01*
X267859Y479746D01*
X267532Y477266D01*
X267859Y474786D01*
X268816Y472475D01*
X270339Y470490D01*
X272323Y468968D01*
X274634Y468010D01*
X277114Y467684D01*
X279594Y468010D01*
X281905Y468968D01*
X283890Y470490D01*
X285412Y472475D01*
X286369Y474786D01*
X286696Y477266D01*
X286369Y479746D01*
X285412Y482057D01*
X283890Y484041D01*
X281905Y485564D01*
X279594Y486521D01*
X277114Y486848D01*
D02*
G37*
G36*
X302514D02*
X300034Y486521D01*
X297723Y485564D01*
X295739Y484041D01*
X294216Y482057D01*
X293259Y479746D01*
X292932Y477266D01*
X293259Y474786D01*
X294216Y472475D01*
X295739Y470490D01*
X297723Y468968D01*
X300034Y468010D01*
X302514Y467684D01*
X304994Y468010D01*
X307305Y468968D01*
X309289Y470490D01*
X310812Y472475D01*
X311770Y474786D01*
X312096Y477266D01*
X311770Y479746D01*
X310812Y482057D01*
X309289Y484041D01*
X307305Y485564D01*
X304994Y486521D01*
X302514Y486848D01*
D02*
G37*
G36*
X505714D02*
X503234Y486521D01*
X500923Y485564D01*
X498939Y484041D01*
X497416Y482057D01*
X496459Y479746D01*
X496132Y477266D01*
X496459Y474786D01*
X497416Y472475D01*
X498939Y470490D01*
X500923Y468968D01*
X503234Y468010D01*
X505714Y467684D01*
X508194Y468010D01*
X510505Y468968D01*
X512490Y470490D01*
X514012Y472475D01*
X514969Y474786D01*
X515296Y477266D01*
X514969Y479746D01*
X514012Y482057D01*
X512490Y484041D01*
X510505Y485564D01*
X508194Y486521D01*
X505714Y486848D01*
D02*
G37*
G36*
X531114Y512248D02*
X528634Y511921D01*
X526323Y510964D01*
X524339Y509441D01*
X522816Y507457D01*
X521859Y505146D01*
X521532Y502666D01*
X521859Y500186D01*
X522816Y497875D01*
X524339Y495891D01*
X526323Y494368D01*
X528634Y493410D01*
X531114Y493084D01*
X533594Y493410D01*
X535905Y494368D01*
X537890Y495891D01*
X539412Y497875D01*
X540369Y500186D01*
X540696Y502666D01*
X540369Y505146D01*
X539412Y507457D01*
X537890Y509441D01*
X535905Y510964D01*
X533594Y511921D01*
X531114Y512248D01*
D02*
G37*
G36*
X392000Y524226D02*
X88166D01*
X86339Y523986D01*
X84636Y523280D01*
X83174Y522158D01*
X73164Y512149D01*
X71434Y511921D01*
X69123Y510964D01*
X67510Y509726D01*
X54918D01*
X53305Y510964D01*
X50994Y511921D01*
X48514Y512248D01*
X46034Y511921D01*
X43723Y510964D01*
X41739Y509441D01*
X40216Y507457D01*
X39259Y505146D01*
X38932Y502666D01*
X39259Y500186D01*
X40216Y497875D01*
X41739Y495891D01*
X43723Y494368D01*
X46034Y493410D01*
X48514Y493084D01*
X50994Y493410D01*
X53305Y494368D01*
X54918Y495606D01*
X67510D01*
X69123Y494368D01*
X71434Y493410D01*
X73914Y493084D01*
X76394Y493410D01*
X78705Y494368D01*
X80689Y495891D01*
X82212Y497875D01*
X83169Y500186D01*
X83472Y502488D01*
X91090Y510106D01*
X116847D01*
X117474Y508836D01*
X116416Y507457D01*
X115459Y505146D01*
X115132Y502666D01*
X115459Y500186D01*
X116416Y497875D01*
X117939Y495891D01*
X119923Y494368D01*
X122234Y493410D01*
X124714Y493084D01*
X127194Y493410D01*
X129505Y494368D01*
X131489Y495891D01*
X133012Y497875D01*
X133969Y500186D01*
X134296Y502666D01*
X133969Y505146D01*
X133012Y507457D01*
X131954Y508836D01*
X132581Y510106D01*
X142247D01*
X142874Y508836D01*
X141816Y507457D01*
X140859Y505146D01*
X140532Y502666D01*
X140859Y500186D01*
X141816Y497875D01*
X143339Y495891D01*
X145323Y494368D01*
X147634Y493410D01*
X150114Y493084D01*
X152594Y493410D01*
X154905Y494368D01*
X156889Y495891D01*
X158412Y497875D01*
X159369Y500186D01*
X159696Y502666D01*
X159369Y505146D01*
X158412Y507457D01*
X157354Y508836D01*
X157981Y510106D01*
X167647D01*
X168274Y508836D01*
X167216Y507457D01*
X166259Y505146D01*
X165932Y502666D01*
X166259Y500186D01*
X167216Y497875D01*
X168739Y495891D01*
X170723Y494368D01*
X173034Y493410D01*
X175514Y493084D01*
X177994Y493410D01*
X180305Y494368D01*
X182290Y495891D01*
X183812Y497875D01*
X184769Y500186D01*
X185096Y502666D01*
X184769Y505146D01*
X183812Y507457D01*
X182754Y508836D01*
X183381Y510106D01*
X218447D01*
X219074Y508836D01*
X218016Y507457D01*
X217059Y505146D01*
X216732Y502666D01*
X217059Y500186D01*
X218016Y497875D01*
X219539Y495891D01*
X221523Y494368D01*
X223834Y493410D01*
X226314Y493084D01*
X228794Y493410D01*
X231105Y494368D01*
X233090Y495891D01*
X234612Y497875D01*
X235569Y500186D01*
X235896Y502666D01*
X235569Y505146D01*
X234612Y507457D01*
X233554Y508836D01*
X234181Y510106D01*
X243847D01*
X244474Y508836D01*
X243416Y507457D01*
X242459Y505146D01*
X242132Y502666D01*
X242459Y500186D01*
X243416Y497875D01*
X244939Y495891D01*
X246923Y494368D01*
X249234Y493410D01*
X251714Y493084D01*
X254194Y493410D01*
X256505Y494368D01*
X258489Y495891D01*
X260012Y497875D01*
X260970Y500186D01*
X261296Y502666D01*
X260970Y505146D01*
X260012Y507457D01*
X258954Y508836D01*
X259581Y510106D01*
X294647D01*
X295274Y508836D01*
X294216Y507457D01*
X293259Y505146D01*
X292932Y502666D01*
X293259Y500186D01*
X294216Y497875D01*
X295739Y495891D01*
X297723Y494368D01*
X300034Y493410D01*
X302514Y493084D01*
X304994Y493410D01*
X307305Y494368D01*
X309289Y495891D01*
X310812Y497875D01*
X311770Y500186D01*
X312096Y502666D01*
X311770Y505146D01*
X310812Y507457D01*
X309754Y508836D01*
X310381Y510106D01*
X320047D01*
X320674Y508836D01*
X319616Y507457D01*
X318659Y505146D01*
X318332Y502666D01*
X318659Y500186D01*
X319616Y497875D01*
X321139Y495891D01*
X323123Y494368D01*
X325434Y493410D01*
X327914Y493084D01*
X330394Y493410D01*
X332705Y494368D01*
X334689Y495891D01*
X336212Y497875D01*
X337169Y500186D01*
X337496Y502666D01*
X337169Y505146D01*
X336212Y507457D01*
X335154Y508836D01*
X335781Y510106D01*
X345447D01*
X346074Y508836D01*
X345016Y507457D01*
X344059Y505146D01*
X343732Y502666D01*
X344059Y500186D01*
X345016Y497875D01*
X346539Y495891D01*
X348523Y494368D01*
X350834Y493410D01*
X353314Y493084D01*
X355794Y493410D01*
X358105Y494368D01*
X360089Y495891D01*
X361612Y497875D01*
X362570Y500186D01*
X362896Y502666D01*
X362570Y505146D01*
X361612Y507457D01*
X360554Y508836D01*
X361181Y510106D01*
X370847D01*
X371474Y508836D01*
X370416Y507457D01*
X369459Y505146D01*
X369132Y502666D01*
X369459Y500186D01*
X370416Y497875D01*
X371939Y495891D01*
X373923Y494368D01*
X376234Y493410D01*
X378714Y493084D01*
X381194Y493410D01*
X383505Y494368D01*
X385246Y495704D01*
X386516Y495322D01*
Y484610D01*
X385246Y484228D01*
X383505Y485564D01*
X381194Y486521D01*
X378714Y486848D01*
X376234Y486521D01*
X373923Y485564D01*
X371939Y484041D01*
X370416Y482057D01*
X369459Y479746D01*
X369132Y477266D01*
X369459Y474786D01*
X370416Y472475D01*
X371939Y470490D01*
X373923Y468968D01*
X376234Y468010D01*
X378714Y467684D01*
X381194Y468010D01*
X383505Y468968D01*
X385489Y470490D01*
X386826Y470146D01*
X386902Y469762D01*
Y450039D01*
X377000D01*
X376220Y449884D01*
X375558Y449442D01*
X375116Y448780D01*
X374961Y448000D01*
Y438000D01*
X375116Y437220D01*
X375558Y436558D01*
X376220Y436116D01*
X377000Y435961D01*
X401000D01*
X401692Y436098D01*
X411084Y426706D01*
X411058Y426442D01*
X410616Y425780D01*
X410461Y425000D01*
Y415000D01*
X410616Y414220D01*
X411058Y413558D01*
X411720Y413116D01*
X412500Y412961D01*
X419550D01*
Y364184D01*
X414545D01*
X413765Y364029D01*
X413103Y363587D01*
X412661Y362925D01*
X412506Y362145D01*
Y349514D01*
X405849D01*
Y349756D01*
X405694Y350536D01*
X405252Y351198D01*
X404590Y351640D01*
X403810Y351795D01*
X396190D01*
X395410Y351640D01*
X394748Y351198D01*
X394306Y350536D01*
X394151Y349756D01*
Y349514D01*
X390849D01*
Y349756D01*
X390694Y350536D01*
X390252Y351198D01*
X389590Y351640D01*
X388810Y351795D01*
X381190D01*
X380410Y351640D01*
X379748Y351198D01*
X379306Y350536D01*
X379151Y349756D01*
Y342644D01*
X379306Y341864D01*
X379748Y341202D01*
X380410Y340760D01*
X381190Y340605D01*
X388810D01*
X389590Y340760D01*
X390252Y341202D01*
X390694Y341864D01*
X390849Y342644D01*
Y342886D01*
X394151D01*
Y342644D01*
X394306Y341864D01*
X394748Y341202D01*
X395410Y340760D01*
X396190Y340605D01*
X403810D01*
X404590Y340760D01*
X405252Y341202D01*
X405694Y341864D01*
X405849Y342644D01*
Y342886D01*
X412506D01*
Y327855D01*
X412661Y327075D01*
X413103Y326413D01*
X413765Y325971D01*
X414545Y325816D01*
X423296D01*
Y312983D01*
X415909Y305595D01*
X411190D01*
X410410Y305440D01*
X409748Y304998D01*
X409306Y304336D01*
X409151Y303556D01*
Y303514D01*
X403849D01*
Y303756D01*
X403694Y304536D01*
X403252Y305198D01*
X402590Y305640D01*
X401810Y305795D01*
X394190D01*
X393410Y305640D01*
X392748Y305198D01*
X392306Y304536D01*
X392151Y303756D01*
Y296644D01*
X392306Y295864D01*
X392748Y295202D01*
X393410Y294760D01*
X394190Y294605D01*
X401810D01*
X402590Y294760D01*
X403252Y295202D01*
X403694Y295864D01*
X403849Y296644D01*
Y296886D01*
X409151D01*
Y296444D01*
X409306Y295664D01*
X409748Y295002D01*
X410410Y294560D01*
X411190Y294405D01*
X418810D01*
X419590Y294560D01*
X420252Y295002D01*
X420694Y295664D01*
X420849Y296444D01*
Y301163D01*
X428953Y309267D01*
X429671Y310342D01*
X429924Y311610D01*
Y325816D01*
X438675D01*
X439455Y325971D01*
X440117Y326413D01*
X440559Y327075D01*
X440714Y327855D01*
Y362145D01*
X440559Y362925D01*
X440117Y363587D01*
X439455Y364029D01*
X438675Y364184D01*
X433670D01*
Y412961D01*
X437500D01*
X438280Y413116D01*
X438942Y413558D01*
X439384Y414220D01*
X439539Y415000D01*
Y425000D01*
X439384Y425780D01*
X438942Y426442D01*
X438280Y426884D01*
X437500Y427039D01*
X425170D01*
X422098Y430112D01*
Y469381D01*
X423368Y470008D01*
X424723Y468968D01*
X427034Y468010D01*
X429514Y467684D01*
X431994Y468010D01*
X434305Y468968D01*
X436289Y470490D01*
X437812Y472475D01*
X438769Y474786D01*
X439096Y477266D01*
X438769Y479746D01*
X437812Y482057D01*
X436289Y484041D01*
X434305Y485564D01*
X431994Y486521D01*
X429514Y486848D01*
X427034Y486521D01*
X424723Y485564D01*
X423368Y484524D01*
X422098Y485151D01*
Y494781D01*
X423368Y495408D01*
X424723Y494368D01*
X427034Y493410D01*
X429514Y493084D01*
X431994Y493410D01*
X434305Y494368D01*
X436289Y495891D01*
X437812Y497875D01*
X438769Y500186D01*
X439096Y502666D01*
X438769Y505146D01*
X437812Y507457D01*
X436289Y509441D01*
X434305Y510964D01*
X431994Y511921D01*
X429514Y512248D01*
X427034Y511921D01*
X424723Y510964D01*
X423368Y509924D01*
X423068Y509942D01*
X422003Y510478D01*
X421710Y511951D01*
X420605Y513605D01*
X413825Y520385D01*
X412171Y521490D01*
X410220Y521878D01*
X397208D01*
X396992Y522158D01*
X395530Y523280D01*
X393827Y523986D01*
X392000Y524226D01*
D02*
G37*
G36*
X505714Y512248D02*
X503234Y511921D01*
X500923Y510964D01*
X498939Y509441D01*
X497416Y507457D01*
X496459Y505146D01*
X496132Y502666D01*
X496459Y500186D01*
X497416Y497875D01*
X498939Y495891D01*
X500923Y494368D01*
X503234Y493410D01*
X505714Y493084D01*
X508194Y493410D01*
X510505Y494368D01*
X512490Y495891D01*
X514012Y497875D01*
X514969Y500186D01*
X515296Y502666D01*
X514969Y505146D01*
X514012Y507457D01*
X512490Y509441D01*
X510505Y510964D01*
X508194Y511921D01*
X505714Y512248D01*
D02*
G37*
G36*
X56014Y486805D02*
X41014D01*
X40234Y486650D01*
X39572Y486208D01*
X39130Y485546D01*
X38975Y484766D01*
Y469766D01*
X39130Y468986D01*
X39572Y468324D01*
X40234Y467882D01*
X41014Y467727D01*
X56014D01*
X56794Y467882D01*
X57456Y468324D01*
X57898Y468986D01*
X58053Y469766D01*
Y484766D01*
X57898Y485546D01*
X57456Y486208D01*
X56794Y486650D01*
X56014Y486805D01*
D02*
G37*
G36*
X480314Y512248D02*
X477834Y511921D01*
X475523Y510964D01*
X473539Y509441D01*
X472016Y507457D01*
X471059Y505146D01*
X470732Y502666D01*
X471059Y500186D01*
X472016Y497875D01*
X473539Y495891D01*
X475523Y494368D01*
X477834Y493410D01*
X480314Y493084D01*
X482794Y493410D01*
X485105Y494368D01*
X487090Y495891D01*
X488612Y497875D01*
X489570Y500186D01*
X489896Y502666D01*
X489570Y505146D01*
X488612Y507457D01*
X487090Y509441D01*
X485105Y510964D01*
X482794Y511921D01*
X480314Y512248D01*
D02*
G37*
G36*
X149600Y454582D02*
X147120Y454255D01*
X144809Y453298D01*
X142825Y451775D01*
X141302Y449791D01*
X140345Y447480D01*
X140018Y445000D01*
X140345Y442520D01*
X141302Y440209D01*
X142825Y438224D01*
X144809Y436702D01*
X147120Y435745D01*
X149600Y435418D01*
X152080Y435745D01*
X154391Y436702D01*
X156376Y438224D01*
X157898Y440209D01*
X158855Y442520D01*
X159182Y445000D01*
X158855Y447480D01*
X157898Y449791D01*
X156376Y451775D01*
X154391Y453298D01*
X152080Y454255D01*
X149600Y454582D01*
D02*
G37*
G36*
X73914Y486848D02*
X71434Y486521D01*
X69123Y485564D01*
X67139Y484041D01*
X65616Y482057D01*
X64659Y479746D01*
X64332Y477266D01*
X64659Y474786D01*
X65616Y472475D01*
X67139Y470490D01*
X69123Y468968D01*
X71434Y468010D01*
X73914Y467684D01*
X76394Y468010D01*
X78705Y468968D01*
X80689Y470490D01*
X82212Y472475D01*
X83169Y474786D01*
X83496Y477266D01*
X83169Y479746D01*
X82212Y482057D01*
X80689Y484041D01*
X78705Y485564D01*
X76394Y486521D01*
X73914Y486848D01*
D02*
G37*
G36*
X99314D02*
X96834Y486521D01*
X94523Y485564D01*
X92539Y484041D01*
X91016Y482057D01*
X90059Y479746D01*
X89732Y477266D01*
X90059Y474786D01*
X91016Y472475D01*
X92539Y470490D01*
X94523Y468968D01*
X96834Y468010D01*
X99314Y467684D01*
X101794Y468010D01*
X104105Y468968D01*
X106089Y470490D01*
X107612Y472475D01*
X108569Y474786D01*
X108896Y477266D01*
X108569Y479746D01*
X107612Y482057D01*
X106089Y484041D01*
X104105Y485564D01*
X101794Y486521D01*
X99314Y486848D01*
D02*
G37*
G36*
X35000Y409582D02*
X32520Y409255D01*
X30209Y408298D01*
X28225Y406775D01*
X26702Y404791D01*
X25745Y402480D01*
X25418Y400000D01*
X25745Y397520D01*
X26702Y395209D01*
X28225Y393224D01*
X30209Y391702D01*
X32520Y390745D01*
X35000Y390418D01*
X37480Y390745D01*
X39791Y391702D01*
X41775Y393224D01*
X43298Y395209D01*
X44255Y397520D01*
X44582Y400000D01*
X44255Y402480D01*
X43298Y404791D01*
X41775Y406775D01*
X39791Y408298D01*
X37480Y409255D01*
X35000Y409582D01*
D02*
G37*
G36*
X248810Y428095D02*
X241190D01*
X240410Y427940D01*
X239748Y427498D01*
X239306Y426836D01*
X239151Y426056D01*
Y425814D01*
X233349D01*
Y426056D01*
X233194Y426836D01*
X232752Y427498D01*
X232090Y427940D01*
X231310Y428095D01*
X223690D01*
X222910Y427940D01*
X222248Y427498D01*
X221806Y426836D01*
X221651Y426056D01*
Y421337D01*
X220157Y419843D01*
X219439Y418768D01*
X219186Y417500D01*
Y405943D01*
X217916Y404981D01*
X217500Y405064D01*
X216232Y404811D01*
X215157Y404093D01*
X214843D01*
X213768Y404811D01*
X212500Y405064D01*
X211232Y404811D01*
X210157Y404093D01*
X209439Y403018D01*
X209186Y401750D01*
Y388750D01*
X209439Y387482D01*
X210157Y386407D01*
X211232Y385689D01*
X212500Y385436D01*
X213768Y385689D01*
X214843Y386407D01*
X215157D01*
X216232Y385689D01*
X217500Y385436D01*
X218768Y385689D01*
X219843Y386407D01*
X220157D01*
X221232Y385689D01*
X222500Y385436D01*
X223171Y385570D01*
X224441Y384727D01*
Y376767D01*
X223219Y375545D01*
X223000Y375588D01*
X221244Y375239D01*
X219756Y374244D01*
X218761Y372756D01*
X218412Y371000D01*
X218761Y369244D01*
X219756Y367756D01*
X221244Y366761D01*
X223000Y366412D01*
X224756Y366761D01*
X226244Y367756D01*
X226365Y367936D01*
X227635D01*
X227756Y367756D01*
X229244Y366761D01*
X231000Y366412D01*
X232756Y366761D01*
X234244Y367756D01*
X235239Y369244D01*
X235588Y371000D01*
X235424Y371824D01*
X235559Y372500D01*
Y384727D01*
X236829Y385570D01*
X237500Y385436D01*
X238768Y385689D01*
X239843Y386407D01*
X240157D01*
X241232Y385689D01*
X242500Y385436D01*
X243768Y385689D01*
X244843Y386407D01*
X245157D01*
X246232Y385689D01*
X247500Y385436D01*
X248768Y385689D01*
X249843Y386407D01*
X250157D01*
X251232Y385689D01*
X252500Y385436D01*
X253768Y385689D01*
X254843Y386407D01*
X255157D01*
X256232Y385689D01*
X257500Y385436D01*
X258768Y385689D01*
X259843Y386407D01*
X260157D01*
X261232Y385689D01*
X262500Y385436D01*
X263768Y385689D01*
X264843Y386407D01*
X265157D01*
X266232Y385689D01*
X267500Y385436D01*
X268768Y385689D01*
X269843Y386407D01*
X270157D01*
X271232Y385689D01*
X272500Y385436D01*
X273768Y385689D01*
X274843Y386407D01*
X275157D01*
X276232Y385689D01*
X277500Y385436D01*
X278768Y385689D01*
X279843Y386407D01*
X280561Y387482D01*
X280814Y388750D01*
Y391936D01*
X295378D01*
X295436Y391878D01*
X295761Y390244D01*
X296756Y388756D01*
X298244Y387761D01*
X300000Y387412D01*
X301756Y387761D01*
X303244Y388756D01*
X304239Y390244D01*
X304588Y392000D01*
X304239Y393756D01*
X303244Y395244D01*
X301756Y396239D01*
X300122Y396564D01*
X299093Y397593D01*
X298018Y398311D01*
X296750Y398564D01*
X280814D01*
Y401750D01*
X280561Y403018D01*
X279843Y404093D01*
X278768Y404811D01*
X277500Y405064D01*
X276232Y404811D01*
X275157Y404093D01*
X274843D01*
X273768Y404811D01*
X272500Y405064D01*
X271829Y404930D01*
X270559Y405773D01*
Y408297D01*
X271244Y408755D01*
X272238Y410243D01*
X272588Y411999D01*
X272238Y413755D01*
X271244Y415243D01*
X269755Y416238D01*
X267999Y416587D01*
X266244Y416238D01*
X264755Y415243D01*
X263761Y413755D01*
X263645Y413172D01*
X262756Y412239D01*
X261000Y412588D01*
X259244Y412239D01*
X257756Y411244D01*
X256761Y409756D01*
X256412Y408000D01*
X256761Y406244D01*
X256780Y406215D01*
X256232Y404811D01*
X255157Y404093D01*
X254843D01*
X253768Y404811D01*
X252500Y405064D01*
X251232Y404811D01*
X250157Y404093D01*
X249843D01*
X248768Y404811D01*
X247500Y405064D01*
X246232Y404811D01*
X245157Y404093D01*
X244843D01*
X243768Y404811D01*
X242500Y405064D01*
X241232Y404811D01*
X240157Y404093D01*
X239843D01*
X238768Y404811D01*
X237500Y405064D01*
X236232Y404811D01*
X235157Y404093D01*
X234843D01*
X233768Y404811D01*
X232500Y405064D01*
X231232Y404811D01*
X230157Y404093D01*
X229843D01*
X228768Y404811D01*
X227500Y405064D01*
X227084Y404981D01*
X225814Y405943D01*
Y416127D01*
X226591Y416905D01*
X231310D01*
X232090Y417060D01*
X232752Y417502D01*
X233194Y418164D01*
X233349Y418944D01*
Y419186D01*
X239151D01*
Y418944D01*
X239306Y418164D01*
X239748Y417502D01*
X240410Y417060D01*
X241190Y416905D01*
X248810D01*
X249590Y417060D01*
X250252Y417502D01*
X250694Y418164D01*
X250849Y418944D01*
Y426056D01*
X250694Y426836D01*
X250252Y427498D01*
X249590Y427940D01*
X248810Y428095D01*
D02*
G37*
G36*
X124200Y454582D02*
X121720Y454255D01*
X119409Y453298D01*
X117425Y451775D01*
X115902Y449791D01*
X114945Y447480D01*
X114618Y445000D01*
X114945Y442520D01*
X115902Y440209D01*
X117425Y438224D01*
X119409Y436702D01*
X121720Y435745D01*
X124200Y435418D01*
X126680Y435745D01*
X128991Y436702D01*
X130976Y438224D01*
X132498Y440209D01*
X133455Y442520D01*
X133782Y445000D01*
X133455Y447480D01*
X132498Y449791D01*
X130976Y451775D01*
X128991Y453298D01*
X126680Y454255D01*
X124200Y454582D01*
D02*
G37*
G36*
X200914Y486848D02*
X198434Y486521D01*
X196123Y485564D01*
X194139Y484041D01*
X192616Y482057D01*
X191659Y479746D01*
X191332Y477266D01*
X191659Y474786D01*
X192616Y472475D01*
X194139Y470490D01*
X196123Y468968D01*
X198434Y468010D01*
X200914Y467684D01*
X203394Y468010D01*
X205705Y468968D01*
X207689Y470490D01*
X209212Y472475D01*
X210170Y474786D01*
X210496Y477266D01*
X210170Y479746D01*
X209212Y482057D01*
X207689Y484041D01*
X205705Y485564D01*
X203394Y486521D01*
X200914Y486848D01*
D02*
G37*
G36*
X226314D02*
X223834Y486521D01*
X221523Y485564D01*
X219539Y484041D01*
X218016Y482057D01*
X217059Y479746D01*
X216732Y477266D01*
X217059Y474786D01*
X218016Y472475D01*
X219539Y470490D01*
X221523Y468968D01*
X223834Y468010D01*
X226314Y467684D01*
X228794Y468010D01*
X231105Y468968D01*
X233090Y470490D01*
X234612Y472475D01*
X235569Y474786D01*
X235896Y477266D01*
X235569Y479746D01*
X234612Y482057D01*
X233090Y484041D01*
X231105Y485564D01*
X228794Y486521D01*
X226314Y486848D01*
D02*
G37*
G36*
X251714D02*
X249234Y486521D01*
X246923Y485564D01*
X244939Y484041D01*
X243416Y482057D01*
X242459Y479746D01*
X242132Y477266D01*
X242459Y474786D01*
X243416Y472475D01*
X244939Y470490D01*
X246923Y468968D01*
X249234Y468010D01*
X251714Y467684D01*
X254194Y468010D01*
X256505Y468968D01*
X258489Y470490D01*
X260012Y472475D01*
X260970Y474786D01*
X261296Y477266D01*
X260970Y479746D01*
X260012Y482057D01*
X258489Y484041D01*
X256505Y485564D01*
X254194Y486521D01*
X251714Y486848D01*
D02*
G37*
G36*
X124714D02*
X122234Y486521D01*
X119923Y485564D01*
X117939Y484041D01*
X116416Y482057D01*
X115459Y479746D01*
X115132Y477266D01*
X115459Y474786D01*
X116416Y472475D01*
X117939Y470490D01*
X119923Y468968D01*
X122234Y468010D01*
X124714Y467684D01*
X127194Y468010D01*
X129505Y468968D01*
X131489Y470490D01*
X133012Y472475D01*
X133969Y474786D01*
X134296Y477266D01*
X133969Y479746D01*
X133012Y482057D01*
X131489Y484041D01*
X129505Y485564D01*
X127194Y486521D01*
X124714Y486848D01*
D02*
G37*
G36*
X175514D02*
X173034Y486521D01*
X170723Y485564D01*
X168739Y484041D01*
X167216Y482057D01*
X166259Y479746D01*
X165932Y477266D01*
X166259Y474786D01*
X167216Y472475D01*
X168739Y470490D01*
X170723Y468968D01*
X173034Y468010D01*
X175514Y467684D01*
X177994Y468010D01*
X180305Y468968D01*
X182290Y470490D01*
X183812Y472475D01*
X184769Y474786D01*
X185096Y477266D01*
X184769Y479746D01*
X183812Y482057D01*
X182290Y484041D01*
X180305Y485564D01*
X177994Y486521D01*
X175514Y486848D01*
D02*
G37*
%LPD*%
G36*
X215420Y62689D02*
X216461Y62290D01*
Y57000D01*
X216616Y56220D01*
X216662Y56151D01*
X207099Y46588D01*
X134539D01*
Y49500D01*
X134431Y50044D01*
X135004Y50628D01*
X135460Y50884D01*
X135644Y50761D01*
X137400Y50412D01*
X201000D01*
X202756Y50761D01*
X204244Y51756D01*
X215191Y62702D01*
X215420Y62689D01*
D02*
G37*
G36*
X411902Y507888D02*
Y484634D01*
X410632Y484239D01*
X408905Y485564D01*
X406594Y486521D01*
X404114Y486848D01*
X401634Y486521D01*
X399323Y485564D01*
X397982Y484535D01*
X396712Y485161D01*
Y511682D01*
X408108D01*
X411902Y507888D01*
D02*
G37*
G36*
Y469898D02*
Y441967D01*
X410729Y441481D01*
X405605Y446605D01*
X403951Y447710D01*
X403039Y447891D01*
Y448000D01*
X402884Y448780D01*
X402442Y449442D01*
X401780Y449884D01*
X401000Y450039D01*
X397098D01*
Y469074D01*
X398368Y469701D01*
X399323Y468968D01*
X401634Y468010D01*
X404114Y467684D01*
X406594Y468010D01*
X408905Y468968D01*
X410632Y470293D01*
X411902Y469898D01*
D02*
G37*
D10*
X147500Y250000D02*
D03*
X163700D02*
D03*
X213700Y422500D02*
D03*
X197500D02*
D03*
X590000Y240000D02*
D03*
X606200D02*
D03*
X508800Y195000D02*
D03*
X525000D02*
D03*
X543800D02*
D03*
X560000D02*
D03*
X371200Y375000D02*
D03*
X355000D02*
D03*
X266300Y262500D02*
D03*
X282500D02*
D03*
X202500D02*
D03*
X218700D02*
D03*
X193950Y238000D02*
D03*
X210150D02*
D03*
X83950Y236000D02*
D03*
X100150D02*
D03*
X201150Y101000D02*
D03*
X184950D02*
D03*
X91150Y99000D02*
D03*
X74950D02*
D03*
D11*
X165000Y266300D02*
D03*
Y282500D02*
D03*
X147500D02*
D03*
Y266300D02*
D03*
X162500Y298800D02*
D03*
Y315000D02*
D03*
X147500Y298800D02*
D03*
Y315000D02*
D03*
X147500Y330000D02*
D03*
Y346200D02*
D03*
X162500Y347500D02*
D03*
Y363700D02*
D03*
X147500Y378700D02*
D03*
Y362500D02*
D03*
X530000Y300000D02*
D03*
Y283800D02*
D03*
X515000D02*
D03*
Y300000D02*
D03*
X485000Y211200D02*
D03*
Y195000D02*
D03*
X485000Y243200D02*
D03*
Y227000D02*
D03*
X400000Y346200D02*
D03*
Y330000D02*
D03*
X385000Y346200D02*
D03*
Y330000D02*
D03*
X317500Y368800D02*
D03*
Y385000D02*
D03*
X430000Y300000D02*
D03*
Y283800D02*
D03*
X415000D02*
D03*
Y300000D02*
D03*
X398000Y300200D02*
D03*
Y284000D02*
D03*
X178950Y198000D02*
D03*
Y214200D02*
D03*
X163950D02*
D03*
Y198000D02*
D03*
Y166800D02*
D03*
Y183000D02*
D03*
X68950Y196000D02*
D03*
Y212200D02*
D03*
X53950D02*
D03*
Y196000D02*
D03*
Y164800D02*
D03*
Y181000D02*
D03*
X227500Y422500D02*
D03*
Y438700D02*
D03*
X245000D02*
D03*
Y422500D02*
D03*
X349000Y312000D02*
D03*
Y328200D02*
D03*
X331500Y312000D02*
D03*
Y328200D02*
D03*
D12*
X202500Y395250D02*
D03*
X207500D02*
D03*
X212500D02*
D03*
X217500D02*
D03*
X222500D02*
D03*
X227500D02*
D03*
X232500D02*
D03*
X237500D02*
D03*
X242500D02*
D03*
X247500D02*
D03*
X252500D02*
D03*
X257500D02*
D03*
X262500D02*
D03*
X267500D02*
D03*
X272500D02*
D03*
X277500D02*
D03*
Y284750D02*
D03*
X272500D02*
D03*
X267500D02*
D03*
X262500D02*
D03*
X257500D02*
D03*
X252500D02*
D03*
X247500D02*
D03*
X242500D02*
D03*
X237500D02*
D03*
X232500D02*
D03*
X227500D02*
D03*
X222500D02*
D03*
X217500D02*
D03*
X212500D02*
D03*
X207500D02*
D03*
X202500D02*
D03*
D13*
X295250Y377500D02*
D03*
Y372500D02*
D03*
Y367500D02*
D03*
Y362500D02*
D03*
Y357500D02*
D03*
Y352500D02*
D03*
Y347500D02*
D03*
Y342500D02*
D03*
Y337500D02*
D03*
Y332500D02*
D03*
Y327500D02*
D03*
Y322500D02*
D03*
Y317500D02*
D03*
Y312500D02*
D03*
Y307500D02*
D03*
Y302500D02*
D03*
X184750D02*
D03*
Y307500D02*
D03*
Y312500D02*
D03*
Y317500D02*
D03*
Y322500D02*
D03*
Y327500D02*
D03*
Y332500D02*
D03*
Y337500D02*
D03*
Y342500D02*
D03*
Y347500D02*
D03*
Y352500D02*
D03*
Y357500D02*
D03*
Y362500D02*
D03*
Y367500D02*
D03*
Y372500D02*
D03*
Y377500D02*
D03*
D14*
X425000Y420000D02*
D03*
X485000D02*
D03*
D15*
X389000Y397000D02*
D03*
Y420000D02*
D03*
Y443000D02*
D03*
D16*
X331000Y420000D02*
D03*
D17*
X520000Y372500D02*
D03*
Y327500D02*
D03*
D18*
X575000Y353000D02*
D03*
D19*
X597800Y290500D02*
D03*
X552200D02*
D03*
D20*
X511000Y254050D02*
D03*
Y241350D02*
D03*
Y228650D02*
D03*
Y215950D02*
D03*
X559000Y254050D02*
D03*
Y241350D02*
D03*
Y228650D02*
D03*
Y215950D02*
D03*
D21*
X538000Y155000D02*
D03*
X512000Y90000D02*
D03*
X538000D02*
D03*
X507000Y155000D02*
D03*
D22*
X596000D02*
D03*
X454000Y90000D02*
D03*
X596000D02*
D03*
X449000Y155000D02*
D03*
D23*
X450000Y301500D02*
D03*
Y295000D02*
D03*
Y288500D02*
D03*
Y282000D02*
D03*
X494000D02*
D03*
Y288500D02*
D03*
Y295000D02*
D03*
Y301500D02*
D03*
D24*
X293000Y89000D02*
D03*
D25*
X299500D02*
D03*
X306000D02*
D03*
X312500D02*
D03*
X319000D02*
D03*
X325500D02*
D03*
X332000D02*
D03*
X338500D02*
D03*
X345000D02*
D03*
X351500D02*
D03*
X358000D02*
D03*
X364500D02*
D03*
X293000Y165000D02*
D03*
X299500D02*
D03*
X306000D02*
D03*
X312500D02*
D03*
X319000D02*
D03*
X325500D02*
D03*
X332000D02*
D03*
X338500D02*
D03*
X345000D02*
D03*
X351500D02*
D03*
X358000D02*
D03*
X364500D02*
D03*
D26*
X294000Y238000D02*
D03*
Y223000D02*
D03*
X276500Y238000D02*
D03*
Y223000D02*
D03*
X259000Y238000D02*
D03*
Y223000D02*
D03*
D27*
X294000Y190500D02*
D03*
Y205500D02*
D03*
X276500Y190500D02*
D03*
Y205500D02*
D03*
X259000Y190500D02*
D03*
Y205500D02*
D03*
D28*
X233950Y227986D02*
D03*
Y198014D02*
D03*
X123950Y225986D02*
D03*
Y196014D02*
D03*
D29*
X213450Y219500D02*
D03*
X194450D02*
D03*
X203950Y196500D02*
D03*
X103450Y217500D02*
D03*
X84450D02*
D03*
X93950Y194500D02*
D03*
D30*
X185900Y122000D02*
D03*
X198600D02*
D03*
X211300D02*
D03*
X224000D02*
D03*
X185900Y170000D02*
D03*
X198600D02*
D03*
X211300D02*
D03*
X224000D02*
D03*
X75900Y120000D02*
D03*
X88600D02*
D03*
X101300D02*
D03*
X114000D02*
D03*
X75900Y168000D02*
D03*
X88600D02*
D03*
X101300D02*
D03*
X114000D02*
D03*
D31*
X54950Y120000D02*
D03*
Y149000D02*
D03*
X164950Y122000D02*
D03*
Y151000D02*
D03*
D32*
X225000Y64000D02*
D03*
X254000D02*
D03*
X115000Y95000D02*
D03*
X144000D02*
D03*
D33*
X178950Y73000D02*
D03*
Y14610D02*
D03*
X68950Y71000D02*
D03*
Y12610D02*
D03*
D34*
X130000Y270000D02*
D03*
X70000D02*
D03*
D35*
X485000Y345000D02*
D03*
X426610D02*
D03*
D36*
X126300Y363700D02*
X162500D01*
X175000Y276000D02*
Y292750D01*
X325000Y248000D02*
X338500Y234500D01*
X176000Y243000D02*
X179000Y246000D01*
X311000Y195000D02*
Y297000D01*
X494000Y301500D02*
X528500D01*
X494000Y282000D02*
X528200D01*
X115000Y375000D02*
X126300Y363700D01*
X168700Y357500D02*
X184750D01*
X162500Y363700D02*
X168700Y357500D01*
X167500Y352500D02*
X184750D01*
X162500Y347500D02*
X167500Y352500D01*
X115000Y327000D02*
X134200Y346200D01*
X147500D01*
X161200D01*
X162500Y347500D01*
X147500Y315000D02*
X162500D01*
X165000Y317500D02*
X184750D01*
X162500Y315000D02*
X165000Y317500D01*
X147500Y282500D02*
X165000D01*
X171000Y288500D01*
Y307000D01*
X357000Y304000D02*
Y340000D01*
X202500Y347500D02*
X203000Y347000D01*
X184750Y347500D02*
X202500D01*
X494000Y295000D02*
X505000D01*
X508000Y292000D01*
X550700D01*
X552200Y290500D01*
X528500Y301500D02*
X530000Y300000D01*
X540000Y310000D01*
X578300D01*
X597800Y290500D01*
X528200Y282000D02*
X530000Y283800D01*
X319000Y156000D02*
Y165000D01*
X325500D01*
X262500Y395250D02*
Y405500D01*
X261000Y407000D02*
X262500Y405500D01*
X261000Y407000D02*
Y408000D01*
X267500Y411500D02*
X267999Y411999D01*
X267500Y395250D02*
Y411500D01*
X83950Y236000D02*
Y270950D01*
X130000Y317000D01*
X169000Y334000D02*
X170500Y332500D01*
X184750D01*
X184000Y326750D02*
X184750Y327500D01*
X176490Y326750D02*
X184000D01*
X172740Y323000D02*
X176490Y326750D01*
X101300Y120000D02*
Y144300D01*
X105000Y148000D01*
X184750Y312500D02*
X194500D01*
X200000Y318000D01*
X184750Y307500D02*
X200500D01*
X202000Y306000D01*
Y298000D02*
Y306000D01*
X211000Y122300D02*
Y142000D01*
Y122300D02*
X211300Y122000D01*
X231000Y371000D02*
X232500Y372500D01*
Y395250D01*
X227500Y375500D02*
Y395250D01*
X223000Y371000D02*
X227500Y375500D01*
X139000Y320000D02*
X142000Y323000D01*
X172740D01*
X175000Y292750D02*
X184750Y302500D01*
X174000Y276000D02*
X175000D01*
X114000Y291000D02*
X139000Y316000D01*
Y320000D01*
X127000Y295000D02*
X127000D01*
X186000Y282000D02*
X202000Y298000D01*
X186000Y277000D02*
Y282000D01*
X202500Y280500D02*
Y284750D01*
X188000Y266000D02*
X202500Y280500D01*
X178000Y266000D02*
X188000D01*
X114000Y255000D02*
Y291000D01*
X94000Y273000D02*
X108000Y259000D01*
X94000Y273000D02*
X94000D01*
X10000Y357000D02*
Y380400D01*
X-10000Y400400D02*
X10000Y380400D01*
X282000Y306000D02*
X283500Y307500D01*
X295250D01*
Y312500D02*
X304500D01*
X282000Y301000D02*
Y306000D01*
X299500Y165000D02*
Y177500D01*
X282000Y301000D02*
X306000Y277000D01*
X312500Y165000D02*
Y177500D01*
X295250Y302500D02*
X305500D01*
X299500Y177500D02*
X302000Y180000D01*
Y274000D01*
X306000Y165000D02*
Y277000D01*
X319000Y156000D02*
X330000Y145000D01*
X342000Y152000D02*
X345000Y155000D01*
Y165000D01*
X338500D02*
Y234500D01*
X267000Y273000D02*
X267500Y273500D01*
Y284750D01*
X351500Y165000D02*
Y231500D01*
X308000Y317000D02*
Y345000D01*
X305500Y347500D02*
X308000Y345000D01*
X295250Y347500D02*
X305500D01*
X230000Y241000D02*
Y241435D01*
X237000Y284250D02*
X237500Y284750D01*
X242500Y244500D02*
Y284750D01*
X400000Y143000D02*
X420000Y163000D01*
Y241000D01*
X357000Y304000D02*
X420000Y241000D01*
X380000Y146000D02*
X390000Y156000D01*
X405000D01*
X414000Y165000D01*
Y229000D01*
X400000Y243000D02*
X414000Y229000D01*
X237999Y240000D02*
X242500Y244500D01*
X460000Y232000D02*
X473800D01*
X485000Y243200D01*
X473000Y207000D02*
X480800D01*
X485000Y211200D01*
X504000Y181000D02*
X511000D01*
X525000Y195000D01*
X543800D01*
X485000Y211200D02*
X502450Y228650D01*
X511000D01*
X485000Y243200D02*
X509150D01*
X511000Y241350D01*
X269000Y307000D02*
X302000Y274000D01*
X269000Y307000D02*
Y336000D01*
X275500Y342500D01*
X295250D01*
X281278Y322500D02*
X295250D01*
X278000Y320000D02*
X278778D01*
X281278Y322500D01*
X278500Y327500D02*
X295250D01*
X278000Y327000D02*
X278500Y327500D01*
X230000Y241435D02*
X237000Y248435D01*
X223000Y242000D02*
X232500Y251500D01*
X237000Y248435D02*
Y284250D01*
X232500Y251500D02*
Y284750D01*
X227000Y252000D02*
Y269000D01*
X223000Y248000D02*
X227000Y252000D01*
X208541Y248000D02*
X223000D01*
X202000Y241459D02*
X208541Y248000D01*
X202000Y233000D02*
Y241459D01*
X196000Y227000D02*
X202000Y233000D01*
X155000Y227000D02*
X196000D01*
X136000Y208000D02*
X155000Y227000D01*
X117693Y208000D02*
X136000D01*
X103785Y154000D02*
X107300Y157515D01*
X97000Y154000D02*
X103785D01*
X79000Y136000D02*
X97000Y154000D01*
X36000Y136000D02*
X79000D01*
X15000Y115000D02*
X36000Y136000D01*
X200000Y246000D02*
X210000Y256000D01*
X194778Y246000D02*
X200000D01*
X194278Y245500D02*
X194778Y246000D01*
X189722Y245500D02*
X194278D01*
X189222Y246000D02*
X189722Y245500D01*
X179000Y246000D02*
X189222D01*
X114000Y255000D02*
X131000Y238000D01*
X193950D01*
X176000Y243000D02*
Y244000D01*
X305500Y302500D02*
X311000Y297000D01*
Y195000D02*
X312000D01*
X325000Y248000D02*
Y248000D01*
Y248000D02*
X326000Y247000D01*
X304500Y312500D02*
X320000Y297000D01*
X312500Y177500D02*
X320000Y185000D01*
Y297000D01*
X308000Y317000D02*
X324000Y301000D01*
Y259000D02*
X351500Y231500D01*
X324000Y259000D02*
Y301000D01*
X286500Y317500D02*
X295250D01*
X280000Y311000D02*
X286500Y317500D01*
X276000Y311000D02*
X280000D01*
X295000Y239000D02*
Y273000D01*
X294000Y238000D02*
X295000Y239000D01*
X259000Y238000D02*
Y252000D01*
X254000Y257000D02*
X259000Y252000D01*
X248000Y258778D02*
X262222Y273000D01*
X248000Y243000D02*
Y258778D01*
X262222Y273000D02*
X267000D01*
X184750Y342500D02*
X198500D01*
X201000Y340000D01*
X221000D01*
X184750Y337500D02*
X196500D01*
X199000Y335000D01*
X214000D01*
X243000Y306000D01*
X221000Y340000D02*
X259000Y302000D01*
X274000Y256000D02*
X276500Y253500D01*
Y238000D02*
Y253500D01*
X330000Y145000D02*
X331000D01*
X110000Y209000D02*
Y237000D01*
X103000Y202000D02*
X110000Y209000D01*
X103000Y198000D02*
Y202000D01*
X107300Y157515D02*
Y194522D01*
X108500Y195722D01*
Y198807D01*
X117693Y208000D01*
X59000Y388200D02*
Y390000D01*
X45400Y374600D02*
X59000Y388200D01*
X35000Y374600D02*
X45400D01*
X147500Y250000D02*
Y266300D01*
X130000Y270000D02*
X143800D01*
X147500Y266300D01*
X127000Y295000D02*
X138000Y284000D01*
X139000D01*
D37*
X364500Y135500D02*
Y165000D01*
X364000Y135000D02*
X364500Y135500D01*
X358000Y77000D02*
Y89000D01*
Y77000D02*
X361000Y74000D01*
X364500Y77500D02*
Y89000D01*
X361000Y74000D02*
X364500Y77500D01*
X293000Y76500D02*
Y89000D01*
Y76500D02*
X296000Y73500D01*
X299500Y77000D02*
Y89000D01*
X296000Y73500D02*
X299500Y77000D01*
X319000Y78000D02*
Y89000D01*
Y78000D02*
X322000Y75000D01*
X325500Y78500D02*
Y89000D01*
X322000Y75000D02*
X325500Y78500D01*
X332000Y78000D02*
Y89000D01*
Y78000D02*
X335000Y75000D01*
X338500Y78500D02*
Y89000D01*
X335000Y75000D02*
X338500Y78500D01*
X93950Y194500D02*
X101300Y187150D01*
Y168000D02*
Y187150D01*
X211300Y170000D02*
Y189150D01*
X203950Y196500D02*
X211300Y189150D01*
X358000Y136000D02*
Y165000D01*
X358000Y136000D02*
X358000Y136000D01*
X364000Y135000D02*
Y136000D01*
X293000Y137000D02*
Y165000D01*
Y137000D02*
X293000Y137000D01*
D38*
X69475Y195475D02*
X75900Y189050D01*
Y168000D02*
Y189050D01*
X53950Y164800D02*
X72700D01*
X75900Y168000D01*
X54950Y120000D02*
X75900D01*
X54950Y106050D02*
Y120000D01*
Y106050D02*
X62000Y99000D01*
X74950D01*
X74950Y99000D01*
Y77000D02*
Y99000D01*
X68950Y71000D02*
X74950Y77000D01*
X88600Y101550D02*
X91150Y99000D01*
X88600Y101550D02*
Y120000D01*
X164950Y122000D02*
X185900D01*
X198600Y103550D02*
X201150Y101000D01*
X198600Y103550D02*
Y122000D01*
X163950Y166800D02*
X182700D01*
X185900Y170000D01*
X178950Y198000D02*
X185900Y191050D01*
Y170000D02*
Y191050D01*
X224000Y170000D02*
Y188064D01*
X233950Y198014D01*
X178950Y73000D02*
X184950Y79000D01*
Y101000D01*
X164950Y108050D02*
X172000Y101000D01*
X164950Y108050D02*
Y122000D01*
X172000Y101000D02*
X184950D01*
X184950Y101000D01*
X114000Y186064D02*
X123950Y196014D01*
X114000Y168000D02*
Y186064D01*
X68950Y12610D02*
X96560Y-15000D01*
X125000D01*
X96000Y14000D02*
X125000Y-15000D01*
X96000Y14000D02*
Y76000D01*
X115000Y95000D01*
X118000Y83000D02*
X126000D01*
X129000Y86000D01*
Y136000D01*
X114000Y151000D02*
X129000Y136000D01*
X114000Y151000D02*
Y168000D01*
X152390Y14610D02*
X178950D01*
X125000Y42000D02*
X152390Y14610D01*
X125000Y67400D02*
X137400Y55000D01*
X125000Y42000D02*
X209000D01*
X225000Y58000D01*
X137400Y55000D02*
X201000D01*
X212000Y66000D01*
Y82000D01*
X235000Y105000D01*
Y138000D01*
X224000Y149000D02*
X235000Y138000D01*
X224000Y149000D02*
Y170000D01*
X224000Y170000D01*
X107000Y28400D02*
X125000Y10400D01*
X107000Y28400D02*
Y72000D01*
X118000Y83000D01*
X373000Y420000D02*
X389000D01*
X370000Y417000D02*
X373000Y420000D01*
X370000Y376200D02*
Y417000D01*
X361200Y385000D02*
X370000Y376200D01*
X371200Y375000D01*
X317500Y385000D02*
Y391500D01*
X270300Y438700D02*
X317500Y391500D01*
X245000Y438700D02*
X270300D01*
X245000D02*
Y442000D01*
X238000Y449000D02*
X245000Y442000D01*
X204400Y449000D02*
X238000D01*
X200400Y445000D02*
X204400Y449000D01*
X200400Y445000D02*
Y451600D01*
X191000Y461000D02*
X200400Y451600D01*
X18000Y456000D02*
X23000Y461000D01*
X-7000Y456000D02*
X18000D01*
X-26000Y437000D02*
X-7000Y456000D01*
X-26000Y355000D02*
Y437000D01*
Y355000D02*
X-20000Y349000D01*
X-10600D01*
X-10000Y349600D01*
X34600D01*
X35000Y349200D01*
X23000Y461000D02*
X185000D01*
X191000D01*
X339000Y367000D02*
Y385000D01*
X327000Y355000D02*
X339000Y367000D01*
X317500Y385000D02*
X339000D01*
X361200D01*
X588650Y241350D02*
X590000Y240000D01*
X559000Y241350D02*
X588650D01*
X559000D02*
Y254050D01*
X156800Y166800D02*
X163950D01*
X144000Y154000D02*
X156800Y166800D01*
X144000Y138000D02*
Y154000D01*
Y199000D01*
D39*
X398000Y283000D02*
X449000D01*
X178950Y211750D02*
X198250D01*
X68950Y209750D02*
X88250D01*
X88600Y168000D02*
Y183400D01*
X83000Y189000D02*
X88600Y183400D01*
X83000Y189000D02*
Y198000D01*
X77000Y204000D02*
X83000Y198000D01*
X56000Y204000D02*
X77000D01*
X53950Y206050D02*
X56000Y204000D01*
X53950Y206050D02*
Y212200D01*
X100150Y236000D02*
X103450Y232700D01*
Y217500D02*
Y232700D01*
X68950Y209750D02*
Y212200D01*
X88250Y209750D02*
X94000Y204000D01*
Y194550D02*
Y204000D01*
X93950Y194500D02*
X94000Y194550D01*
X210150Y238000D02*
X213450Y234700D01*
Y219500D02*
Y234700D01*
X178950Y211750D02*
Y214200D01*
X204000Y196550D02*
Y206000D01*
X203950Y196500D02*
X204000Y196550D01*
X163950Y212050D02*
Y214200D01*
X196000Y186000D02*
Y198000D01*
Y186000D02*
X198600Y183400D01*
Y170000D02*
Y183400D01*
X174462Y347500D02*
X184750D01*
X197500Y422500D02*
X202500Y417500D01*
Y395250D02*
Y417500D01*
X222500Y395250D02*
Y417500D01*
X227500Y422500D01*
X245000D01*
X295250Y377500D02*
X310000D01*
X317500Y385000D01*
X295250Y372500D02*
X313800D01*
X317500Y368800D01*
X207500Y395250D02*
Y416300D01*
X213700Y422500D01*
X212500Y268700D02*
Y284750D01*
Y268700D02*
X218700Y262500D01*
X207500Y267500D02*
Y284750D01*
X202500Y262500D02*
X207500Y267500D01*
X272500Y268700D02*
Y284750D01*
X266300Y262500D02*
X272500Y268700D01*
X277500Y267500D02*
Y284750D01*
Y267500D02*
X282500Y262500D01*
X259000Y205500D02*
Y223000D01*
X276500Y205500D02*
Y223000D01*
X294000Y205500D02*
Y223000D01*
X197500Y422500D02*
Y442100D01*
X200400Y445000D01*
X184750Y377500D02*
X185750Y378500D01*
Y450453D01*
X185000Y451203D02*
X185750Y450453D01*
X185000Y451203D02*
Y461000D01*
X277500Y395250D02*
X296750D01*
X300000Y392000D01*
X349000Y328200D02*
Y340000D01*
Y269000D02*
Y312000D01*
Y269000D02*
X400000Y218000D01*
X331500Y278500D02*
Y312000D01*
Y278500D02*
X386000Y224000D01*
Y182000D02*
Y224000D01*
Y182000D02*
X400000Y168000D01*
X218700Y256300D02*
Y262500D01*
Y256300D02*
X219000Y256000D01*
X282500Y255500D02*
Y262500D01*
X282000Y255000D02*
X282500Y255500D01*
X450000Y301500D02*
X461500D01*
X485000Y325000D01*
Y345000D01*
X398000Y283000D02*
Y284000D01*
X449000Y283000D02*
X450000Y282000D01*
X398000Y300200D02*
X414800D01*
X415000Y300000D01*
X426610Y311610D01*
Y345000D01*
X425410Y346200D02*
X426610Y345000D01*
X385000Y346200D02*
X400000D01*
X425410D01*
X166618Y339750D02*
X166712D01*
X174462Y347500D01*
X160000Y333132D02*
X166618Y339750D01*
X160000Y331000D02*
Y333132D01*
X331500Y328200D02*
Y341500D01*
X295250Y367500D02*
X305500D01*
X331500Y341500D01*
X187000Y207000D02*
X196000Y198000D01*
X198250Y211750D02*
X204000Y206000D01*
X163950Y212050D02*
X169000Y207000D01*
X187000D01*
D40*
X245000Y5000D02*
Y22500D01*
X296000Y73500D01*
X295000Y5000D02*
X322000Y32000D01*
Y75000D01*
X355000Y5000D02*
Y10000D01*
X335000Y30000D02*
X355000Y10000D01*
X335000Y30000D02*
Y75000D01*
X361000Y49000D02*
X405000Y5000D01*
X361000Y49000D02*
Y74000D01*
X559000Y254050D02*
X561350D01*
X597800Y290500D01*
X549500Y327500D02*
X575000Y353000D01*
X520000Y327500D02*
X549500D01*
X485000Y345000D02*
X502500Y327500D01*
X520000D01*
X426610Y345000D02*
Y418390D01*
X425000Y420000D02*
X426610Y418390D01*
X48514Y502666D02*
X73914D01*
Y502914D01*
X88166Y517166D01*
X392000D01*
X542950Y254050D02*
X559000D01*
D41*
X508000Y156000D02*
Y163000D01*
X507000Y155000D02*
X508000Y156000D01*
X163700Y250000D02*
X164700Y251000D01*
X192000D01*
X496000Y200950D02*
X511000Y215950D01*
X496000Y166000D02*
X507000Y155000D01*
X496000Y166000D02*
Y200950D01*
D42*
X391614Y516780D02*
X392000Y517166D01*
X391614Y471702D02*
Y516780D01*
Y471702D02*
X392000Y471316D01*
Y446000D02*
Y471316D01*
X389000Y443000D02*
X392000Y446000D01*
X416614Y428386D02*
X417000Y428772D01*
Y510000D01*
X410220Y516780D02*
X417000Y510000D01*
X391614Y516780D02*
X410220D01*
X389000Y443000D02*
X402000D01*
X416614Y428386D02*
X425000Y420000D01*
X402000Y443000D02*
X416614Y428386D01*
X0Y89600D02*
Y147000D01*
X6000Y153000D01*
X13000D01*
X24000Y164000D01*
Y302000D01*
X70000Y348000D01*
X-15000Y89600D02*
X0D01*
X15000D01*
X70000Y348000D02*
Y438000D01*
X60000Y448000D02*
X70000Y438000D01*
D43*
X355000Y5000D02*
D03*
X405000D02*
D03*
X245000D02*
D03*
X295000D02*
D03*
X465000D02*
D03*
X515000D02*
D03*
D44*
X115000Y375000D02*
D03*
Y327000D02*
D03*
X400000Y168000D02*
D03*
Y243000D02*
D03*
Y218000D02*
D03*
Y193000D02*
D03*
Y143000D02*
D03*
D45*
X35000Y349200D02*
D03*
X-10000Y349600D02*
D03*
X125000Y42000D02*
D03*
Y-15000D02*
D03*
X15000Y89600D02*
D03*
X-15000D02*
D03*
D46*
X35000Y374600D02*
D03*
Y400000D02*
D03*
Y425400D02*
D03*
X-10000Y375000D02*
D03*
Y400400D02*
D03*
Y425800D02*
D03*
X175000Y445000D02*
D03*
X149600D02*
D03*
X124200D02*
D03*
X125000Y67400D02*
D03*
Y10400D02*
D03*
X15000Y140400D02*
D03*
Y115000D02*
D03*
X-15000Y140400D02*
D03*
Y115000D02*
D03*
X48514Y502666D02*
D03*
X73914Y477266D02*
D03*
Y502666D02*
D03*
X99314Y477266D02*
D03*
Y502666D02*
D03*
X124714Y477266D02*
D03*
Y502666D02*
D03*
X150114Y477266D02*
D03*
Y502666D02*
D03*
X175514Y477266D02*
D03*
Y502666D02*
D03*
X200914Y477266D02*
D03*
Y502666D02*
D03*
X226314Y477266D02*
D03*
Y502666D02*
D03*
X251714Y477266D02*
D03*
Y502666D02*
D03*
X277114Y477266D02*
D03*
Y502666D02*
D03*
X302514Y477266D02*
D03*
Y502666D02*
D03*
X327914Y477266D02*
D03*
Y502666D02*
D03*
X353314Y477266D02*
D03*
Y502666D02*
D03*
X378714Y477266D02*
D03*
Y502666D02*
D03*
X404114Y477266D02*
D03*
Y502666D02*
D03*
X429514Y477266D02*
D03*
Y502666D02*
D03*
X454914Y477266D02*
D03*
Y502666D02*
D03*
X480314Y477266D02*
D03*
Y502666D02*
D03*
X505714Y477266D02*
D03*
Y502666D02*
D03*
X531114Y477266D02*
D03*
Y502666D02*
D03*
D47*
X200400Y445000D02*
D03*
X48514Y477266D02*
D03*
D48*
X454000Y200000D02*
D03*
X445000D02*
D03*
X436000D02*
D03*
X218000Y439000D02*
D03*
X317000Y365000D02*
D03*
X348000Y434000D02*
D03*
Y426000D02*
D03*
Y417000D02*
D03*
Y408000D02*
D03*
X475000Y431000D02*
D03*
X484000D02*
D03*
X493000D02*
D03*
X474000Y409000D02*
D03*
X484000D02*
D03*
X493000D02*
D03*
X587000Y165000D02*
D03*
X595000D02*
D03*
X603000D02*
D03*
X587000Y146000D02*
D03*
X596000D02*
D03*
X604000D02*
D03*
X588000Y99000D02*
D03*
X596000D02*
D03*
X604000D02*
D03*
X588000Y80000D02*
D03*
X596000D02*
D03*
X604000Y79000D02*
D03*
X441000Y165000D02*
D03*
X449000D02*
D03*
X457000D02*
D03*
X441000Y145000D02*
D03*
X449000D02*
D03*
X457000D02*
D03*
X442000Y100000D02*
D03*
X450000D02*
D03*
X459000D02*
D03*
X441000Y80000D02*
D03*
X449000D02*
D03*
X458000D02*
D03*
X302000Y109000D02*
D03*
X311000D02*
D03*
X343000D02*
D03*
X353000D02*
D03*
X247000Y79000D02*
D03*
X257000D02*
D03*
X139000Y109000D02*
D03*
X148000D02*
D03*
X118000Y133000D02*
D03*
X119000Y126000D02*
D03*
X214000Y100000D02*
D03*
X221000Y106000D02*
D03*
X158000Y140000D02*
D03*
X168000D02*
D03*
X42000Y154000D02*
D03*
Y145000D02*
D03*
X43000Y196000D02*
D03*
Y181000D02*
D03*
X155000Y182000D02*
D03*
X154000Y201000D02*
D03*
X153000Y298000D02*
D03*
X152000Y329000D02*
D03*
X157000Y379000D02*
D03*
X265000Y262000D02*
D03*
X201000D02*
D03*
X226000Y217000D02*
D03*
X240000D02*
D03*
X259000Y179000D02*
D03*
X277000D02*
D03*
X293000D02*
D03*
X156000Y274000D02*
D03*
D49*
X0Y0D02*
D03*
X580000Y-0D02*
D03*
Y495000D02*
D03*
X0D02*
D03*
D50*
X171000Y307000D02*
D03*
X160000Y331000D02*
D03*
X300000Y392000D02*
D03*
X349000Y340000D02*
D03*
X357000D02*
D03*
X203000Y347000D02*
D03*
X327000Y355000D02*
D03*
X162000Y299000D02*
D03*
X219000Y256000D02*
D03*
X282000Y255000D02*
D03*
X508000Y163000D02*
D03*
X261000Y408000D02*
D03*
X267999Y411999D02*
D03*
X130000Y317000D02*
D03*
X169000Y334000D02*
D03*
X105000Y148000D02*
D03*
X200000Y318000D02*
D03*
X211000Y142000D02*
D03*
X231000Y371000D02*
D03*
X223000D02*
D03*
X174000Y276000D02*
D03*
X127000Y295000D02*
D03*
X192000Y251000D02*
D03*
X186000Y277000D02*
D03*
X178000Y266000D02*
D03*
X108000Y259000D02*
D03*
X94000Y273000D02*
D03*
X10000Y357000D02*
D03*
X312000Y195000D02*
D03*
X342000Y152000D02*
D03*
X223000Y242000D02*
D03*
X230000Y241000D02*
D03*
X248000Y243000D02*
D03*
X237999Y240000D02*
D03*
X460000Y232000D02*
D03*
X473000Y207000D02*
D03*
X504000Y181000D02*
D03*
X485000Y227000D02*
D03*
X278000Y320000D02*
D03*
Y327000D02*
D03*
X227000Y269000D02*
D03*
X210000Y256000D02*
D03*
X176000Y244000D02*
D03*
X326000Y247000D02*
D03*
X276000Y311000D02*
D03*
X295000Y273000D02*
D03*
X254000Y257000D02*
D03*
X243000Y306000D02*
D03*
X259000Y302000D02*
D03*
X274000Y256000D02*
D03*
X331000Y145000D02*
D03*
X379000D02*
D03*
X358000Y136000D02*
D03*
X364000D02*
D03*
X293000Y137000D02*
D03*
X110000Y237000D02*
D03*
X103000Y198000D02*
D03*
X59000Y390000D02*
D03*
X139000Y284000D02*
D03*
D51*
X536000Y263000D02*
D03*
D52*
X144000Y138000D02*
D03*
Y199000D02*
D03*
X68000Y194000D02*
D03*
X60000Y448000D02*
D03*
M02*
