G04 Layer_Physical_Order=2*
G04 Layer_Color=16711680*
%FSLAX44Y44*%
%MOMM*%
G71*
G01*
G75*
%ADD36C,0.2000*%
%ADD37C,0.3000*%
%ADD38C,0.5000*%
%ADD39C,0.2500*%
%ADD40C,1.0000*%
%ADD41C,0.4000*%
%ADD42C,0.6000*%
%ADD43C,3.0000*%
%ADD44C,1.7000*%
%ADD45R,1.5000X1.5000*%
%ADD46C,1.5000*%
%ADD47R,1.5000X1.5000*%
%ADD48C,0.6000*%
%ADD49C,6.2000*%
%ADD50C,0.5000*%
%ADD51C,2.0000*%
%ADD52C,1.0000*%
G36*
X570804Y526730D02*
X569771Y526482D01*
X564972Y524494D01*
X560543Y521780D01*
X556593Y518407D01*
X553220Y514457D01*
X550506Y510028D01*
X548518Y505229D01*
X547305Y500178D01*
X546898Y495000D01*
X547305Y489822D01*
X548518Y484771D01*
X550506Y479972D01*
X553220Y475543D01*
X556593Y471593D01*
X560543Y468220D01*
X564972Y465506D01*
X569771Y463518D01*
X574822Y462305D01*
X580000Y461898D01*
X585178Y462305D01*
X590229Y463518D01*
X595028Y465506D01*
X599457Y468220D01*
X603407Y471593D01*
X606780Y475543D01*
X609494Y479972D01*
X611482Y484771D01*
X612695Y489822D01*
X613102Y495000D01*
X612695Y500178D01*
X611482Y505229D01*
X609494Y510028D01*
X606780Y514457D01*
X604387Y517259D01*
X605321Y518121D01*
X607327Y516110D01*
X610113Y512471D01*
X612400Y508500D01*
X614149Y504264D01*
X615330Y499836D01*
X615923Y495291D01*
X615920Y493000D01*
Y3000D01*
X615923Y709D01*
X615330Y-3836D01*
X614149Y-8264D01*
X612400Y-12500D01*
X610676Y-15492D01*
X609535Y-14930D01*
X611482Y-10229D01*
X612695Y-5178D01*
X613102Y-0D01*
X612695Y5178D01*
X611482Y10229D01*
X609494Y15028D01*
X606780Y19457D01*
X603407Y23407D01*
X599457Y26780D01*
X595028Y29494D01*
X590229Y31482D01*
X585178Y32694D01*
X580000Y33102D01*
X574822Y32694D01*
X569771Y31482D01*
X564972Y29494D01*
X560543Y26780D01*
X556593Y23407D01*
X553220Y19457D01*
X550506Y15028D01*
X548518Y10229D01*
X547305Y5178D01*
X546898Y-0D01*
X547305Y-5178D01*
X548518Y-10229D01*
X550506Y-15028D01*
X553220Y-19457D01*
X556593Y-23407D01*
X560543Y-26780D01*
X564972Y-29494D01*
X567956Y-30730D01*
X567703Y-32000D01*
X12297D01*
X12044Y-30730D01*
X15028Y-29494D01*
X19457Y-26780D01*
X23407Y-23407D01*
X26780Y-19457D01*
X29494Y-15028D01*
X31482Y-10229D01*
X32694Y-5178D01*
X33102Y0D01*
X32694Y5178D01*
X31482Y10229D01*
X29494Y15028D01*
X26780Y19457D01*
X23407Y23407D01*
X19457Y26780D01*
X15028Y29494D01*
X10229Y31482D01*
X5178Y32694D01*
X0Y33102D01*
X-5178Y32694D01*
X-10229Y31482D01*
X-15028Y29494D01*
X-19457Y26780D01*
X-23407Y23407D01*
X-26780Y19457D01*
X-29494Y15028D01*
X-31482Y10229D01*
X-32694Y5178D01*
X-32730Y4727D01*
X-34000Y4777D01*
Y156000D01*
Y156796D01*
X-33391Y158266D01*
X-32266Y159391D01*
X-30796Y160000D01*
X10000D01*
X10975Y160096D01*
X12778Y160843D01*
X14157Y162222D01*
X14904Y164025D01*
X15000Y165000D01*
Y325000D01*
X14904Y325975D01*
X14157Y327778D01*
X12778Y329157D01*
X10975Y329904D01*
X10000Y330000D01*
X-30796D01*
X-32266Y330609D01*
X-33391Y331734D01*
X-34000Y333204D01*
Y334000D01*
Y490224D01*
X-32730Y490274D01*
X-32694Y489822D01*
X-31482Y484771D01*
X-29494Y479972D01*
X-26780Y475543D01*
X-23407Y471593D01*
X-19457Y468220D01*
X-15028Y465506D01*
X-10229Y463518D01*
X-5178Y462305D01*
X0Y461898D01*
X5178Y462305D01*
X10229Y463518D01*
X15028Y465506D01*
X19457Y468220D01*
X23407Y471593D01*
X26780Y475543D01*
X29494Y479972D01*
X31482Y484771D01*
X32694Y489822D01*
X33102Y495000D01*
X32694Y500178D01*
X31482Y505229D01*
X29494Y510028D01*
X26780Y514457D01*
X23407Y518407D01*
X19457Y521780D01*
X15028Y524494D01*
X10229Y526482D01*
X9196Y526730D01*
X9346Y528000D01*
X570654D01*
X570804Y526730D01*
D02*
G37*
%LPC*%
G36*
X245000Y22082D02*
X241667Y21754D01*
X238463Y20782D01*
X235510Y19203D01*
X232921Y17079D01*
X230797Y14490D01*
X229218Y11537D01*
X228246Y8332D01*
X227918Y5000D01*
X228246Y1667D01*
X229218Y-1537D01*
X230797Y-4490D01*
X232921Y-7079D01*
X235510Y-9203D01*
X238463Y-10782D01*
X241667Y-11754D01*
X245000Y-12082D01*
X248333Y-11754D01*
X251537Y-10782D01*
X254490Y-9203D01*
X257079Y-7079D01*
X259203Y-4490D01*
X260782Y-1537D01*
X261754Y1667D01*
X262082Y5000D01*
X261754Y8332D01*
X260782Y11537D01*
X259203Y14490D01*
X257079Y17079D01*
X254490Y19203D01*
X251537Y20782D01*
X248333Y21754D01*
X245000Y22082D01*
D02*
G37*
G36*
X-2500Y359139D02*
X-17500D01*
X-18280Y358984D01*
X-18942Y358542D01*
X-19384Y357880D01*
X-19539Y357100D01*
Y342100D01*
X-19384Y341320D01*
X-18942Y340658D01*
X-18280Y340216D01*
X-17500Y340061D01*
X-2500D01*
X-1720Y340216D01*
X-1058Y340658D01*
X-616Y341320D01*
X-461Y342100D01*
Y357100D01*
X-616Y357880D01*
X-1058Y358542D01*
X-1720Y358984D01*
X-2500Y359139D01*
D02*
G37*
G36*
X355000Y22082D02*
X351667Y21754D01*
X348463Y20782D01*
X345510Y19203D01*
X342921Y17079D01*
X340797Y14490D01*
X339218Y11537D01*
X338246Y8332D01*
X337918Y5000D01*
X338246Y1667D01*
X339218Y-1537D01*
X340797Y-4490D01*
X342921Y-7079D01*
X345510Y-9203D01*
X348463Y-10782D01*
X351667Y-11754D01*
X355000Y-12082D01*
X358333Y-11754D01*
X361537Y-10782D01*
X364490Y-9203D01*
X367079Y-7079D01*
X369203Y-4490D01*
X370782Y-1537D01*
X371754Y1667D01*
X372082Y5000D01*
X371754Y8332D01*
X370782Y11537D01*
X369203Y14490D01*
X367079Y17079D01*
X364490Y19203D01*
X361537Y20782D01*
X358333Y21754D01*
X355000Y22082D01*
D02*
G37*
G36*
X300778Y402059D02*
X300778Y402059D01*
X297000D01*
X295830Y401826D01*
X294837Y401163D01*
X294837Y401163D01*
X243733Y350059D01*
X206368D01*
X206244Y350244D01*
X204756Y351239D01*
X203000Y351588D01*
X201244Y351239D01*
X199756Y350244D01*
X198761Y348756D01*
X198412Y347000D01*
X198761Y345244D01*
X199756Y343756D01*
X201244Y342761D01*
X203000Y342412D01*
X204756Y342761D01*
X206244Y343756D01*
X206368Y343941D01*
X245000D01*
X245000Y343941D01*
X246171Y344174D01*
X247163Y344837D01*
X294188Y391862D01*
X295530Y391408D01*
X295761Y390244D01*
X296756Y388756D01*
X298244Y387761D01*
X299878Y387436D01*
X326525Y360789D01*
X326107Y359411D01*
X325244Y359239D01*
X323756Y358244D01*
X322761Y356756D01*
X322705Y356472D01*
X311116Y344884D01*
X310232Y343561D01*
X309922Y342000D01*
X309922Y342000D01*
Y278689D01*
X287607Y256375D01*
X286355Y256595D01*
X286220Y256784D01*
X285244Y258244D01*
X283756Y259239D01*
X282000Y259588D01*
X280244Y259239D01*
X278756Y258244D01*
X277570Y258756D01*
X277244Y259244D01*
X277059Y259368D01*
Y287000D01*
X277059Y287000D01*
X276826Y288171D01*
X276163Y289163D01*
X276163Y289163D01*
X263545Y301781D01*
X263588Y302000D01*
X263239Y303756D01*
X262244Y305244D01*
X260756Y306239D01*
X259000Y306588D01*
X257244Y306239D01*
X255756Y305244D01*
X254761Y303756D01*
X254412Y302000D01*
X254496Y301575D01*
X253486Y300144D01*
X253221Y300104D01*
X247545Y305781D01*
X247588Y306000D01*
X247239Y307756D01*
X246244Y309244D01*
X244756Y310239D01*
X243000Y310588D01*
X241244Y310239D01*
X239756Y309244D01*
X238761Y307756D01*
X238412Y306000D01*
X238761Y304244D01*
X239756Y302756D01*
X241244Y301761D01*
X243000Y301412D01*
X243219Y301455D01*
X250941Y293733D01*
Y260368D01*
X250756Y260244D01*
X249761Y258756D01*
X249412Y257000D01*
X249740Y255348D01*
X249708Y255043D01*
X249193Y254078D01*
X224501D01*
X223458Y255348D01*
X223588Y256000D01*
X223239Y257756D01*
X222244Y259244D01*
X220756Y260239D01*
X219000Y260588D01*
X217244Y260239D01*
X215756Y259244D01*
X215263Y258507D01*
X213972D01*
X213059Y259497D01*
Y291733D01*
X224768Y303442D01*
X225941Y302956D01*
Y273378D01*
X225244Y273239D01*
X223756Y272244D01*
X222761Y270756D01*
X222412Y269000D01*
X222761Y267244D01*
X223756Y265756D01*
X225244Y264761D01*
X227000Y264412D01*
X228756Y264761D01*
X230244Y265756D01*
X231239Y267244D01*
X231588Y269000D01*
X231516Y269365D01*
X231826Y269830D01*
X232059Y271000D01*
Y304733D01*
X244267Y316941D01*
X273669D01*
X274042Y316494D01*
X274078Y316273D01*
X273724Y314891D01*
X272756Y314244D01*
X271761Y312756D01*
X271412Y311000D01*
X271761Y309244D01*
X272756Y307756D01*
X274244Y306761D01*
X276000Y306412D01*
X276219Y306455D01*
X292941Y289733D01*
Y277036D01*
X291756Y276244D01*
X290761Y274756D01*
X290412Y273000D01*
X290761Y271244D01*
X291756Y269756D01*
X293244Y268761D01*
X295000Y268412D01*
X296756Y268761D01*
X298244Y269756D01*
X299239Y271244D01*
X299588Y273000D01*
X299239Y274756D01*
X299059Y275025D01*
Y291000D01*
X298826Y292171D01*
X298163Y293163D01*
X280545Y310781D01*
X280588Y311000D01*
X280239Y312756D01*
X279244Y314244D01*
X279106Y314337D01*
X279374Y315685D01*
X279756Y315761D01*
X281244Y316756D01*
X282239Y318244D01*
X282588Y320000D01*
X282239Y321756D01*
X281244Y323244D01*
Y323756D01*
X282239Y325244D01*
X282588Y327000D01*
X282239Y328756D01*
X281244Y330244D01*
X279756Y331239D01*
X278000Y331588D01*
X276244Y331239D01*
X274756Y330244D01*
X274632Y330059D01*
X244000D01*
X242829Y329826D01*
X241837Y329163D01*
X241837Y329163D01*
X207837Y295163D01*
X207174Y294170D01*
X206941Y293000D01*
X206941Y293000D01*
Y259368D01*
X206755Y259244D01*
X205761Y257755D01*
X205411Y256000D01*
X205641Y254848D01*
X204794Y253578D01*
X195690D01*
X195314Y254140D01*
Y280000D01*
X195061Y281268D01*
X194343Y282343D01*
X177343Y299343D01*
X177283Y299383D01*
X177122Y301018D01*
X178663Y302559D01*
X178663Y302559D01*
X179326Y303551D01*
X179559Y304722D01*
X179559Y304722D01*
Y311233D01*
X184267Y315941D01*
X195963D01*
X196756Y314756D01*
X198244Y313761D01*
X200000Y313412D01*
X201756Y313761D01*
X203244Y314756D01*
X204239Y316244D01*
X204588Y318000D01*
X204239Y319756D01*
X203244Y321244D01*
X201756Y322239D01*
X200000Y322588D01*
X198244Y322239D01*
X197975Y322059D01*
X183000D01*
X183000Y322059D01*
X181829Y321826D01*
X180837Y321163D01*
X180837Y321163D01*
X174337Y314663D01*
X173674Y313671D01*
X173441Y312500D01*
X173441Y312500D01*
Y312192D01*
X172171Y311355D01*
X171122Y311564D01*
X163314Y319373D01*
Y327859D01*
X164239Y329244D01*
X164468Y330397D01*
X165756Y330756D01*
X167244Y329761D01*
X169000Y329412D01*
X170756Y329761D01*
X172244Y330756D01*
X173239Y332244D01*
X173588Y334000D01*
X173239Y335756D01*
X172244Y337244D01*
X170756Y338239D01*
X169921Y338405D01*
X169663Y338663D01*
X168671Y339326D01*
X167500Y339559D01*
X167500Y339559D01*
X149500D01*
X148329Y339326D01*
X147337Y338663D01*
X147337Y338663D01*
X130219Y321545D01*
X130000Y321588D01*
X128244Y321239D01*
X126756Y320244D01*
X125761Y318756D01*
X125412Y317000D01*
X125761Y315244D01*
X126756Y313756D01*
X128244Y312761D01*
X130000Y312412D01*
X131756Y312761D01*
X133244Y313756D01*
X134239Y315244D01*
X134588Y317000D01*
X134545Y317219D01*
X150767Y333441D01*
X154808D01*
X155645Y332171D01*
X155412Y331000D01*
X155761Y329244D01*
X156686Y327859D01*
Y318000D01*
X156939Y316732D01*
X157657Y315657D01*
X164485Y308829D01*
X163959Y307559D01*
X145500D01*
X144330Y307326D01*
X143337Y306663D01*
X132683Y296008D01*
X131304Y296426D01*
X131239Y296756D01*
X130244Y298244D01*
X128756Y299239D01*
X127000Y299588D01*
X126781Y299545D01*
X109991Y316335D01*
X110710Y317412D01*
X112259Y316770D01*
X115000Y316409D01*
X117741Y316770D01*
X120295Y317828D01*
X122489Y319511D01*
X124172Y321705D01*
X125230Y324259D01*
X125591Y327000D01*
X125230Y329741D01*
X124172Y332295D01*
X122489Y334489D01*
X120295Y336172D01*
X117741Y337230D01*
X115000Y337591D01*
X112259Y337230D01*
X109705Y336172D01*
X107511Y334489D01*
X105828Y332295D01*
X104770Y329741D01*
X104409Y327000D01*
X104770Y324259D01*
X105412Y322710D01*
X104335Y321991D01*
X61663Y364663D01*
X60670Y365326D01*
X59500Y365559D01*
X59500Y365559D01*
X40909D01*
X40478Y366829D01*
X41775Y367825D01*
X43298Y369809D01*
X44255Y372120D01*
X44582Y374600D01*
X44255Y377080D01*
X43298Y379391D01*
X41775Y381375D01*
X39791Y382898D01*
X37480Y383855D01*
X35000Y384182D01*
X32520Y383855D01*
X30209Y382898D01*
X28225Y381375D01*
X26702Y379391D01*
X25745Y377080D01*
X25418Y374600D01*
X25745Y372120D01*
X26702Y369809D01*
X28225Y367825D01*
X29522Y366829D01*
X29091Y365559D01*
X3767D01*
X-1462Y370788D01*
X-745Y372520D01*
X-418Y375000D01*
X-745Y377480D01*
X-1702Y379791D01*
X-3225Y381775D01*
X-5209Y383298D01*
X-7520Y384255D01*
X-10000Y384582D01*
X-12480Y384255D01*
X-14791Y383298D01*
X-16775Y381775D01*
X-18298Y379791D01*
X-19255Y377480D01*
X-19582Y375000D01*
X-19255Y372520D01*
X-18298Y370209D01*
X-16775Y368224D01*
X-14791Y366702D01*
X-12480Y365745D01*
X-10000Y365418D01*
X-7520Y365745D01*
X-5788Y366462D01*
X337Y360337D01*
X337Y360337D01*
X1329Y359674D01*
X2500Y359441D01*
X4808D01*
X5645Y358171D01*
X5412Y357000D01*
X5761Y355244D01*
X6756Y353756D01*
X7549Y353226D01*
X7837Y352794D01*
X89794Y270837D01*
X89795Y270837D01*
X90225Y270549D01*
X90756Y269756D01*
X92244Y268761D01*
X94000Y268412D01*
X95756Y268761D01*
X97244Y269756D01*
X98239Y271244D01*
X98588Y273000D01*
X98239Y274756D01*
X97244Y276244D01*
X95756Y277239D01*
X94000Y277588D01*
X92244Y277239D01*
X92124Y277159D01*
X30796Y338488D01*
X31282Y339661D01*
X42500D01*
X43280Y339816D01*
X43942Y340258D01*
X44384Y340920D01*
X44539Y341700D01*
Y356700D01*
X44384Y357480D01*
X43942Y358142D01*
X43898Y358171D01*
X44283Y359441D01*
X58233D01*
X122455Y295219D01*
X122412Y295000D01*
X122761Y293244D01*
X123756Y291756D01*
X125244Y290761D01*
X125574Y290696D01*
X125992Y289317D01*
X100337Y263663D01*
X99674Y262671D01*
X99441Y261500D01*
X99441Y261500D01*
Y256722D01*
X99441Y256722D01*
X99674Y255551D01*
X100337Y254559D01*
X106941Y247955D01*
Y240368D01*
X106756Y240244D01*
X105761Y238756D01*
X105412Y237000D01*
X105761Y235244D01*
X106756Y233756D01*
X108244Y232761D01*
X110000Y232412D01*
X111756Y232761D01*
X113244Y233756D01*
X114239Y235244D01*
X114588Y237000D01*
X114239Y238756D01*
X113244Y240244D01*
X113059Y240368D01*
Y249222D01*
X113059Y249222D01*
X112826Y250392D01*
X112163Y251385D01*
X109945Y253602D01*
X110251Y255092D01*
X111244Y255756D01*
X112239Y257244D01*
X112405Y258079D01*
X117267Y262941D01*
X174632D01*
X174756Y262756D01*
X176244Y261761D01*
X178000Y261412D01*
X179756Y261761D01*
X181244Y262756D01*
X181671Y263395D01*
X182941Y263009D01*
Y167000D01*
X182941Y167000D01*
X183174Y165830D01*
X183837Y164837D01*
X206455Y142219D01*
X206412Y142000D01*
X206761Y140244D01*
X207756Y138756D01*
X209244Y137761D01*
X211000Y137412D01*
X212756Y137761D01*
X214244Y138756D01*
X215239Y140244D01*
X215588Y142000D01*
X215239Y143756D01*
X214244Y145244D01*
X212756Y146239D01*
X211000Y146588D01*
X210781Y146545D01*
X189059Y168267D01*
Y246206D01*
X190050Y246736D01*
X190329Y246744D01*
X190528Y246705D01*
X190617Y246616D01*
X190617Y246616D01*
X191940Y245732D01*
X193500Y245421D01*
X193501Y245421D01*
X218346D01*
X218685Y245048D01*
X219087Y244243D01*
X218761Y243756D01*
X218412Y242000D01*
X218761Y240244D01*
X219756Y238756D01*
X220915Y237981D01*
X225559Y233337D01*
X226551Y232674D01*
X227112Y232563D01*
X234837Y224837D01*
X235830Y224174D01*
X237000Y223941D01*
X237000Y223941D01*
X364733D01*
X384941Y203733D01*
Y184000D01*
X384941Y184000D01*
X385174Y182829D01*
X385837Y181837D01*
X388837Y178837D01*
X388837Y178837D01*
X389829Y178174D01*
X391000Y177941D01*
X391000Y177941D01*
X393621D01*
X394052Y176671D01*
X392511Y175489D01*
X390828Y173295D01*
X389770Y170741D01*
X389409Y168000D01*
X389770Y165259D01*
X390828Y162705D01*
X392511Y160511D01*
X394705Y158828D01*
X397259Y157770D01*
X400000Y157409D01*
X402741Y157770D01*
X405295Y158828D01*
X407489Y160511D01*
X409172Y162705D01*
X410230Y165259D01*
X410591Y168000D01*
X410230Y170741D01*
X409172Y173295D01*
X407489Y175489D01*
X405947Y176671D01*
X406379Y177941D01*
X500632D01*
X500756Y177756D01*
X502244Y176761D01*
X504000Y176412D01*
X505652Y176740D01*
X505957Y176709D01*
X506922Y176193D01*
Y167689D01*
X506528Y167295D01*
X506244Y167239D01*
X504756Y166244D01*
X503761Y164756D01*
X503412Y163000D01*
X503761Y161244D01*
X504756Y159756D01*
X506244Y158761D01*
X508000Y158412D01*
X509756Y158761D01*
X511244Y159756D01*
X512239Y161244D01*
X512295Y161528D01*
X513884Y163116D01*
X513884Y163116D01*
X514768Y164439D01*
X515078Y166000D01*
X515078Y166000D01*
Y199000D01*
X514768Y200561D01*
X513884Y201884D01*
X489452Y226316D01*
X489588Y227000D01*
X489239Y228756D01*
X488244Y230244D01*
X486756Y231239D01*
X485000Y231588D01*
X484316Y231452D01*
X469884Y245884D01*
X468561Y246768D01*
X467000Y247078D01*
X467000Y247078D01*
X409676D01*
X409172Y248295D01*
X407489Y250489D01*
X405295Y252172D01*
X402741Y253230D01*
X400000Y253591D01*
X397259Y253230D01*
X394705Y252172D01*
X392511Y250489D01*
X390828Y248295D01*
X390324Y247078D01*
X349689D01*
X318078Y278689D01*
Y340311D01*
X328472Y350705D01*
X328756Y350761D01*
X330244Y351756D01*
X331239Y353244D01*
X331411Y354107D01*
X332789Y354525D01*
X345080Y342234D01*
X344761Y341756D01*
X344412Y340000D01*
X344761Y338244D01*
X345756Y336756D01*
X347244Y335761D01*
X349000Y335412D01*
X350756Y335761D01*
X352244Y336756D01*
X352365Y336936D01*
X353635D01*
X353756Y336756D01*
X355244Y335761D01*
X357000Y335412D01*
X358756Y335761D01*
X360244Y336756D01*
X361239Y338244D01*
X361588Y340000D01*
X361239Y341756D01*
X360244Y343244D01*
X359923Y343459D01*
X359826Y343949D01*
X359163Y344941D01*
X359163Y344941D01*
X302941Y401163D01*
X301949Y401826D01*
X300778Y402059D01*
D02*
G37*
G36*
X295000Y22082D02*
X291667Y21754D01*
X288463Y20782D01*
X285510Y19203D01*
X282921Y17079D01*
X280797Y14490D01*
X279218Y11537D01*
X278246Y8332D01*
X277918Y5000D01*
X278246Y1667D01*
X279218Y-1537D01*
X280797Y-4490D01*
X282921Y-7079D01*
X285510Y-9203D01*
X288463Y-10782D01*
X291667Y-11754D01*
X295000Y-12082D01*
X298333Y-11754D01*
X301537Y-10782D01*
X304490Y-9203D01*
X307079Y-7079D01*
X309203Y-4490D01*
X310782Y-1537D01*
X311754Y1667D01*
X312082Y5000D01*
X311754Y8332D01*
X310782Y11537D01*
X309203Y14490D01*
X307079Y17079D01*
X304490Y19203D01*
X301537Y20782D01*
X298333Y21754D01*
X295000Y22082D01*
D02*
G37*
G36*
X35000Y409582D02*
X32520Y409255D01*
X30209Y408298D01*
X28225Y406775D01*
X26702Y404791D01*
X25745Y402480D01*
X25418Y400000D01*
X25745Y397520D01*
X26702Y395209D01*
X28225Y393224D01*
X30209Y391702D01*
X32520Y390745D01*
X35000Y390418D01*
X37480Y390745D01*
X39212Y391462D01*
X51837Y378837D01*
X52829Y378174D01*
X54000Y377941D01*
X89000D01*
X89000Y377941D01*
X90170Y378174D01*
X91163Y378837D01*
X95767Y383441D01*
X106814D01*
X107268Y382171D01*
X105828Y380295D01*
X104770Y377741D01*
X104409Y375000D01*
X104770Y372259D01*
X105828Y369705D01*
X107511Y367511D01*
X109705Y365828D01*
X112259Y364770D01*
X115000Y364409D01*
X117741Y364770D01*
X120295Y365828D01*
X122489Y367511D01*
X124172Y369705D01*
X125230Y372259D01*
X125591Y375000D01*
X125230Y377741D01*
X124172Y380295D01*
X122732Y382171D01*
X123186Y383441D01*
X206233D01*
X218455Y371219D01*
X218412Y371000D01*
X218761Y369244D01*
X219756Y367756D01*
X221244Y366761D01*
X223000Y366412D01*
X224756Y366761D01*
X226233Y367748D01*
X226531Y367936D01*
X227469D01*
X227767Y367748D01*
X229244Y366761D01*
X231000Y366412D01*
X232756Y366761D01*
X234244Y367756D01*
X235239Y369244D01*
X235588Y371000D01*
X235239Y372756D01*
X234244Y374244D01*
X232756Y375239D01*
X231000Y375588D01*
X230781Y375545D01*
X213663Y392663D01*
X212670Y393326D01*
X211500Y393559D01*
X211500Y393559D01*
X61774D01*
X60756Y394239D01*
X59000Y394588D01*
X57244Y394239D01*
X55756Y393244D01*
X54761Y391756D01*
X54412Y390000D01*
X54761Y388244D01*
X55756Y386756D01*
X57244Y385761D01*
X59000Y385412D01*
X60756Y385761D01*
X62244Y386756D01*
X62702Y387441D01*
X89456D01*
X89942Y386268D01*
X87733Y384059D01*
X55267D01*
X43538Y395788D01*
X44255Y397520D01*
X44582Y400000D01*
X44255Y402480D01*
X43298Y404791D01*
X41775Y406775D01*
X39791Y408298D01*
X37480Y409255D01*
X35000Y409582D01*
D02*
G37*
G36*
X175514Y486848D02*
X173034Y486521D01*
X170723Y485564D01*
X168739Y484041D01*
X167216Y482057D01*
X166259Y479746D01*
X165932Y477266D01*
X166259Y474786D01*
X167216Y472475D01*
X168739Y470490D01*
X170723Y468968D01*
X173034Y468010D01*
X175514Y467684D01*
X177994Y468010D01*
X180305Y468968D01*
X182290Y470490D01*
X183812Y472475D01*
X184769Y474786D01*
X185096Y477266D01*
X184769Y479746D01*
X183812Y482057D01*
X182290Y484041D01*
X180305Y485564D01*
X177994Y486521D01*
X175514Y486848D01*
D02*
G37*
G36*
X200914D02*
X198434Y486521D01*
X196123Y485564D01*
X194139Y484041D01*
X192616Y482057D01*
X191659Y479746D01*
X191332Y477266D01*
X191659Y474786D01*
X192616Y472475D01*
X194139Y470490D01*
X196123Y468968D01*
X198434Y468010D01*
X200914Y467684D01*
X203394Y468010D01*
X205705Y468968D01*
X207689Y470490D01*
X209212Y472475D01*
X210170Y474786D01*
X210496Y477266D01*
X210170Y479746D01*
X209212Y482057D01*
X207689Y484041D01*
X205705Y485564D01*
X203394Y486521D01*
X200914Y486848D01*
D02*
G37*
G36*
X132500Y-5461D02*
X117500D01*
X116720Y-5616D01*
X116058Y-6058D01*
X115616Y-6720D01*
X115461Y-7500D01*
Y-22500D01*
X115616Y-23280D01*
X116058Y-23942D01*
X116720Y-24384D01*
X117500Y-24539D01*
X132500D01*
X133280Y-24384D01*
X133942Y-23942D01*
X134384Y-23280D01*
X134539Y-22500D01*
Y-7500D01*
X134384Y-6720D01*
X133942Y-6058D01*
X133280Y-5616D01*
X132500Y-5461D01*
D02*
G37*
G36*
X-10000Y409982D02*
X-12480Y409655D01*
X-14791Y408698D01*
X-16775Y407175D01*
X-18298Y405191D01*
X-19255Y402880D01*
X-19582Y400400D01*
X-19255Y397920D01*
X-18298Y395609D01*
X-16775Y393624D01*
X-14791Y392102D01*
X-12480Y391144D01*
X-10000Y390818D01*
X-7520Y391144D01*
X-5209Y392102D01*
X-3225Y393624D01*
X-1702Y395609D01*
X-745Y397920D01*
X-418Y400400D01*
X-745Y402880D01*
X-1702Y405191D01*
X-3225Y407175D01*
X-5209Y408698D01*
X-7520Y409655D01*
X-10000Y409982D01*
D02*
G37*
G36*
X207900Y454539D02*
X192900D01*
X192120Y454384D01*
X191458Y453942D01*
X191016Y453280D01*
X190861Y452500D01*
Y437500D01*
X191016Y436720D01*
X191458Y436058D01*
X192120Y435616D01*
X192900Y435461D01*
X207900D01*
X208680Y435616D01*
X209342Y436058D01*
X209784Y436720D01*
X209939Y437500D01*
Y452500D01*
X209784Y453280D01*
X209342Y453942D01*
X208680Y454384D01*
X207900Y454539D01*
D02*
G37*
G36*
X-7500Y99139D02*
X-22500D01*
X-23280Y98984D01*
X-23942Y98542D01*
X-24384Y97880D01*
X-24539Y97100D01*
Y82100D01*
X-24384Y81320D01*
X-23942Y80658D01*
X-23280Y80216D01*
X-22500Y80061D01*
X-7500D01*
X-6720Y80216D01*
X-6058Y80658D01*
X-5616Y81320D01*
X-5461Y82100D01*
Y97100D01*
X-5616Y97880D01*
X-6058Y98542D01*
X-6720Y98984D01*
X-7500Y99139D01*
D02*
G37*
G36*
X22500D02*
X7500D01*
X6720Y98984D01*
X6058Y98542D01*
X5616Y97880D01*
X5461Y97100D01*
Y82100D01*
X5616Y81320D01*
X6058Y80658D01*
X6720Y80216D01*
X7500Y80061D01*
X22500D01*
X23280Y80216D01*
X23942Y80658D01*
X24384Y81320D01*
X24539Y82100D01*
Y97100D01*
X24384Y97880D01*
X23942Y98542D01*
X23280Y98984D01*
X22500Y99139D01*
D02*
G37*
G36*
X15000Y124582D02*
X12520Y124255D01*
X10209Y123298D01*
X8224Y121775D01*
X6702Y119791D01*
X5745Y117480D01*
X5418Y115000D01*
X5745Y112520D01*
X6702Y110209D01*
X8224Y108224D01*
X10209Y106702D01*
X12520Y105744D01*
X15000Y105418D01*
X17480Y105744D01*
X19791Y106702D01*
X21775Y108224D01*
X23298Y110209D01*
X24255Y112520D01*
X24582Y115000D01*
X24255Y117480D01*
X23298Y119791D01*
X21775Y121775D01*
X19791Y123298D01*
X17480Y124255D01*
X15000Y124582D01*
D02*
G37*
G36*
X125000Y19982D02*
X122520Y19655D01*
X120209Y18698D01*
X118225Y17176D01*
X116702Y15191D01*
X115744Y12880D01*
X115418Y10400D01*
X115744Y7920D01*
X116702Y5609D01*
X118225Y3625D01*
X120209Y2102D01*
X122520Y1145D01*
X125000Y818D01*
X127480Y1145D01*
X129791Y2102D01*
X131776Y3625D01*
X133298Y5609D01*
X134256Y7920D01*
X134582Y10400D01*
X134256Y12880D01*
X133298Y15191D01*
X131776Y17176D01*
X129791Y18698D01*
X127480Y19655D01*
X125000Y19982D01*
D02*
G37*
G36*
X132500Y51539D02*
X117500D01*
X116720Y51384D01*
X116058Y50942D01*
X115616Y50280D01*
X115461Y49500D01*
Y34500D01*
X115616Y33720D01*
X116058Y33058D01*
X116720Y32616D01*
X117500Y32461D01*
X132500D01*
X133280Y32616D01*
X133942Y33058D01*
X134384Y33720D01*
X134539Y34500D01*
Y49500D01*
X134384Y50280D01*
X133942Y50942D01*
X133280Y51384D01*
X132500Y51539D01*
D02*
G37*
G36*
X125000Y76982D02*
X122520Y76655D01*
X120209Y75698D01*
X118225Y74175D01*
X116702Y72191D01*
X115744Y69880D01*
X115418Y67400D01*
X115744Y64920D01*
X116702Y62609D01*
X118225Y60624D01*
X120209Y59102D01*
X122520Y58144D01*
X125000Y57818D01*
X127480Y58144D01*
X129791Y59102D01*
X131776Y60624D01*
X133298Y62609D01*
X134256Y64920D01*
X134582Y67400D01*
X134256Y69880D01*
X133298Y72191D01*
X131776Y74175D01*
X129791Y75698D01*
X127480Y76655D01*
X125000Y76982D01*
D02*
G37*
G36*
X135000Y212588D02*
X81000D01*
X79244Y212239D01*
X77756Y211244D01*
X67507Y200996D01*
X66173Y200820D01*
X64470Y200114D01*
X63007Y198992D01*
X61885Y197530D01*
X61180Y195827D01*
X60940Y194000D01*
X61180Y192173D01*
X61885Y190470D01*
X63007Y189007D01*
X64470Y187885D01*
X66173Y187180D01*
X68000Y186940D01*
X69827Y187180D01*
X71530Y187885D01*
X72992Y189007D01*
X74114Y190470D01*
X74820Y192173D01*
X75060Y194000D01*
X74878Y195389D01*
X82900Y203412D01*
X100151D01*
X100348Y203167D01*
X100086Y201465D01*
X99756Y201244D01*
X98761Y199756D01*
X98412Y198000D01*
X98761Y196244D01*
X99756Y194756D01*
X101244Y193761D01*
X101941Y193622D01*
Y151368D01*
X101756Y151244D01*
X100761Y149756D01*
X100412Y148000D01*
X100761Y146244D01*
X101756Y144756D01*
X103244Y143761D01*
X105000Y143412D01*
X106756Y143761D01*
X108244Y144756D01*
X109239Y146244D01*
X109588Y148000D01*
X109239Y149756D01*
X108244Y151244D01*
X108059Y151368D01*
Y196000D01*
X107826Y197171D01*
X107516Y197635D01*
X107588Y198000D01*
X107239Y199756D01*
X106244Y201244D01*
X105914Y201465D01*
X105652Y203167D01*
X105849Y203412D01*
X133099D01*
X137006Y199505D01*
X136940Y199000D01*
X137180Y197173D01*
X137886Y195470D01*
X139008Y194008D01*
X140470Y192885D01*
X142173Y192180D01*
X144000Y191940D01*
X145827Y192180D01*
X147530Y192885D01*
X148992Y194008D01*
X150114Y195470D01*
X150820Y197173D01*
X151060Y199000D01*
X150820Y200827D01*
X150114Y202530D01*
X148992Y203993D01*
X147530Y205114D01*
X145827Y205820D01*
X144000Y206060D01*
X143495Y205994D01*
X138244Y211244D01*
X136756Y212239D01*
X135000Y212588D01*
D02*
G37*
G36*
X515000Y22082D02*
X511668Y21754D01*
X508463Y20782D01*
X505510Y19203D01*
X502921Y17079D01*
X500797Y14490D01*
X499218Y11537D01*
X498246Y8332D01*
X497918Y5000D01*
X498246Y1667D01*
X499218Y-1537D01*
X500797Y-4490D01*
X502921Y-7079D01*
X505510Y-9203D01*
X508463Y-10782D01*
X511668Y-11754D01*
X515000Y-12082D01*
X518333Y-11754D01*
X521537Y-10782D01*
X524490Y-9203D01*
X527079Y-7079D01*
X529203Y-4490D01*
X530782Y-1537D01*
X531754Y1667D01*
X532082Y5000D01*
X531754Y8332D01*
X530782Y11537D01*
X529203Y14490D01*
X527079Y17079D01*
X524490Y19203D01*
X521537Y20782D01*
X518333Y21754D01*
X515000Y22082D01*
D02*
G37*
G36*
X405000D02*
X401667Y21754D01*
X398463Y20782D01*
X395510Y19203D01*
X392921Y17079D01*
X390797Y14490D01*
X389218Y11537D01*
X388246Y8332D01*
X387918Y5000D01*
X388246Y1667D01*
X389218Y-1537D01*
X390797Y-4490D01*
X392921Y-7079D01*
X395510Y-9203D01*
X398463Y-10782D01*
X401667Y-11754D01*
X405000Y-12082D01*
X408333Y-11754D01*
X411537Y-10782D01*
X414490Y-9203D01*
X417079Y-7079D01*
X419203Y-4490D01*
X420782Y-1537D01*
X421754Y1667D01*
X422082Y5000D01*
X421754Y8332D01*
X420782Y11537D01*
X419203Y14490D01*
X417079Y17079D01*
X414490Y19203D01*
X411537Y20782D01*
X408333Y21754D01*
X405000Y22082D01*
D02*
G37*
G36*
X176000Y248588D02*
X174244Y248239D01*
X172756Y247244D01*
X171761Y245756D01*
X171412Y244000D01*
X171761Y242244D01*
X172756Y240756D01*
X172941Y240632D01*
Y214267D01*
X112837Y154163D01*
X112174Y153170D01*
X111941Y152000D01*
X111941Y152000D01*
Y144267D01*
X99733Y132059D01*
X-1000D01*
X-2171Y131826D01*
X-3163Y131163D01*
X-10788Y123538D01*
X-12520Y124255D01*
X-15000Y124582D01*
X-17480Y124255D01*
X-19791Y123298D01*
X-21775Y121775D01*
X-23298Y119791D01*
X-24255Y117480D01*
X-24582Y115000D01*
X-24255Y112520D01*
X-23298Y110209D01*
X-21775Y108224D01*
X-19791Y106702D01*
X-17480Y105744D01*
X-15000Y105418D01*
X-12520Y105744D01*
X-10209Y106702D01*
X-8224Y108224D01*
X-6702Y110209D01*
X-5745Y112520D01*
X-5418Y115000D01*
X-5745Y117480D01*
X-6462Y119212D01*
X267Y125941D01*
X101000D01*
X101000Y125941D01*
X102170Y126174D01*
X103163Y126837D01*
X117163Y140837D01*
X117163Y140837D01*
X117826Y141830D01*
X118059Y143000D01*
X118059Y143000D01*
Y150733D01*
X178163Y210837D01*
X178826Y211829D01*
X179059Y213000D01*
X179059Y213000D01*
Y240632D01*
X179244Y240756D01*
X180239Y242244D01*
X180588Y244000D01*
X180239Y245756D01*
X179244Y247244D01*
X177756Y248239D01*
X176000Y248588D01*
D02*
G37*
G36*
X536000Y275104D02*
X532867Y274691D01*
X529948Y273482D01*
X527441Y271558D01*
X525518Y269052D01*
X524309Y266133D01*
X523896Y263000D01*
X524309Y259867D01*
X525518Y256948D01*
X527441Y254442D01*
X528940Y253292D01*
Y160924D01*
X501076Y133060D01*
X406381D01*
X405950Y134330D01*
X407489Y135511D01*
X409172Y137705D01*
X410230Y140259D01*
X410591Y143000D01*
X410230Y145741D01*
X409172Y148295D01*
X407489Y150489D01*
X405295Y152172D01*
X402741Y153230D01*
X400000Y153591D01*
X397259Y153230D01*
X394705Y152172D01*
X392511Y150489D01*
X390828Y148295D01*
X389770Y145741D01*
X389409Y143000D01*
X389770Y140259D01*
X390828Y137705D01*
X392511Y135511D01*
X394050Y134330D01*
X393619Y133060D01*
X368975D01*
X368260Y134210D01*
X368256Y134330D01*
X368588Y136000D01*
X368239Y137756D01*
X367244Y139244D01*
X365756Y140239D01*
X364000Y140588D01*
X362244Y140239D01*
X361000Y139408D01*
X359756Y140239D01*
X358000Y140588D01*
X356244Y140239D01*
X354756Y139244D01*
X353761Y137756D01*
X353412Y136000D01*
X353744Y134330D01*
X353740Y134210D01*
X353025Y133060D01*
X296914D01*
X296628Y134330D01*
X297239Y135244D01*
X297588Y137000D01*
X297239Y138756D01*
X296244Y140244D01*
X294756Y141239D01*
X293000Y141588D01*
X291244Y141239D01*
X289756Y140244D01*
X288761Y138756D01*
X288412Y137000D01*
X288761Y135244D01*
X289372Y134330D01*
X289086Y133060D01*
X151060D01*
Y138000D01*
X150820Y139827D01*
X150114Y141530D01*
X148992Y142992D01*
X147530Y144115D01*
X145827Y144820D01*
X144000Y145060D01*
X142173Y144820D01*
X140470Y144115D01*
X139008Y142992D01*
X137886Y141530D01*
X137180Y139827D01*
X136940Y138000D01*
Y126000D01*
X137180Y124173D01*
X137886Y122470D01*
X139008Y121008D01*
X140470Y119886D01*
X142173Y119180D01*
X144000Y118940D01*
X504000D01*
X505827Y119180D01*
X507530Y119886D01*
X508993Y121008D01*
X540992Y153007D01*
X542114Y154470D01*
X542820Y156173D01*
X543060Y158000D01*
Y253292D01*
X544558Y254442D01*
X546482Y256948D01*
X547691Y259867D01*
X548104Y263000D01*
X547691Y266133D01*
X546482Y269052D01*
X544558Y271558D01*
X542052Y273482D01*
X539133Y274691D01*
X536000Y275104D01*
D02*
G37*
G36*
X312000Y199588D02*
X310244Y199239D01*
X308756Y198244D01*
X307761Y196756D01*
X307412Y195000D01*
X307761Y193244D01*
X308756Y191756D01*
X308941Y191632D01*
Y163000D01*
X308941Y163000D01*
X309174Y161829D01*
X309837Y160837D01*
X320837Y149837D01*
X320837Y149837D01*
X321829Y149174D01*
X323000Y148941D01*
X326694D01*
X327373Y147671D01*
X326761Y146756D01*
X326412Y145000D01*
X326761Y143244D01*
X327756Y141756D01*
X329244Y140761D01*
X331000Y140412D01*
X332756Y140761D01*
X334244Y141756D01*
X334368Y141941D01*
X375632D01*
X375756Y141756D01*
X377244Y140761D01*
X379000Y140412D01*
X380756Y140761D01*
X382244Y141756D01*
X383239Y143244D01*
X383588Y145000D01*
X383239Y146756D01*
X382244Y148244D01*
X380756Y149239D01*
X379000Y149588D01*
X377244Y149239D01*
X375756Y148244D01*
X375632Y148059D01*
X346306D01*
X345627Y149329D01*
X346239Y150244D01*
X346588Y152000D01*
X346239Y153756D01*
X345244Y155244D01*
X343756Y156239D01*
X342000Y156588D01*
X340244Y156239D01*
X338756Y155244D01*
X338632Y155059D01*
X324267D01*
X315059Y164267D01*
Y191632D01*
X315244Y191756D01*
X316239Y193244D01*
X316588Y195000D01*
X316239Y196756D01*
X315244Y198244D01*
X313756Y199239D01*
X312000Y199588D01*
D02*
G37*
G36*
X226314Y486848D02*
X223834Y486521D01*
X221523Y485564D01*
X219539Y484041D01*
X218016Y482057D01*
X217059Y479746D01*
X216732Y477266D01*
X217059Y474786D01*
X218016Y472475D01*
X219539Y470490D01*
X221523Y468968D01*
X223834Y468010D01*
X226314Y467684D01*
X228794Y468010D01*
X231105Y468968D01*
X233090Y470490D01*
X234612Y472475D01*
X235569Y474786D01*
X235896Y477266D01*
X235569Y479746D01*
X234612Y482057D01*
X233090Y484041D01*
X231105Y485564D01*
X228794Y486521D01*
X226314Y486848D01*
D02*
G37*
G36*
X251714Y512248D02*
X249234Y511921D01*
X246923Y510964D01*
X244939Y509441D01*
X243416Y507457D01*
X242459Y505146D01*
X242132Y502666D01*
X242459Y500186D01*
X243416Y497875D01*
X244939Y495891D01*
X246923Y494368D01*
X249234Y493410D01*
X251714Y493084D01*
X254194Y493410D01*
X256505Y494368D01*
X258489Y495891D01*
X260012Y497875D01*
X260970Y500186D01*
X261296Y502666D01*
X260970Y505146D01*
X260012Y507457D01*
X258489Y509441D01*
X256505Y510964D01*
X254194Y511921D01*
X251714Y512248D01*
D02*
G37*
G36*
X302514D02*
X300034Y511921D01*
X297723Y510964D01*
X295739Y509441D01*
X294216Y507457D01*
X293259Y505146D01*
X292932Y502666D01*
X293259Y500186D01*
X294216Y497875D01*
X295739Y495891D01*
X297723Y494368D01*
X300034Y493410D01*
X302514Y493084D01*
X304994Y493410D01*
X307305Y494368D01*
X309289Y495891D01*
X310812Y497875D01*
X311770Y500186D01*
X312096Y502666D01*
X311770Y505146D01*
X310812Y507457D01*
X309289Y509441D01*
X307305Y510964D01*
X304994Y511921D01*
X302514Y512248D01*
D02*
G37*
G36*
X327914D02*
X325434Y511921D01*
X323123Y510964D01*
X321139Y509441D01*
X319616Y507457D01*
X318659Y505146D01*
X318332Y502666D01*
X318659Y500186D01*
X319616Y497875D01*
X321139Y495891D01*
X323123Y494368D01*
X325434Y493410D01*
X327914Y493084D01*
X330394Y493410D01*
X332705Y494368D01*
X334689Y495891D01*
X336212Y497875D01*
X337169Y500186D01*
X337496Y502666D01*
X337169Y505146D01*
X336212Y507457D01*
X334689Y509441D01*
X332705Y510964D01*
X330394Y511921D01*
X327914Y512248D01*
D02*
G37*
G36*
X150114D02*
X147634Y511921D01*
X145323Y510964D01*
X143339Y509441D01*
X141816Y507457D01*
X140859Y505146D01*
X140532Y502666D01*
X140859Y500186D01*
X141576Y498454D01*
X135837Y492715D01*
X135174Y491722D01*
X134941Y490552D01*
X134941Y490552D01*
Y480719D01*
X133671Y480466D01*
X133012Y482057D01*
X131489Y484041D01*
X129505Y485564D01*
X127194Y486521D01*
X124714Y486848D01*
X122234Y486521D01*
X119923Y485564D01*
X117939Y484041D01*
X117329Y483247D01*
X116059Y483678D01*
Y489685D01*
X120502Y494128D01*
X122234Y493410D01*
X124714Y493084D01*
X127194Y493410D01*
X129505Y494368D01*
X131489Y495891D01*
X133012Y497875D01*
X133969Y500186D01*
X134296Y502666D01*
X133969Y505146D01*
X133012Y507457D01*
X131489Y509441D01*
X129505Y510964D01*
X127194Y511921D01*
X124714Y512248D01*
X122234Y511921D01*
X119923Y510964D01*
X117939Y509441D01*
X116416Y507457D01*
X115459Y505146D01*
X115132Y502666D01*
X115459Y500186D01*
X116176Y498454D01*
X110837Y493115D01*
X110174Y492122D01*
X109941Y490952D01*
X109941Y490952D01*
Y479056D01*
X108671Y478973D01*
X108569Y479746D01*
X107612Y482057D01*
X106089Y484041D01*
X104105Y485564D01*
X101794Y486521D01*
X99314Y486848D01*
X96834Y486521D01*
X94523Y485564D01*
X92539Y484041D01*
X91016Y482057D01*
X90059Y479746D01*
X89732Y477266D01*
X90059Y474786D01*
X91016Y472475D01*
X92539Y470490D01*
X94523Y468968D01*
X96834Y468010D01*
X99314Y467684D01*
X101794Y468010D01*
X104105Y468968D01*
X106089Y470490D01*
X107612Y472475D01*
X108569Y474786D01*
X108671Y475559D01*
X109941Y475476D01*
Y456200D01*
X109941Y456200D01*
X110174Y455029D01*
X110837Y454037D01*
X115662Y449212D01*
X114945Y447480D01*
X114618Y445000D01*
X114945Y442520D01*
X115902Y440209D01*
X117425Y438224D01*
X119409Y436702D01*
X119941Y436481D01*
Y435000D01*
X119941Y435000D01*
X120174Y433829D01*
X120837Y432837D01*
X147837Y405837D01*
X147837Y405837D01*
X148829Y405174D01*
X150000Y404941D01*
X150000Y404941D01*
X257632D01*
X257756Y404756D01*
X259244Y403761D01*
X261000Y403412D01*
X262756Y403761D01*
X264244Y404756D01*
X265239Y406244D01*
X265355Y406827D01*
X266244Y407760D01*
X267999Y407411D01*
X269755Y407760D01*
X271244Y408755D01*
X272238Y410243D01*
X272588Y411999D01*
X272238Y413755D01*
X271244Y415243D01*
X269755Y416238D01*
X267999Y416587D01*
X266244Y416238D01*
X266147Y416174D01*
X265170Y416826D01*
X264000Y417059D01*
X264000Y417059D01*
X181867D01*
X158138Y440788D01*
X158855Y442520D01*
X159182Y445000D01*
X158855Y447480D01*
X157898Y449791D01*
X156376Y451775D01*
X154391Y453298D01*
X152080Y454255D01*
X149766Y454560D01*
X141059Y463267D01*
Y489285D01*
X145902Y494128D01*
X147634Y493410D01*
X150114Y493084D01*
X152594Y493410D01*
X154905Y494368D01*
X156889Y495891D01*
X158412Y497875D01*
X159369Y500186D01*
X159696Y502666D01*
X159369Y505146D01*
X158412Y507457D01*
X156889Y509441D01*
X154905Y510964D01*
X152594Y511921D01*
X150114Y512248D01*
D02*
G37*
G36*
X175514D02*
X173034Y511921D01*
X170723Y510964D01*
X168739Y509441D01*
X167216Y507457D01*
X166259Y505146D01*
X165932Y502666D01*
X166259Y500186D01*
X167216Y497875D01*
X168739Y495891D01*
X170723Y494368D01*
X173034Y493410D01*
X175514Y493084D01*
X177994Y493410D01*
X180305Y494368D01*
X182290Y495891D01*
X183812Y497875D01*
X184769Y500186D01*
X185096Y502666D01*
X184769Y505146D01*
X183812Y507457D01*
X182290Y509441D01*
X180305Y510964D01*
X177994Y511921D01*
X175514Y512248D01*
D02*
G37*
G36*
X226314D02*
X223834Y511921D01*
X221523Y510964D01*
X219539Y509441D01*
X218016Y507457D01*
X217059Y505146D01*
X216732Y502666D01*
X217059Y500186D01*
X218016Y497875D01*
X219539Y495891D01*
X221523Y494368D01*
X223834Y493410D01*
X226314Y493084D01*
X228794Y493410D01*
X231105Y494368D01*
X233090Y495891D01*
X234612Y497875D01*
X235569Y500186D01*
X235896Y502666D01*
X235569Y505146D01*
X234612Y507457D01*
X233090Y509441D01*
X231105Y510964D01*
X228794Y511921D01*
X226314Y512248D01*
D02*
G37*
G36*
X480314D02*
X477834Y511921D01*
X475523Y510964D01*
X473539Y509441D01*
X472016Y507457D01*
X471059Y505146D01*
X470732Y502666D01*
X471059Y500186D01*
X472016Y497875D01*
X473539Y495891D01*
X475523Y494368D01*
X477834Y493410D01*
X480314Y493084D01*
X482794Y493410D01*
X485105Y494368D01*
X487090Y495891D01*
X488612Y497875D01*
X489570Y500186D01*
X489896Y502666D01*
X489570Y505146D01*
X488612Y507457D01*
X487090Y509441D01*
X485105Y510964D01*
X482794Y511921D01*
X480314Y512248D01*
D02*
G37*
G36*
X505714D02*
X503234Y511921D01*
X500923Y510964D01*
X498939Y509441D01*
X497416Y507457D01*
X496459Y505146D01*
X496132Y502666D01*
X496459Y500186D01*
X497416Y497875D01*
X498939Y495891D01*
X500923Y494368D01*
X503234Y493410D01*
X505714Y493084D01*
X508194Y493410D01*
X510505Y494368D01*
X512490Y495891D01*
X514012Y497875D01*
X514969Y500186D01*
X515296Y502666D01*
X514969Y505146D01*
X514012Y507457D01*
X512490Y509441D01*
X510505Y510964D01*
X508194Y511921D01*
X505714Y512248D01*
D02*
G37*
G36*
X531114D02*
X528634Y511921D01*
X526323Y510964D01*
X524339Y509441D01*
X522816Y507457D01*
X521859Y505146D01*
X521532Y502666D01*
X521859Y500186D01*
X522816Y497875D01*
X524339Y495891D01*
X526323Y494368D01*
X528634Y493410D01*
X531114Y493084D01*
X533594Y493410D01*
X535905Y494368D01*
X537890Y495891D01*
X539412Y497875D01*
X540369Y500186D01*
X540696Y502666D01*
X540369Y505146D01*
X539412Y507457D01*
X537890Y509441D01*
X535905Y510964D01*
X533594Y511921D01*
X531114Y512248D01*
D02*
G37*
G36*
X353314D02*
X350834Y511921D01*
X348523Y510964D01*
X346539Y509441D01*
X345016Y507457D01*
X344059Y505146D01*
X343732Y502666D01*
X344059Y500186D01*
X345016Y497875D01*
X346539Y495891D01*
X348523Y494368D01*
X350834Y493410D01*
X353314Y493084D01*
X355794Y493410D01*
X358105Y494368D01*
X360089Y495891D01*
X361612Y497875D01*
X362570Y500186D01*
X362896Y502666D01*
X362570Y505146D01*
X361612Y507457D01*
X360089Y509441D01*
X358105Y510964D01*
X355794Y511921D01*
X353314Y512248D01*
D02*
G37*
G36*
X378714D02*
X376234Y511921D01*
X373923Y510964D01*
X371939Y509441D01*
X370416Y507457D01*
X369459Y505146D01*
X369132Y502666D01*
X369459Y500186D01*
X370416Y497875D01*
X371939Y495891D01*
X373923Y494368D01*
X376234Y493410D01*
X378714Y493084D01*
X381194Y493410D01*
X383505Y494368D01*
X385490Y495891D01*
X387012Y497875D01*
X387970Y500186D01*
X388296Y502666D01*
X387970Y505146D01*
X387012Y507457D01*
X385490Y509441D01*
X383505Y510964D01*
X381194Y511921D01*
X378714Y512248D01*
D02*
G37*
G36*
X429514D02*
X427034Y511921D01*
X424723Y510964D01*
X422739Y509441D01*
X421216Y507457D01*
X420259Y505146D01*
X419932Y502666D01*
X420259Y500186D01*
X421216Y497875D01*
X422739Y495891D01*
X424723Y494368D01*
X427034Y493410D01*
X429514Y493084D01*
X431994Y493410D01*
X434305Y494368D01*
X436289Y495891D01*
X437812Y497875D01*
X438769Y500186D01*
X439096Y502666D01*
X438769Y505146D01*
X437812Y507457D01*
X436289Y509441D01*
X434305Y510964D01*
X431994Y511921D01*
X429514Y512248D01*
D02*
G37*
G36*
X327914Y486848D02*
X325434Y486521D01*
X323123Y485564D01*
X321139Y484041D01*
X319616Y482057D01*
X318659Y479746D01*
X318332Y477266D01*
X318659Y474786D01*
X319616Y472475D01*
X321139Y470490D01*
X323123Y468968D01*
X325434Y468010D01*
X327914Y467684D01*
X330394Y468010D01*
X332705Y468968D01*
X334689Y470490D01*
X336212Y472475D01*
X337169Y474786D01*
X337496Y477266D01*
X337169Y479746D01*
X336212Y482057D01*
X334689Y484041D01*
X332705Y485564D01*
X330394Y486521D01*
X327914Y486848D01*
D02*
G37*
G36*
X378714D02*
X376234Y486521D01*
X373923Y485564D01*
X371939Y484041D01*
X370416Y482057D01*
X369459Y479746D01*
X369132Y477266D01*
X369459Y474786D01*
X370416Y472475D01*
X371939Y470490D01*
X373923Y468968D01*
X376234Y468010D01*
X378714Y467684D01*
X381194Y468010D01*
X383505Y468968D01*
X385490Y470490D01*
X387012Y472475D01*
X387970Y474786D01*
X388296Y477266D01*
X387970Y479746D01*
X387012Y482057D01*
X385490Y484041D01*
X383505Y485564D01*
X381194Y486521D01*
X378714Y486848D01*
D02*
G37*
G36*
X404114D02*
X401634Y486521D01*
X399323Y485564D01*
X397339Y484041D01*
X395816Y482057D01*
X394859Y479746D01*
X394532Y477266D01*
X394859Y474786D01*
X395816Y472475D01*
X397339Y470490D01*
X399323Y468968D01*
X401634Y468010D01*
X404114Y467684D01*
X406594Y468010D01*
X408905Y468968D01*
X410890Y470490D01*
X412412Y472475D01*
X413369Y474786D01*
X413696Y477266D01*
X413369Y479746D01*
X412412Y482057D01*
X410890Y484041D01*
X408905Y485564D01*
X406594Y486521D01*
X404114Y486848D01*
D02*
G37*
G36*
X251714D02*
X249234Y486521D01*
X246923Y485564D01*
X244939Y484041D01*
X243416Y482057D01*
X242459Y479746D01*
X242132Y477266D01*
X242459Y474786D01*
X243416Y472475D01*
X244939Y470490D01*
X246923Y468968D01*
X249234Y468010D01*
X251714Y467684D01*
X254194Y468010D01*
X256505Y468968D01*
X258489Y470490D01*
X260012Y472475D01*
X260970Y474786D01*
X261296Y477266D01*
X260970Y479746D01*
X260012Y482057D01*
X258489Y484041D01*
X256505Y485564D01*
X254194Y486521D01*
X251714Y486848D01*
D02*
G37*
G36*
X277114D02*
X274634Y486521D01*
X272323Y485564D01*
X270339Y484041D01*
X268816Y482057D01*
X267859Y479746D01*
X267532Y477266D01*
X267859Y474786D01*
X268816Y472475D01*
X270339Y470490D01*
X272323Y468968D01*
X274634Y468010D01*
X277114Y467684D01*
X279594Y468010D01*
X281905Y468968D01*
X283890Y470490D01*
X285412Y472475D01*
X286369Y474786D01*
X286696Y477266D01*
X286369Y479746D01*
X285412Y482057D01*
X283890Y484041D01*
X281905Y485564D01*
X279594Y486521D01*
X277114Y486848D01*
D02*
G37*
G36*
X302514D02*
X300034Y486521D01*
X297723Y485564D01*
X295739Y484041D01*
X294216Y482057D01*
X293259Y479746D01*
X292932Y477266D01*
X293259Y474786D01*
X294216Y472475D01*
X295739Y470490D01*
X297723Y468968D01*
X300034Y468010D01*
X302514Y467684D01*
X304994Y468010D01*
X307305Y468968D01*
X309289Y470490D01*
X310812Y472475D01*
X311770Y474786D01*
X312096Y477266D01*
X311770Y479746D01*
X310812Y482057D01*
X309289Y484041D01*
X307305Y485564D01*
X304994Y486521D01*
X302514Y486848D01*
D02*
G37*
G36*
X505714D02*
X503234Y486521D01*
X500923Y485564D01*
X498939Y484041D01*
X497416Y482057D01*
X496459Y479746D01*
X496132Y477266D01*
X496459Y474786D01*
X497416Y472475D01*
X498939Y470490D01*
X500923Y468968D01*
X503234Y468010D01*
X505714Y467684D01*
X508194Y468010D01*
X510505Y468968D01*
X512490Y470490D01*
X514012Y472475D01*
X514969Y474786D01*
X515296Y477266D01*
X514969Y479746D01*
X514012Y482057D01*
X512490Y484041D01*
X510505Y485564D01*
X508194Y486521D01*
X505714Y486848D01*
D02*
G37*
G36*
X48514Y512248D02*
X46034Y511921D01*
X43723Y510964D01*
X41739Y509441D01*
X40216Y507457D01*
X39259Y505146D01*
X38932Y502666D01*
X39259Y500186D01*
X40216Y497875D01*
X41739Y495891D01*
X43723Y494368D01*
X46034Y493410D01*
X48514Y493084D01*
X50994Y493410D01*
X53305Y494368D01*
X55290Y495891D01*
X56812Y497875D01*
X57769Y500186D01*
X58096Y502666D01*
X57769Y505146D01*
X56812Y507457D01*
X55290Y509441D01*
X53305Y510964D01*
X50994Y511921D01*
X48514Y512248D01*
D02*
G37*
G36*
X73914D02*
X71434Y511921D01*
X69123Y510964D01*
X67139Y509441D01*
X65616Y507457D01*
X64659Y505146D01*
X64332Y502666D01*
X64608Y500570D01*
X57409Y493371D01*
X56304Y491717D01*
X55916Y489766D01*
Y486805D01*
X41014D01*
X40234Y486650D01*
X39572Y486208D01*
X39130Y485546D01*
X38975Y484766D01*
Y469766D01*
X39130Y468986D01*
X39572Y468324D01*
X40234Y467882D01*
X41014Y467727D01*
X55916D01*
Y453690D01*
X55008Y452992D01*
X53885Y451530D01*
X53180Y449827D01*
X52940Y448000D01*
X53180Y446173D01*
X53885Y444470D01*
X55008Y443008D01*
X56470Y441885D01*
X58173Y441180D01*
X60000Y440940D01*
X61827Y441180D01*
X63530Y441885D01*
X64992Y443008D01*
X66115Y444470D01*
X66820Y446173D01*
X67060Y448000D01*
X66820Y449827D01*
X66115Y451530D01*
X66112Y451533D01*
Y469922D01*
X67382Y470304D01*
X69123Y468968D01*
X71434Y468010D01*
X73914Y467684D01*
X76394Y468010D01*
X78705Y468968D01*
X80689Y470490D01*
X82212Y472475D01*
X83169Y474786D01*
X83496Y477266D01*
X83169Y479746D01*
X82212Y482057D01*
X80689Y484041D01*
X78705Y485564D01*
X76394Y486521D01*
X73914Y486848D01*
X71434Y486521D01*
X69123Y485564D01*
X67382Y484228D01*
X66112Y484610D01*
Y487654D01*
X71818Y493360D01*
X73914Y493084D01*
X76394Y493410D01*
X78705Y494368D01*
X80689Y495891D01*
X82212Y497875D01*
X83169Y500186D01*
X83496Y502666D01*
X83169Y505146D01*
X82212Y507457D01*
X80689Y509441D01*
X78705Y510964D01*
X76394Y511921D01*
X73914Y512248D01*
D02*
G37*
G36*
X429514Y486848D02*
X427034Y486521D01*
X424723Y485564D01*
X422739Y484041D01*
X421216Y482057D01*
X420259Y479746D01*
X419932Y477266D01*
X420259Y474786D01*
X421216Y472475D01*
X422739Y470490D01*
X424723Y468968D01*
X427034Y468010D01*
X429514Y467684D01*
X431994Y468010D01*
X434305Y468968D01*
X436289Y470490D01*
X437812Y472475D01*
X438769Y474786D01*
X439096Y477266D01*
X438769Y479746D01*
X437812Y482057D01*
X436289Y484041D01*
X434305Y485564D01*
X431994Y486521D01*
X429514Y486848D01*
D02*
G37*
G36*
X454914D02*
X452434Y486521D01*
X450123Y485564D01*
X448139Y484041D01*
X446616Y482057D01*
X445659Y479746D01*
X445332Y477266D01*
X445659Y474786D01*
X446616Y472475D01*
X448139Y470490D01*
X450123Y468968D01*
X452434Y468010D01*
X454914Y467684D01*
X457394Y468010D01*
X459705Y468968D01*
X461689Y470490D01*
X463212Y472475D01*
X464170Y474786D01*
X464496Y477266D01*
X464170Y479746D01*
X463212Y482057D01*
X461689Y484041D01*
X459705Y485564D01*
X457394Y486521D01*
X454914Y486848D01*
D02*
G37*
G36*
X480314D02*
X477834Y486521D01*
X475523Y485564D01*
X473539Y484041D01*
X472016Y482057D01*
X471059Y479746D01*
X470732Y477266D01*
X471059Y474786D01*
X472016Y472475D01*
X473539Y470490D01*
X475523Y468968D01*
X477834Y468010D01*
X480314Y467684D01*
X482794Y468010D01*
X485105Y468968D01*
X487090Y470490D01*
X488612Y472475D01*
X489570Y474786D01*
X489896Y477266D01*
X489570Y479746D01*
X488612Y482057D01*
X487090Y484041D01*
X485105Y485564D01*
X482794Y486521D01*
X480314Y486848D01*
D02*
G37*
%LPD*%
G36*
X157645Y300171D02*
X157412Y299000D01*
X157761Y297244D01*
X158756Y295756D01*
X160244Y294761D01*
X162000Y294412D01*
X162018Y294415D01*
X162732Y293939D01*
X164000Y293686D01*
X173627D01*
X184819Y282495D01*
X184450Y281280D01*
X184244Y281239D01*
X182756Y280244D01*
X181761Y278756D01*
X181412Y277000D01*
X181761Y275244D01*
X182756Y273756D01*
X182941Y273632D01*
Y268991D01*
X181671Y268605D01*
X181244Y269244D01*
X179756Y270239D01*
X178000Y270588D01*
X176244Y270239D01*
X174756Y269244D01*
X174632Y269059D01*
X116181D01*
X115859Y269487D01*
X115600Y270274D01*
X146767Y301441D01*
X156808D01*
X157645Y300171D01*
D02*
G37*
G36*
X259000Y297412D02*
X259219Y297455D01*
X270941Y285733D01*
Y259368D01*
X270756Y259244D01*
X269761Y257756D01*
X269412Y256000D01*
X269541Y255348D01*
X268499Y254078D01*
X258807D01*
X258291Y255043D01*
X258260Y255348D01*
X258588Y257000D01*
X258239Y258756D01*
X257244Y260244D01*
X257059Y260368D01*
Y295000D01*
X257059Y295000D01*
X256826Y296171D01*
X256412Y296789D01*
X257130Y297628D01*
X257298Y297750D01*
X259000Y297412D01*
D02*
G37*
G36*
X506922Y197311D02*
Y185807D01*
X505957Y185292D01*
X505652Y185260D01*
X504000Y185588D01*
X502244Y185239D01*
X500756Y184244D01*
X500632Y184059D01*
X392267D01*
X391059Y185267D01*
Y203819D01*
X392329Y204345D01*
X392337Y204337D01*
X392337Y204337D01*
X393330Y203674D01*
X394500Y203441D01*
X394500Y203441D01*
X404763D01*
X404763Y203441D01*
X405934Y203674D01*
X406334Y203941D01*
X469632D01*
X469756Y203756D01*
X471244Y202761D01*
X473000Y202412D01*
X474756Y202761D01*
X476244Y203756D01*
X477239Y205244D01*
X477588Y207000D01*
X477239Y208756D01*
X476244Y210244D01*
X474756Y211239D01*
X473000Y211588D01*
X471244Y211239D01*
X469756Y210244D01*
X469632Y210059D01*
X408742D01*
X408116Y211329D01*
X409172Y212705D01*
X410230Y215259D01*
X410591Y218000D01*
X410230Y220741D01*
X409172Y223295D01*
X407489Y225489D01*
X405947Y226671D01*
X406379Y227941D01*
X457975D01*
X458244Y227761D01*
X460000Y227412D01*
X461756Y227761D01*
X463244Y228756D01*
X464239Y230244D01*
X464588Y232000D01*
X464239Y233756D01*
X463244Y235244D01*
X461756Y236239D01*
X460000Y236588D01*
X458244Y236239D01*
X456756Y235244D01*
X455964Y234059D01*
X407571D01*
X407163Y235261D01*
X407489Y235511D01*
X409172Y237705D01*
X409676Y238922D01*
X465311D01*
X506922Y197311D01*
D02*
G37*
G36*
X345116Y240116D02*
X345116Y240116D01*
X345282Y240005D01*
X345545Y238302D01*
X345349Y238059D01*
X250991D01*
X250605Y239329D01*
X251244Y239756D01*
X252239Y241244D01*
X252378Y241941D01*
X267666D01*
X268066Y241674D01*
X269237Y241441D01*
X269237Y241441D01*
X323500D01*
X323500Y241441D01*
X324671Y241674D01*
X325663Y242337D01*
X325781Y242455D01*
X326000Y242412D01*
X327756Y242761D01*
X329244Y243756D01*
X330239Y245244D01*
X330588Y247000D01*
X330239Y248756D01*
X329244Y250244D01*
X327756Y251239D01*
X326000Y251588D01*
X324244Y251239D01*
X322756Y250244D01*
X321761Y248756D01*
X321523Y247559D01*
X291986D01*
X291500Y248732D01*
X314000Y271232D01*
X345116Y240116D01*
D02*
G37*
%LPC*%
G36*
X139000Y288588D02*
X137244Y288239D01*
X135756Y287244D01*
X134761Y285756D01*
X134412Y284000D01*
X134761Y282244D01*
X135756Y280756D01*
X137244Y279761D01*
X139000Y279412D01*
X140756Y279761D01*
X142244Y280756D01*
X142368Y280941D01*
X160733D01*
X167837Y273837D01*
X167837Y273837D01*
X168829Y273174D01*
X170000Y272941D01*
X170000Y272941D01*
X170632D01*
X170756Y272756D01*
X172244Y271761D01*
X174000Y271412D01*
X175756Y271761D01*
X177244Y272756D01*
X178239Y274244D01*
X178588Y276000D01*
X178239Y277756D01*
X177244Y279244D01*
X175756Y280239D01*
X174000Y280588D01*
X172244Y280239D01*
X170951Y279375D01*
X164163Y286163D01*
X163171Y286826D01*
X162000Y287059D01*
X162000Y287059D01*
X142368D01*
X142244Y287244D01*
X140756Y288239D01*
X139000Y288588D01*
D02*
G37*
%LPD*%
G36*
X134941Y473813D02*
Y462000D01*
X134941Y462000D01*
X135174Y460830D01*
X135837Y459837D01*
X142891Y452784D01*
X142825Y451775D01*
X141302Y449791D01*
X140345Y447480D01*
X140018Y445000D01*
X140345Y442520D01*
X141302Y440209D01*
X142825Y438224D01*
X144809Y436702D01*
X147120Y435745D01*
X149600Y435418D01*
X152080Y435745D01*
X153812Y436462D01*
X177945Y412329D01*
X177419Y411059D01*
X151267D01*
X127582Y434744D01*
X127880Y436242D01*
X128991Y436702D01*
X130976Y438224D01*
X132498Y440209D01*
X133455Y442520D01*
X133782Y445000D01*
X133455Y447480D01*
X132498Y449791D01*
X130976Y451775D01*
X128991Y453298D01*
X126680Y454255D01*
X124200Y454582D01*
X121720Y454255D01*
X119988Y453538D01*
X116059Y457467D01*
Y470854D01*
X117329Y471285D01*
X117939Y470490D01*
X119923Y468968D01*
X122234Y468010D01*
X124714Y467684D01*
X127194Y468010D01*
X129505Y468968D01*
X131489Y470490D01*
X133012Y472475D01*
X133671Y474066D01*
X134941Y473813D01*
D02*
G37*
D36*
X247000Y244000D02*
X250000D01*
X296000Y272000D02*
Y291000D01*
X183000Y319000D02*
X200000D01*
X357000Y340000D02*
Y342778D01*
X300778Y399000D02*
X357000Y342778D01*
X150000Y408000D02*
X261000D01*
X123000Y435000D02*
X150000Y408000D01*
X123000Y435000D02*
Y443800D01*
X124200Y445000D01*
X113000Y456200D02*
X124200Y445000D01*
X113000Y456200D02*
Y490952D01*
X124714Y502666D01*
X138000Y490552D02*
X150114Y502666D01*
X138000Y462000D02*
Y490552D01*
Y462000D02*
X149600Y450400D01*
Y445000D02*
Y450400D01*
Y445000D02*
X180600Y414000D01*
X264000D01*
X266001Y411999D01*
X267999D01*
X130000Y317000D02*
X149500Y336500D01*
X167500D01*
X169000Y335000D01*
Y334000D02*
Y335000D01*
X168500Y301500D02*
X173278D01*
X176500Y304722D01*
Y312500D01*
X183000Y319000D01*
X200000Y318000D02*
Y319000D01*
X203000Y347000D02*
X245000D01*
X297000Y399000D01*
X300778D01*
X231000Y371000D02*
Y371000D01*
X211500Y390500D02*
X231000Y371000D01*
X207500Y386500D02*
X223000Y371000D01*
X94500Y386500D02*
X207500D01*
X89000Y381000D02*
X94500Y386500D01*
X54000Y381000D02*
X89000D01*
X35000Y400000D02*
X54000Y381000D01*
X165500Y304500D02*
X168500Y301500D01*
X145500Y304500D02*
X165500D01*
X186000Y167000D02*
X211000Y142000D01*
X186000Y167000D02*
Y277000D01*
X116000Y266000D02*
X178000D01*
X109000Y259000D02*
X116000Y266000D01*
X102500Y256722D02*
Y261500D01*
X145500Y304500D01*
X108000Y259000D02*
X109000D01*
X91957Y273000D02*
X94000D01*
X10000Y354957D02*
X91957Y273000D01*
X10000Y354957D02*
Y357000D01*
X59500Y362500D02*
X127000Y295000D01*
X-10000Y375000D02*
X2500Y362500D01*
X59500D01*
X323000Y152000D02*
X342000D01*
X247000Y244000D02*
X248000Y243000D01*
X230000Y240221D02*
Y241000D01*
X223000Y240222D02*
Y242000D01*
Y240222D02*
X227722Y235500D01*
X228500D01*
X388000Y235000D02*
X392000Y231000D01*
X459000D01*
X460000Y232000D01*
X370000Y231000D02*
X394500Y206500D01*
X404763D01*
X405263Y207000D01*
X473000D01*
X366000Y227000D02*
X388000Y205000D01*
Y184000D02*
Y205000D01*
Y184000D02*
X391000Y181000D01*
X504000D01*
X227000Y269000D02*
X229000Y271000D01*
X210000Y256000D02*
X210000Y256000D01*
X101000Y129000D02*
X115000Y143000D01*
X-1000Y129000D02*
X101000D01*
X-15000Y115000D02*
X-1000Y129000D01*
X276000Y311000D02*
X296000Y291000D01*
X295000Y273000D02*
X296000Y272000D01*
X228500Y235500D02*
X237000Y227000D01*
X230000Y240221D02*
X239221Y231000D01*
X237999Y240000D02*
X242999Y235000D01*
X237000Y227000D02*
X366000D01*
X239221Y231000D02*
X370000D01*
X242999Y235000D02*
X388000D01*
X250000Y244000D02*
X251000Y245000D01*
X244000Y327000D02*
X278000D01*
X210000Y256000D02*
Y293000D01*
X243000Y320000D02*
X278000D01*
X229000Y271000D02*
Y306000D01*
X210000Y293000D02*
X244000Y327000D01*
X229000Y306000D02*
X243000Y320000D01*
X254000Y257000D02*
Y295000D01*
X243000Y306000D02*
X254000Y295000D01*
X259000Y302000D02*
X274000Y287000D01*
X251000Y245000D02*
X268737D01*
X269237Y244500D01*
X323500D01*
X326000Y247000D01*
X274000Y256000D02*
Y287000D01*
X312000Y163000D02*
X323000Y152000D01*
X312000Y163000D02*
Y195000D01*
X331000Y145000D02*
X379000D01*
X115000Y143000D02*
Y152000D01*
X176000Y213000D01*
Y244000D01*
X102500Y256722D02*
X110000Y249222D01*
Y237000D02*
Y249222D01*
X103000Y198000D02*
X105000Y196000D01*
Y148000D02*
Y196000D01*
X59000Y390000D02*
X59500Y390500D01*
X211500D01*
X139000Y284000D02*
X162000D01*
X170000Y276000D01*
X174000D01*
D37*
X358000Y126000D02*
Y136000D01*
X364000Y126000D02*
Y136000D01*
X293000Y126000D02*
Y137000D01*
D38*
X135000Y208000D02*
X144000Y199000D01*
X81000Y208000D02*
X135000D01*
X68000Y195000D02*
X81000Y208000D01*
X68000Y194000D02*
Y195000D01*
D39*
X160000Y318000D02*
X171000Y307000D01*
X160000Y318000D02*
Y331000D01*
X300000Y392000D02*
X349000Y343000D01*
Y340000D02*
Y343000D01*
X162000Y299000D02*
X164000Y297000D01*
X219000Y250000D02*
Y256000D01*
X164000Y297000D02*
X175000D01*
X192000Y251000D02*
Y280000D01*
X175000Y297000D02*
X192000Y280000D01*
X282000Y250000D02*
Y255000D01*
D40*
X536000Y158000D02*
Y263000D01*
X504000Y126000D02*
X536000Y158000D01*
X358000Y126000D02*
X364000D01*
X504000D01*
X293000D02*
X358000D01*
X144000D02*
X293000D01*
X144000D02*
Y138000D01*
D41*
X467000Y243000D02*
X511000Y199000D01*
X314000Y342000D02*
X327000Y355000D01*
X314000Y277000D02*
Y342000D01*
Y277000D02*
X348000Y243000D01*
X400000D02*
X467000D01*
X348000D02*
X400000D01*
X508000Y163000D02*
X511000Y166000D01*
Y199000D01*
X218500Y249499D02*
X219000Y250000D01*
X193500Y249499D02*
X218500D01*
X192000Y251000D02*
X193500Y249499D01*
X219000Y250000D02*
X270808D01*
X271308Y249500D01*
X281500D02*
X282000Y250000D01*
X271308Y249500D02*
X281500D01*
X287000Y250000D02*
X314000Y277000D01*
X282000Y250000D02*
X287000D01*
D42*
X60000Y448000D02*
X61014Y449014D01*
Y489766D01*
X73914Y502666D01*
D43*
X355000Y5000D02*
D03*
X405000D02*
D03*
X245000D02*
D03*
X295000D02*
D03*
X465000D02*
D03*
X515000D02*
D03*
D44*
X115000Y375000D02*
D03*
Y327000D02*
D03*
X400000Y168000D02*
D03*
Y243000D02*
D03*
Y218000D02*
D03*
Y193000D02*
D03*
Y143000D02*
D03*
D45*
X35000Y349200D02*
D03*
X-10000Y349600D02*
D03*
X125000Y42000D02*
D03*
Y-15000D02*
D03*
X15000Y89600D02*
D03*
X-15000D02*
D03*
D46*
X35000Y374600D02*
D03*
Y400000D02*
D03*
Y425400D02*
D03*
X-10000Y375000D02*
D03*
Y400400D02*
D03*
Y425800D02*
D03*
X175000Y445000D02*
D03*
X149600D02*
D03*
X124200D02*
D03*
X125000Y67400D02*
D03*
Y10400D02*
D03*
X15000Y140400D02*
D03*
Y115000D02*
D03*
X-15000Y140400D02*
D03*
Y115000D02*
D03*
X48514Y502666D02*
D03*
X73914Y477266D02*
D03*
Y502666D02*
D03*
X99314Y477266D02*
D03*
Y502666D02*
D03*
X124714Y477266D02*
D03*
Y502666D02*
D03*
X150114Y477266D02*
D03*
Y502666D02*
D03*
X175514Y477266D02*
D03*
Y502666D02*
D03*
X200914Y477266D02*
D03*
Y502666D02*
D03*
X226314Y477266D02*
D03*
Y502666D02*
D03*
X251714Y477266D02*
D03*
Y502666D02*
D03*
X277114Y477266D02*
D03*
Y502666D02*
D03*
X302514Y477266D02*
D03*
Y502666D02*
D03*
X327914Y477266D02*
D03*
Y502666D02*
D03*
X353314Y477266D02*
D03*
Y502666D02*
D03*
X378714Y477266D02*
D03*
Y502666D02*
D03*
X404114Y477266D02*
D03*
Y502666D02*
D03*
X429514Y477266D02*
D03*
Y502666D02*
D03*
X454914Y477266D02*
D03*
Y502666D02*
D03*
X480314Y477266D02*
D03*
Y502666D02*
D03*
X505714Y477266D02*
D03*
Y502666D02*
D03*
X531114Y477266D02*
D03*
Y502666D02*
D03*
D47*
X200400Y445000D02*
D03*
X48514Y477266D02*
D03*
D48*
X454000Y200000D02*
D03*
X445000D02*
D03*
X436000D02*
D03*
X218000Y439000D02*
D03*
X317000Y365000D02*
D03*
X348000Y434000D02*
D03*
Y426000D02*
D03*
Y417000D02*
D03*
Y408000D02*
D03*
X475000Y431000D02*
D03*
X484000D02*
D03*
X493000D02*
D03*
X474000Y409000D02*
D03*
X484000D02*
D03*
X493000D02*
D03*
X587000Y165000D02*
D03*
X595000D02*
D03*
X603000D02*
D03*
X587000Y146000D02*
D03*
X596000D02*
D03*
X604000D02*
D03*
X588000Y99000D02*
D03*
X596000D02*
D03*
X604000D02*
D03*
X588000Y80000D02*
D03*
X596000D02*
D03*
X604000Y79000D02*
D03*
X441000Y165000D02*
D03*
X449000D02*
D03*
X457000D02*
D03*
X441000Y145000D02*
D03*
X449000D02*
D03*
X457000D02*
D03*
X442000Y100000D02*
D03*
X450000D02*
D03*
X459000D02*
D03*
X441000Y80000D02*
D03*
X449000D02*
D03*
X458000D02*
D03*
X302000Y109000D02*
D03*
X311000D02*
D03*
X343000D02*
D03*
X353000D02*
D03*
X247000Y79000D02*
D03*
X257000D02*
D03*
X139000Y109000D02*
D03*
X148000D02*
D03*
X118000Y133000D02*
D03*
X119000Y126000D02*
D03*
X214000Y100000D02*
D03*
X221000Y106000D02*
D03*
X158000Y140000D02*
D03*
X168000D02*
D03*
X42000Y154000D02*
D03*
Y145000D02*
D03*
X43000Y196000D02*
D03*
Y181000D02*
D03*
X155000Y182000D02*
D03*
X154000Y201000D02*
D03*
X153000Y298000D02*
D03*
X152000Y329000D02*
D03*
X157000Y379000D02*
D03*
X265000Y262000D02*
D03*
X201000D02*
D03*
X226000Y217000D02*
D03*
X240000D02*
D03*
X259000Y179000D02*
D03*
X277000D02*
D03*
X293000D02*
D03*
X156000Y274000D02*
D03*
D49*
X0Y0D02*
D03*
X580000Y-0D02*
D03*
Y495000D02*
D03*
X0D02*
D03*
D50*
X171000Y307000D02*
D03*
X160000Y331000D02*
D03*
X300000Y392000D02*
D03*
X349000Y340000D02*
D03*
X357000D02*
D03*
X203000Y347000D02*
D03*
X327000Y355000D02*
D03*
X162000Y299000D02*
D03*
X219000Y256000D02*
D03*
X282000Y255000D02*
D03*
X508000Y163000D02*
D03*
X261000Y408000D02*
D03*
X267999Y411999D02*
D03*
X130000Y317000D02*
D03*
X169000Y334000D02*
D03*
X105000Y148000D02*
D03*
X200000Y318000D02*
D03*
X211000Y142000D02*
D03*
X231000Y371000D02*
D03*
X223000D02*
D03*
X174000Y276000D02*
D03*
X127000Y295000D02*
D03*
X192000Y251000D02*
D03*
X186000Y277000D02*
D03*
X178000Y266000D02*
D03*
X108000Y259000D02*
D03*
X94000Y273000D02*
D03*
X10000Y357000D02*
D03*
X312000Y195000D02*
D03*
X342000Y152000D02*
D03*
X223000Y242000D02*
D03*
X230000Y241000D02*
D03*
X248000Y243000D02*
D03*
X237999Y240000D02*
D03*
X460000Y232000D02*
D03*
X473000Y207000D02*
D03*
X504000Y181000D02*
D03*
X485000Y227000D02*
D03*
X278000Y320000D02*
D03*
Y327000D02*
D03*
X227000Y269000D02*
D03*
X210000Y256000D02*
D03*
X176000Y244000D02*
D03*
X326000Y247000D02*
D03*
X276000Y311000D02*
D03*
X295000Y273000D02*
D03*
X254000Y257000D02*
D03*
X243000Y306000D02*
D03*
X259000Y302000D02*
D03*
X274000Y256000D02*
D03*
X331000Y145000D02*
D03*
X379000D02*
D03*
X358000Y136000D02*
D03*
X364000D02*
D03*
X293000Y137000D02*
D03*
X110000Y237000D02*
D03*
X103000Y198000D02*
D03*
X59000Y390000D02*
D03*
X139000Y284000D02*
D03*
D51*
X536000Y263000D02*
D03*
D52*
X144000Y138000D02*
D03*
Y199000D02*
D03*
X68000Y194000D02*
D03*
X60000Y448000D02*
D03*
M02*
