G04 Layer_Color=8388736*
%FSLAX44Y44*%
%MOMM*%
G71*
G01*
G75*
%ADD59R,0.9144X0.9652*%
%ADD60R,0.9652X0.9144*%
%ADD61O,0.4532X1.7532*%
%ADD62O,1.7532X0.4532*%
%ADD63R,2.7032X1.2032*%
%ADD64R,2.6032X1.2032*%
%ADD65R,2.6032X3.5032*%
%ADD66R,2.5032X2.5032*%
%ADD67R,6.5032X6.3032*%
%ADD68R,1.7032X3.0032*%
%ADD69O,2.4032X0.8032*%
%ADD70R,2.3032X1.0032*%
G04:AMPARAMS|DCode=71|XSize=2.3032mm|YSize=1.0032mm|CornerRadius=0.3016mm|HoleSize=0mm|Usage=FLASHONLY|Rotation=0.000|XOffset=0mm|YOffset=0mm|HoleType=Round|Shape=RoundedRectangle|*
%AMROUNDEDRECTD71*
21,1,2.3032,0.4000,0,0,0.0*
21,1,1.7000,1.0032,0,0,0.0*
1,1,0.6032,0.8500,-0.2000*
1,1,0.6032,-0.8500,-0.2000*
1,1,0.6032,-0.8500,0.2000*
1,1,0.6032,0.8500,0.2000*
%
%ADD71ROUNDEDRECTD71*%
%ADD72R,1.6532X0.6532*%
%ADD73R,0.5032X1.4032*%
%ADD74O,0.5032X1.4032*%
%ADD75R,1.0032X1.0032*%
%ADD76R,1.0032X1.0032*%
%ADD77R,1.9032X1.3032*%
%ADD78R,0.8032X1.1032*%
%ADD79O,0.8032X2.4032*%
%ADD80R,1.6032X1.5032*%
%ADD81R,1.5032X1.6032*%
%ADD82R,3.6322X2.6162*%
%ADD83R,2.2032X1.8032*%
%ADD84R,2.6162X3.6322*%
%ADD85C,3.2032*%
%ADD86C,1.9032*%
%ADD87R,1.7032X1.7032*%
%ADD88C,1.7032*%
%ADD89R,1.7032X1.7032*%
%ADD90C,0.8032*%
%ADD91C,6.4032*%
%ADD92C,0.7032*%
%ADD93C,2.2032*%
%ADD94C,1.2032*%
D59*
X147500Y250000D02*
D03*
X163700D02*
D03*
X213700Y422500D02*
D03*
X197500D02*
D03*
X590000Y240000D02*
D03*
X606200D02*
D03*
X508800Y195000D02*
D03*
X525000D02*
D03*
X543800D02*
D03*
X560000D02*
D03*
X371200Y375000D02*
D03*
X355000D02*
D03*
X266300Y262500D02*
D03*
X282500D02*
D03*
X202500D02*
D03*
X218700D02*
D03*
X193950Y238000D02*
D03*
X210150D02*
D03*
X83950Y236000D02*
D03*
X100150D02*
D03*
X201150Y101000D02*
D03*
X184950D02*
D03*
X91150Y99000D02*
D03*
X74950D02*
D03*
D60*
X165000Y266300D02*
D03*
Y282500D02*
D03*
X147500D02*
D03*
Y266300D02*
D03*
X162500Y298800D02*
D03*
Y315000D02*
D03*
X147500Y298800D02*
D03*
Y315000D02*
D03*
X147500Y330000D02*
D03*
Y346200D02*
D03*
X162500Y347500D02*
D03*
Y363700D02*
D03*
X147500Y378700D02*
D03*
Y362500D02*
D03*
X530000Y300000D02*
D03*
Y283800D02*
D03*
X515000D02*
D03*
Y300000D02*
D03*
X485000Y211200D02*
D03*
Y195000D02*
D03*
X485000Y243200D02*
D03*
Y227000D02*
D03*
X400000Y346200D02*
D03*
Y330000D02*
D03*
X385000Y346200D02*
D03*
Y330000D02*
D03*
X317500Y368800D02*
D03*
Y385000D02*
D03*
X430000Y300000D02*
D03*
Y283800D02*
D03*
X415000D02*
D03*
Y300000D02*
D03*
X398000Y300200D02*
D03*
Y284000D02*
D03*
X178950Y198000D02*
D03*
Y214200D02*
D03*
X163950D02*
D03*
Y198000D02*
D03*
Y166800D02*
D03*
Y183000D02*
D03*
X68950Y196000D02*
D03*
Y212200D02*
D03*
X53950D02*
D03*
Y196000D02*
D03*
Y164800D02*
D03*
Y181000D02*
D03*
X227500Y422500D02*
D03*
Y438700D02*
D03*
X245000D02*
D03*
Y422500D02*
D03*
X349000Y312000D02*
D03*
Y328200D02*
D03*
X331500Y312000D02*
D03*
Y328200D02*
D03*
D61*
X202500Y395250D02*
D03*
X207500D02*
D03*
X212500D02*
D03*
X217500D02*
D03*
X222500D02*
D03*
X227500D02*
D03*
X232500D02*
D03*
X237500D02*
D03*
X242500D02*
D03*
X247500D02*
D03*
X252500D02*
D03*
X257500D02*
D03*
X262500D02*
D03*
X267500D02*
D03*
X272500D02*
D03*
X277500D02*
D03*
Y284750D02*
D03*
X272500D02*
D03*
X267500D02*
D03*
X262500D02*
D03*
X257500D02*
D03*
X252500D02*
D03*
X247500D02*
D03*
X242500D02*
D03*
X237500D02*
D03*
X232500D02*
D03*
X227500D02*
D03*
X222500D02*
D03*
X217500D02*
D03*
X212500D02*
D03*
X207500D02*
D03*
X202500D02*
D03*
D62*
X295250Y377500D02*
D03*
Y372500D02*
D03*
Y367500D02*
D03*
Y362500D02*
D03*
Y357500D02*
D03*
Y352500D02*
D03*
Y347500D02*
D03*
Y342500D02*
D03*
Y337500D02*
D03*
Y332500D02*
D03*
Y327500D02*
D03*
Y322500D02*
D03*
Y317500D02*
D03*
Y312500D02*
D03*
Y307500D02*
D03*
Y302500D02*
D03*
X184750D02*
D03*
Y307500D02*
D03*
Y312500D02*
D03*
Y317500D02*
D03*
Y322500D02*
D03*
Y327500D02*
D03*
Y332500D02*
D03*
Y337500D02*
D03*
Y342500D02*
D03*
Y347500D02*
D03*
Y352500D02*
D03*
Y357500D02*
D03*
Y362500D02*
D03*
Y367500D02*
D03*
Y372500D02*
D03*
Y377500D02*
D03*
D63*
X425000Y420000D02*
D03*
X485000D02*
D03*
D64*
X389000Y397000D02*
D03*
Y420000D02*
D03*
Y443000D02*
D03*
D65*
X331000Y420000D02*
D03*
D66*
X520000Y372500D02*
D03*
Y327500D02*
D03*
D67*
X575000Y353000D02*
D03*
D68*
X597800Y290500D02*
D03*
X552200D02*
D03*
D69*
X511000Y254050D02*
D03*
Y241350D02*
D03*
Y228650D02*
D03*
Y215950D02*
D03*
X559000Y254050D02*
D03*
Y241350D02*
D03*
Y228650D02*
D03*
Y215950D02*
D03*
D70*
X538000Y155000D02*
D03*
X512000Y90000D02*
D03*
X538000D02*
D03*
X507000Y155000D02*
D03*
D71*
X596000D02*
D03*
X454000Y90000D02*
D03*
X596000D02*
D03*
X449000Y155000D02*
D03*
D72*
X450000Y301500D02*
D03*
Y295000D02*
D03*
Y288500D02*
D03*
Y282000D02*
D03*
X494000D02*
D03*
Y288500D02*
D03*
Y295000D02*
D03*
Y301500D02*
D03*
D73*
X293000Y89000D02*
D03*
D74*
X299500D02*
D03*
X306000D02*
D03*
X312500D02*
D03*
X319000D02*
D03*
X325500D02*
D03*
X332000D02*
D03*
X338500D02*
D03*
X345000D02*
D03*
X351500D02*
D03*
X358000D02*
D03*
X364500D02*
D03*
X293000Y165000D02*
D03*
X299500D02*
D03*
X306000D02*
D03*
X312500D02*
D03*
X319000D02*
D03*
X325500D02*
D03*
X332000D02*
D03*
X338500D02*
D03*
X345000D02*
D03*
X351500D02*
D03*
X358000D02*
D03*
X364500D02*
D03*
D75*
X294000Y238000D02*
D03*
Y223000D02*
D03*
X276500Y238000D02*
D03*
Y223000D02*
D03*
X259000Y238000D02*
D03*
Y223000D02*
D03*
D76*
X294000Y190500D02*
D03*
Y205500D02*
D03*
X276500Y190500D02*
D03*
Y205500D02*
D03*
X259000Y190500D02*
D03*
Y205500D02*
D03*
D77*
X233950Y227986D02*
D03*
Y198014D02*
D03*
X123950Y225986D02*
D03*
Y196014D02*
D03*
D78*
X213450Y219500D02*
D03*
X194450D02*
D03*
X203950Y196500D02*
D03*
X103450Y217500D02*
D03*
X84450D02*
D03*
X93950Y194500D02*
D03*
D79*
X185900Y122000D02*
D03*
X198600D02*
D03*
X211300D02*
D03*
X224000D02*
D03*
X185900Y170000D02*
D03*
X198600D02*
D03*
X211300D02*
D03*
X224000D02*
D03*
X75900Y120000D02*
D03*
X88600D02*
D03*
X101300D02*
D03*
X114000D02*
D03*
X75900Y168000D02*
D03*
X88600D02*
D03*
X101300D02*
D03*
X114000D02*
D03*
D80*
X54950Y120000D02*
D03*
Y149000D02*
D03*
X164950Y122000D02*
D03*
Y151000D02*
D03*
D81*
X225000Y64000D02*
D03*
X254000D02*
D03*
X115000Y95000D02*
D03*
X144000D02*
D03*
D82*
X178950Y73000D02*
D03*
Y14610D02*
D03*
X68950Y71000D02*
D03*
Y12610D02*
D03*
D83*
X130000Y270000D02*
D03*
X70000D02*
D03*
D84*
X485000Y345000D02*
D03*
X426610D02*
D03*
D85*
X355000Y5000D02*
D03*
X405000D02*
D03*
X245000D02*
D03*
X295000D02*
D03*
X465000D02*
D03*
X515000D02*
D03*
D86*
X115000Y375000D02*
D03*
Y327000D02*
D03*
X400000Y168000D02*
D03*
Y243000D02*
D03*
Y218000D02*
D03*
Y193000D02*
D03*
Y143000D02*
D03*
D87*
X35000Y349200D02*
D03*
X-10000Y349600D02*
D03*
X125000Y42000D02*
D03*
Y-15000D02*
D03*
X15000Y89600D02*
D03*
X-15000D02*
D03*
D88*
X35000Y374600D02*
D03*
Y400000D02*
D03*
Y425400D02*
D03*
X-10000Y375000D02*
D03*
Y400400D02*
D03*
Y425800D02*
D03*
X175000Y445000D02*
D03*
X149600D02*
D03*
X124200D02*
D03*
X125000Y67400D02*
D03*
Y10400D02*
D03*
X15000Y140400D02*
D03*
Y115000D02*
D03*
X-15000Y140400D02*
D03*
Y115000D02*
D03*
X48514Y502666D02*
D03*
X73914Y477266D02*
D03*
Y502666D02*
D03*
X99314Y477266D02*
D03*
Y502666D02*
D03*
X124714Y477266D02*
D03*
Y502666D02*
D03*
X150114Y477266D02*
D03*
Y502666D02*
D03*
X175514Y477266D02*
D03*
Y502666D02*
D03*
X200914Y477266D02*
D03*
Y502666D02*
D03*
X226314Y477266D02*
D03*
Y502666D02*
D03*
X251714Y477266D02*
D03*
Y502666D02*
D03*
X277114Y477266D02*
D03*
Y502666D02*
D03*
X302514Y477266D02*
D03*
Y502666D02*
D03*
X327914Y477266D02*
D03*
Y502666D02*
D03*
X353314Y477266D02*
D03*
Y502666D02*
D03*
X378714Y477266D02*
D03*
Y502666D02*
D03*
X404114Y477266D02*
D03*
Y502666D02*
D03*
X429514Y477266D02*
D03*
Y502666D02*
D03*
X454914Y477266D02*
D03*
Y502666D02*
D03*
X480314Y477266D02*
D03*
Y502666D02*
D03*
X505714Y477266D02*
D03*
Y502666D02*
D03*
X531114Y477266D02*
D03*
Y502666D02*
D03*
D89*
X200400Y445000D02*
D03*
X48514Y477266D02*
D03*
D90*
X454000Y200000D02*
D03*
X445000D02*
D03*
X436000D02*
D03*
X218000Y439000D02*
D03*
X317000Y365000D02*
D03*
X348000Y434000D02*
D03*
Y426000D02*
D03*
Y417000D02*
D03*
Y408000D02*
D03*
X475000Y431000D02*
D03*
X484000D02*
D03*
X493000D02*
D03*
X474000Y409000D02*
D03*
X484000D02*
D03*
X493000D02*
D03*
X587000Y165000D02*
D03*
X595000D02*
D03*
X603000D02*
D03*
X587000Y146000D02*
D03*
X596000D02*
D03*
X604000D02*
D03*
X588000Y99000D02*
D03*
X596000D02*
D03*
X604000D02*
D03*
X588000Y80000D02*
D03*
X596000D02*
D03*
X604000Y79000D02*
D03*
X441000Y165000D02*
D03*
X449000D02*
D03*
X457000D02*
D03*
X441000Y145000D02*
D03*
X449000D02*
D03*
X457000D02*
D03*
X442000Y100000D02*
D03*
X450000D02*
D03*
X459000D02*
D03*
X441000Y80000D02*
D03*
X449000D02*
D03*
X458000D02*
D03*
X302000Y109000D02*
D03*
X311000D02*
D03*
X343000D02*
D03*
X353000D02*
D03*
X247000Y79000D02*
D03*
X257000D02*
D03*
X139000Y109000D02*
D03*
X148000D02*
D03*
X118000Y133000D02*
D03*
X119000Y126000D02*
D03*
X214000Y100000D02*
D03*
X221000Y106000D02*
D03*
X158000Y140000D02*
D03*
X168000D02*
D03*
X42000Y154000D02*
D03*
Y145000D02*
D03*
X43000Y196000D02*
D03*
Y181000D02*
D03*
X155000Y182000D02*
D03*
X154000Y201000D02*
D03*
X153000Y298000D02*
D03*
X152000Y329000D02*
D03*
X157000Y379000D02*
D03*
X265000Y262000D02*
D03*
X201000D02*
D03*
X226000Y217000D02*
D03*
X240000D02*
D03*
X259000Y179000D02*
D03*
X277000D02*
D03*
X293000D02*
D03*
X156000Y274000D02*
D03*
D91*
X0Y0D02*
D03*
X580000Y-0D02*
D03*
Y495000D02*
D03*
X0D02*
D03*
D92*
X171000Y307000D02*
D03*
X160000Y331000D02*
D03*
X300000Y392000D02*
D03*
X349000Y340000D02*
D03*
X357000D02*
D03*
X203000Y347000D02*
D03*
X327000Y355000D02*
D03*
X162000Y299000D02*
D03*
X219000Y256000D02*
D03*
X282000Y255000D02*
D03*
X508000Y163000D02*
D03*
X261000Y408000D02*
D03*
X267999Y411999D02*
D03*
X130000Y317000D02*
D03*
X169000Y334000D02*
D03*
X105000Y148000D02*
D03*
X200000Y318000D02*
D03*
X211000Y142000D02*
D03*
X231000Y371000D02*
D03*
X223000D02*
D03*
X174000Y276000D02*
D03*
X127000Y295000D02*
D03*
X192000Y251000D02*
D03*
X186000Y277000D02*
D03*
X178000Y266000D02*
D03*
X108000Y259000D02*
D03*
X94000Y273000D02*
D03*
X10000Y357000D02*
D03*
X312000Y195000D02*
D03*
X342000Y152000D02*
D03*
X223000Y242000D02*
D03*
X230000Y241000D02*
D03*
X248000Y243000D02*
D03*
X237999Y240000D02*
D03*
X460000Y232000D02*
D03*
X473000Y207000D02*
D03*
X504000Y181000D02*
D03*
X485000Y227000D02*
D03*
X278000Y320000D02*
D03*
Y327000D02*
D03*
X227000Y269000D02*
D03*
X210000Y256000D02*
D03*
X176000Y244000D02*
D03*
X326000Y247000D02*
D03*
X276000Y311000D02*
D03*
X295000Y273000D02*
D03*
X254000Y257000D02*
D03*
X243000Y306000D02*
D03*
X259000Y302000D02*
D03*
X274000Y256000D02*
D03*
X331000Y145000D02*
D03*
X379000D02*
D03*
X358000Y136000D02*
D03*
X364000D02*
D03*
X293000Y137000D02*
D03*
X110000Y237000D02*
D03*
X103000Y198000D02*
D03*
X59000Y390000D02*
D03*
X139000Y284000D02*
D03*
D93*
X536000Y263000D02*
D03*
D94*
X144000Y138000D02*
D03*
Y199000D02*
D03*
X68000Y194000D02*
D03*
X60000Y448000D02*
D03*
M02*
