G04 Layer_Color=255*
%FSLAX44Y44*%
%MOMM*%
G71*
G01*
G75*
%ADD10R,0.7112X0.7620*%
%ADD11R,0.7620X0.7112*%
%ADD12O,0.2500X1.5500*%
%ADD13O,1.5500X0.2500*%
%ADD14R,2.5000X1.0000*%
%ADD15R,2.4000X1.0000*%
%ADD16R,2.4000X3.3000*%
%ADD17R,2.3000X2.3000*%
%ADD18R,6.3000X6.1000*%
%ADD19R,1.5000X2.8000*%
%ADD20O,2.2000X0.6000*%
%ADD21R,2.1000X0.8000*%
G04:AMPARAMS|DCode=22|XSize=2.1mm|YSize=0.8mm|CornerRadius=0.2mm|HoleSize=0mm|Usage=FLASHONLY|Rotation=0.000|XOffset=0mm|YOffset=0mm|HoleType=Round|Shape=RoundedRectangle|*
%AMROUNDEDRECTD22*
21,1,2.1000,0.4000,0,0,0.0*
21,1,1.7000,0.8000,0,0,0.0*
1,1,0.4000,0.8500,-0.2000*
1,1,0.4000,-0.8500,-0.2000*
1,1,0.4000,-0.8500,0.2000*
1,1,0.4000,0.8500,0.2000*
%
%ADD22ROUNDEDRECTD22*%
%ADD23R,1.4500X0.4500*%
%ADD24R,0.3000X1.2000*%
%ADD25O,0.3000X1.2000*%
%ADD26R,0.8000X0.8000*%
%ADD27R,0.8000X0.8000*%
%ADD28R,1.7000X1.1000*%
%ADD29R,0.6000X0.9000*%
%ADD30O,0.6000X2.2000*%
%ADD31R,1.4000X1.3000*%
%ADD32R,1.3000X1.4000*%
%ADD33R,3.4290X2.4130*%
%ADD34R,2.0000X1.6000*%
%ADD35R,2.4130X3.4290*%
%ADD43C,3.0000*%
%ADD44C,1.7000*%
%ADD45R,1.5000X1.5000*%
%ADD46C,1.5000*%
%ADD47R,1.5000X1.5000*%
D10*
X147500Y250000D02*
D03*
X163700D02*
D03*
X213700Y422500D02*
D03*
X197500D02*
D03*
X590000Y240000D02*
D03*
X606200D02*
D03*
X508800Y195000D02*
D03*
X525000D02*
D03*
X543800D02*
D03*
X560000D02*
D03*
X371200Y375000D02*
D03*
X355000D02*
D03*
X266300Y262500D02*
D03*
X282500D02*
D03*
X202500D02*
D03*
X218700D02*
D03*
X193950Y238000D02*
D03*
X210150D02*
D03*
X83950Y236000D02*
D03*
X100150D02*
D03*
X201150Y101000D02*
D03*
X184950D02*
D03*
X91150Y99000D02*
D03*
X74950D02*
D03*
D11*
X165000Y266300D02*
D03*
Y282500D02*
D03*
X147500D02*
D03*
Y266300D02*
D03*
X162500Y298800D02*
D03*
Y315000D02*
D03*
X147500Y298800D02*
D03*
Y315000D02*
D03*
X147500Y330000D02*
D03*
Y346200D02*
D03*
X162500Y347500D02*
D03*
Y363700D02*
D03*
X147500Y378700D02*
D03*
Y362500D02*
D03*
X530000Y300000D02*
D03*
Y283800D02*
D03*
X515000D02*
D03*
Y300000D02*
D03*
X485000Y211200D02*
D03*
Y195000D02*
D03*
X485000Y243200D02*
D03*
Y227000D02*
D03*
X400000Y346200D02*
D03*
Y330000D02*
D03*
X385000Y346200D02*
D03*
Y330000D02*
D03*
X317500Y368800D02*
D03*
Y385000D02*
D03*
X430000Y300000D02*
D03*
Y283800D02*
D03*
X415000D02*
D03*
Y300000D02*
D03*
X398000Y300200D02*
D03*
Y284000D02*
D03*
X178950Y198000D02*
D03*
Y214200D02*
D03*
X163950D02*
D03*
Y198000D02*
D03*
Y166800D02*
D03*
Y183000D02*
D03*
X68950Y196000D02*
D03*
Y212200D02*
D03*
X53950D02*
D03*
Y196000D02*
D03*
Y164800D02*
D03*
Y181000D02*
D03*
X227500Y422500D02*
D03*
Y438700D02*
D03*
X245000D02*
D03*
Y422500D02*
D03*
X349000Y312000D02*
D03*
Y328200D02*
D03*
X331500Y312000D02*
D03*
Y328200D02*
D03*
D12*
X202500Y395250D02*
D03*
X207500D02*
D03*
X212500D02*
D03*
X217500D02*
D03*
X222500D02*
D03*
X227500D02*
D03*
X232500D02*
D03*
X237500D02*
D03*
X242500D02*
D03*
X247500D02*
D03*
X252500D02*
D03*
X257500D02*
D03*
X262500D02*
D03*
X267500D02*
D03*
X272500D02*
D03*
X277500D02*
D03*
Y284750D02*
D03*
X272500D02*
D03*
X267500D02*
D03*
X262500D02*
D03*
X257500D02*
D03*
X252500D02*
D03*
X247500D02*
D03*
X242500D02*
D03*
X237500D02*
D03*
X232500D02*
D03*
X227500D02*
D03*
X222500D02*
D03*
X217500D02*
D03*
X212500D02*
D03*
X207500D02*
D03*
X202500D02*
D03*
D13*
X295250Y377500D02*
D03*
Y372500D02*
D03*
Y367500D02*
D03*
Y362500D02*
D03*
Y357500D02*
D03*
Y352500D02*
D03*
Y347500D02*
D03*
Y342500D02*
D03*
Y337500D02*
D03*
Y332500D02*
D03*
Y327500D02*
D03*
Y322500D02*
D03*
Y317500D02*
D03*
Y312500D02*
D03*
Y307500D02*
D03*
Y302500D02*
D03*
X184750D02*
D03*
Y307500D02*
D03*
Y312500D02*
D03*
Y317500D02*
D03*
Y322500D02*
D03*
Y327500D02*
D03*
Y332500D02*
D03*
Y337500D02*
D03*
Y342500D02*
D03*
Y347500D02*
D03*
Y352500D02*
D03*
Y357500D02*
D03*
Y362500D02*
D03*
Y367500D02*
D03*
Y372500D02*
D03*
Y377500D02*
D03*
D14*
X425000Y420000D02*
D03*
X485000D02*
D03*
D15*
X389000Y397000D02*
D03*
Y420000D02*
D03*
Y443000D02*
D03*
D16*
X331000Y420000D02*
D03*
D17*
X520000Y372500D02*
D03*
Y327500D02*
D03*
D18*
X575000Y353000D02*
D03*
D19*
X597800Y290500D02*
D03*
X552200D02*
D03*
D20*
X511000Y254050D02*
D03*
Y241350D02*
D03*
Y228650D02*
D03*
Y215950D02*
D03*
X559000Y254050D02*
D03*
Y241350D02*
D03*
Y228650D02*
D03*
Y215950D02*
D03*
D21*
X538000Y155000D02*
D03*
X512000Y90000D02*
D03*
X538000D02*
D03*
X507000Y155000D02*
D03*
D22*
X596000D02*
D03*
X454000Y90000D02*
D03*
X596000D02*
D03*
X449000Y155000D02*
D03*
D23*
X450000Y301500D02*
D03*
Y295000D02*
D03*
Y288500D02*
D03*
Y282000D02*
D03*
X494000D02*
D03*
Y288500D02*
D03*
Y295000D02*
D03*
Y301500D02*
D03*
D24*
X293000Y89000D02*
D03*
D25*
X299500D02*
D03*
X306000D02*
D03*
X312500D02*
D03*
X319000D02*
D03*
X325500D02*
D03*
X332000D02*
D03*
X338500D02*
D03*
X345000D02*
D03*
X351500D02*
D03*
X358000D02*
D03*
X364500D02*
D03*
X293000Y165000D02*
D03*
X299500D02*
D03*
X306000D02*
D03*
X312500D02*
D03*
X319000D02*
D03*
X325500D02*
D03*
X332000D02*
D03*
X338500D02*
D03*
X345000D02*
D03*
X351500D02*
D03*
X358000D02*
D03*
X364500D02*
D03*
D26*
X294000Y238000D02*
D03*
Y223000D02*
D03*
X276500Y238000D02*
D03*
Y223000D02*
D03*
X259000Y238000D02*
D03*
Y223000D02*
D03*
D27*
X294000Y190500D02*
D03*
Y205500D02*
D03*
X276500Y190500D02*
D03*
Y205500D02*
D03*
X259000Y190500D02*
D03*
Y205500D02*
D03*
D28*
X233950Y227986D02*
D03*
Y198014D02*
D03*
X123950Y225986D02*
D03*
Y196014D02*
D03*
D29*
X213450Y219500D02*
D03*
X194450D02*
D03*
X203950Y196500D02*
D03*
X103450Y217500D02*
D03*
X84450D02*
D03*
X93950Y194500D02*
D03*
D30*
X185900Y122000D02*
D03*
X198600D02*
D03*
X211300D02*
D03*
X224000D02*
D03*
X185900Y170000D02*
D03*
X198600D02*
D03*
X211300D02*
D03*
X224000D02*
D03*
X75900Y120000D02*
D03*
X88600D02*
D03*
X101300D02*
D03*
X114000D02*
D03*
X75900Y168000D02*
D03*
X88600D02*
D03*
X101300D02*
D03*
X114000D02*
D03*
D31*
X54950Y120000D02*
D03*
Y149000D02*
D03*
X164950Y122000D02*
D03*
Y151000D02*
D03*
D32*
X225000Y64000D02*
D03*
X254000D02*
D03*
X115000Y95000D02*
D03*
X144000D02*
D03*
D33*
X178950Y73000D02*
D03*
Y14610D02*
D03*
X68950Y71000D02*
D03*
Y12610D02*
D03*
D34*
X130000Y270000D02*
D03*
X70000D02*
D03*
D35*
X485000Y345000D02*
D03*
X426610D02*
D03*
D43*
X355000Y5000D02*
D03*
X405000D02*
D03*
X245000D02*
D03*
X295000D02*
D03*
X465000D02*
D03*
X515000D02*
D03*
D44*
X115000Y375000D02*
D03*
Y327000D02*
D03*
X400000Y168000D02*
D03*
Y243000D02*
D03*
Y218000D02*
D03*
Y193000D02*
D03*
Y143000D02*
D03*
D45*
X35000Y349200D02*
D03*
X-10000Y349600D02*
D03*
X125000Y42000D02*
D03*
Y-15000D02*
D03*
X15000Y89600D02*
D03*
X-15000D02*
D03*
D46*
X35000Y374600D02*
D03*
Y400000D02*
D03*
Y425400D02*
D03*
X-10000Y375000D02*
D03*
Y400400D02*
D03*
Y425800D02*
D03*
X175000Y445000D02*
D03*
X149600D02*
D03*
X124200D02*
D03*
X125000Y67400D02*
D03*
Y10400D02*
D03*
X15000Y140400D02*
D03*
Y115000D02*
D03*
X-15000Y140400D02*
D03*
Y115000D02*
D03*
X48514Y502666D02*
D03*
X73914Y477266D02*
D03*
Y502666D02*
D03*
X99314Y477266D02*
D03*
Y502666D02*
D03*
X124714Y477266D02*
D03*
Y502666D02*
D03*
X150114Y477266D02*
D03*
Y502666D02*
D03*
X175514Y477266D02*
D03*
Y502666D02*
D03*
X200914Y477266D02*
D03*
Y502666D02*
D03*
X226314Y477266D02*
D03*
Y502666D02*
D03*
X251714Y477266D02*
D03*
Y502666D02*
D03*
X277114Y477266D02*
D03*
Y502666D02*
D03*
X302514Y477266D02*
D03*
Y502666D02*
D03*
X327914Y477266D02*
D03*
Y502666D02*
D03*
X353314Y477266D02*
D03*
Y502666D02*
D03*
X378714Y477266D02*
D03*
Y502666D02*
D03*
X404114Y477266D02*
D03*
Y502666D02*
D03*
X429514Y477266D02*
D03*
Y502666D02*
D03*
X454914Y477266D02*
D03*
Y502666D02*
D03*
X480314Y477266D02*
D03*
Y502666D02*
D03*
X505714Y477266D02*
D03*
Y502666D02*
D03*
X531114Y477266D02*
D03*
Y502666D02*
D03*
D47*
X200400Y445000D02*
D03*
X48514Y477266D02*
D03*
M02*
