G04 Layer_Color=255*
%FSLAX44Y44*%
%MOMM*%
G71*
G01*
G75*
%ADD43C,3.0000*%
%ADD44C,1.7000*%
%ADD45R,1.5000X1.5000*%
%ADD46C,1.5000*%
%ADD47R,1.5000X1.5000*%
D43*
X355000Y5000D02*
D03*
X405000D02*
D03*
X245000D02*
D03*
X295000D02*
D03*
X465000D02*
D03*
X515000D02*
D03*
D44*
X115000Y375000D02*
D03*
Y327000D02*
D03*
X400000Y168000D02*
D03*
Y243000D02*
D03*
Y218000D02*
D03*
Y193000D02*
D03*
Y143000D02*
D03*
D45*
X35000Y349200D02*
D03*
X-10000Y349600D02*
D03*
X125000Y42000D02*
D03*
Y-15000D02*
D03*
X15000Y89600D02*
D03*
X-15000D02*
D03*
D46*
X35000Y374600D02*
D03*
Y400000D02*
D03*
Y425400D02*
D03*
X-10000Y375000D02*
D03*
Y400400D02*
D03*
Y425800D02*
D03*
X175000Y445000D02*
D03*
X149600D02*
D03*
X124200D02*
D03*
X125000Y67400D02*
D03*
Y10400D02*
D03*
X15000Y140400D02*
D03*
Y115000D02*
D03*
X-15000Y140400D02*
D03*
Y115000D02*
D03*
X48514Y502666D02*
D03*
X73914Y477266D02*
D03*
Y502666D02*
D03*
X99314Y477266D02*
D03*
Y502666D02*
D03*
X124714Y477266D02*
D03*
Y502666D02*
D03*
X150114Y477266D02*
D03*
Y502666D02*
D03*
X175514Y477266D02*
D03*
Y502666D02*
D03*
X200914Y477266D02*
D03*
Y502666D02*
D03*
X226314Y477266D02*
D03*
Y502666D02*
D03*
X251714Y477266D02*
D03*
Y502666D02*
D03*
X277114Y477266D02*
D03*
Y502666D02*
D03*
X302514Y477266D02*
D03*
Y502666D02*
D03*
X327914Y477266D02*
D03*
Y502666D02*
D03*
X353314Y477266D02*
D03*
Y502666D02*
D03*
X378714Y477266D02*
D03*
Y502666D02*
D03*
X404114Y477266D02*
D03*
Y502666D02*
D03*
X429514Y477266D02*
D03*
Y502666D02*
D03*
X454914Y477266D02*
D03*
Y502666D02*
D03*
X480314Y477266D02*
D03*
Y502666D02*
D03*
X505714Y477266D02*
D03*
Y502666D02*
D03*
X531114Y477266D02*
D03*
Y502666D02*
D03*
D47*
X200400Y445000D02*
D03*
X48514Y477266D02*
D03*
M02*
