M48
;Layer_Color=9474304
;FILE_FORMAT=4:4
METRIC,TZ
;TYPE=PLATED
T1F00S00C0.3000
T2F00S00C0.5000
T3F00S00C0.8000
T4F00S00C0.9000
T5F00S00C1.0000
T6F00S00C1.3000
T7F00S00C2.7500
%
T01
X139000Y109000
X148000
X214000Y100000
X221000Y106000
X247000Y79000
X257000
X302000Y109000
X311000
X343000
X353000
X442000Y100000
X450000
X459000
X458000Y80000
X449000
X441000
X588000
X596000
X604000Y79000
Y99000
X596000
X588000
X587000Y146000
X596000
X604000
X603000Y165000
X595000
X587000
X508000Y163000
X504000Y181000
X473000Y207000
X454000Y200000
X445000
X436000
X441000Y165000
X449000
X457000
Y145000
X449000
X441000
X379000
X364000Y136000
X358000
X342000Y152000
X331000Y145000
X293000Y137000
Y179000
X277000
X259000
X240000Y217000
X226000
X223000Y242000
X230000Y241000
X237999Y240000
X248000Y243000
X254000Y257000
X265000Y262000
X274000Y256000
X282000Y255000
X295000Y273000
X276000Y311000
X278000Y320000
Y327000
X259000Y302000
X243000Y306000
X227000Y269000
X219000Y256000
X210000Y256000
X201000Y262000
X192000Y251000
X176000Y244000
X178000Y266000
X174000Y276000
X186000Y277000
X156000Y274000
X153000Y298000
X162000Y299000
X171000Y307000
X169000Y334000
X160000Y331000
X152000Y329000
X130000Y317000
X127000Y295000
X139000Y284000
X108000Y259000
X110000Y237000
X154000Y201000
X155000Y182000
X158000Y140000
X168000
X211000Y142000
X118000Y133000
X119000Y126000
X312000Y195000
X326000Y247000
X327000Y355000
X317000Y365000
X300000Y392000
X267999Y411999
X261000Y408000
X231000Y371000
X223000
X203000Y347000
X200000Y318000
X157000Y379000
X218000Y439000
X348000Y434000
Y426000
Y417000
Y408000
X349000Y340000
X357000
X474000Y409000
X484000
X493000
Y431000
X484000
X475000
X460000Y232000
X485000Y227000
X103000Y198000
X105000Y148000
X42000Y145000
Y154000
X43000Y181000
Y196000
X94000Y273000
X59000Y390000
X10000Y357000
T02
X144000Y138000
Y199000
X68000Y194000
X60000Y448000
T03
X400000Y143000
Y168000
Y193000
Y218000
Y243000
T04
X-15000Y89600
X15000
X125000Y67400
Y42000
Y10400
Y-15000
X505714Y477266
Y502666
X531114
Y477266
X480314
X454914
X429514
X404114
X378714
X353314
X327914
X302514
X277114
X251714
X226314
X200914
X175514
X150114
X124714
Y502666
X150114
X175514
X200914
X226314
X251714
X277114
X302514
X327914
X353314
X378714
X404114
X429514
X454914
X480314
X200400Y445000
X175000
X149600
X124200
X115000Y375000
Y327000
X35000Y349200
Y374600
Y400000
Y425400
X-10000Y425800
Y400400
Y375000
Y349600
X48514Y477266
Y502666
X73914
Y477266
X99314
Y502666
X15000Y140400
Y115000
X-15000
Y140400
T05
X536000Y263000
T06
X245000Y5000
X295000
X355000
X405000
X465000
X515000
T07
X0Y0
X580000Y-0
Y495000
X0
M30
